<?xml version="1.0" standalone="no"?>
<!DOCTYPE svg PUBLIC "-//W3C//DTD SVG 1.1//EN" "http://www.w3.org/Graphics/SVG/1.1/DTD/svg11.dtd" >
<svg xmlns="http://www.w3.org/2000/svg" xmlns:xlink="http://www.w3.org/1999/xlink" version="1.1">
<metadata>
Created by FontForge 20170910 at Tue Dec 24 02:47:43 2013
 By Jimmy Wärting
Copyright 2013. beIN Corporation, All Rights Reserved.
</metadata>
<defs>
<font id="beINBlack" horiz-adv-x="621" >
  <font-face 
    font-family="beIN Black "
    font-weight="400"
    font-stretch="normal"
    units-per-em="2048"
    panose-1="2 0 0 0 0 0 0 0 0 0"
    ascent="1638"
    descent="-410"
    x-height="1022"
    cap-height="1409"
    bbox="-258 -1038 2837 2387.88"
    underline-thickness="100"
    underline-position="-800"
    unicode-range="U+0001-FEFF"
  />
<missing-glyph horiz-adv-x="0" 
 />
    <glyph glyph-name="shaddawithfathatanisolated" unicode="&#x651;&#x64b;" 
d="M81 1951v71h461v-71h-461zM81 1807v71h461v-71h-461zM542 1592q0 -21 -7.5 -40t-21.5 -33t-33 -22t-40 -8h-257q-42 0 -72 30t-30 73v126h72v-116q0 -17 12 -29t29 -12h84v157h72v-157h80q17 0 29 12t12 29v116h71v-126z" />
    <glyph glyph-name="fathaonhamza" unicode="&#x674;&#x64e;" horiz-adv-x="678" 
d="M606 1685q0 -43 -30 -73t-72 -30h-257q-43 0 -73 30t-30 73v127h72v-117q0 -17 12 -29t29 -12h85v158h71v-158h80q17 0 29 12t12 29v117h72v-127zM144 1435v72h462v-72h-462zM144 1291v72h462v-72h-462z" />
    <glyph glyph-name="fathatanonhamza" unicode="&#x674;&#x64b;" 
d="M583 1716q-32 -10 -212 -94q-155 -73 -201 -73h-100q106 49 212 97q152 70 200 70h101zM554 1345q-28 -60 -60 -144q-119 13 -384 -148q24 48 44 75q30 44 82 89q-8 -1 -18 -1q-74 0 -74 65q0 10 4 24q27 92 110 194q47 54 103 54q61 0 121 -65q-26 -30 -82 -84
q-25 21 -60 21q-55 0 -102 -52q11 -60 137 -73q104 39 179 45z" />
    <glyph glyph-name="sukunonhamza" unicode="&#x674;&#x652;" 
d="M545 1797q-32 -10 -212 -94q-155 -73 -201 -73h-100q106 49 212 97q152 70 200 70h101zM583 1686q-32 -10 -212 -94q-155 -73 -201 -73h-100q106 49 212 97q152 70 200 70h101zM554 1332q-28 -60 -60 -144q-119 13 -384 -148q24 48 44 75q30 44 82 89q-8 -1 -18 -1
q-74 0 -74 65q0 10 4 24q27 92 110 194q47 54 103 54q61 0 121 -65q-26 -30 -82 -84q-25 21 -60 21q-55 0 -102 -52q11 -60 137 -73q104 39 179 45z" />
    <glyph glyph-name="dammaonhamza" unicode="&#x674;&#x64f;" 
d="M363 1637q0 -49 -38 -83t-90 -34q-53 0 -90.5 32.5t-37.5 74.5q0 50 64 116l84 86q0 -45 54 -99t54 -93zM297 1629q0 22 -22 46.5t-44 47.5q-19 -21 -38.5 -42.5t-19.5 -43.5q0 -56 60 -56q22 0 43 14.5t21 33.5zM552 1299q-28 -60 -60 -144q-119 13 -384 -148
q24 48 44 75q30 44 82 89q-8 -1 -18 -1q-74 0 -74 65q0 10 4 24q27 92 110 194q47 54 103 54q61 0 121 -65q-26 -30 -82 -84q-25 21 -60 21q-55 0 -102 -52q11 -60 137 -73q104 39 179 45z" />
    <glyph glyph-name="dammatanonhamza" unicode="&#x674;&#x64c;" 
d="M577 1658q-36 -76 -75 -180q-149 16 -481 -185q30 60 55 93q38 55 103 112q-10 -2 -22 -2q-93 0 -93 82q0 12 5 30q34 115 137 242q59 68 129 68q76 0 152 -82q-33 -37 -103 -105q-31 27 -75 27q-69 0 -128 -65q14 -75 172 -92q130 49 224 57zM432 2112q-13 9 -36 16
q-42 -73 -88.5 -124t-100.5 -78q-45 -21 -92.5 -34.5t-98.5 -22.5q172 95 337 264q-10 -2 -25.5 -1.5t-34.5 2.5q-21 2 -29 15t-6 37q8 100 65 148q11 12 26 10.5t29 -16.5q20 -20 30 -49.5t10 -65.5v-12q14 -6 25 -11.5t18 -9.5zM363 2213q-10 61 -34 61q-8 0 -19 -9
q-22 -18 -22 -30q0 -26 51 -26q16 0 24 4z" />
    <glyph glyph-name="shaddawithdammatanisolated" unicode="&#x651;&#x64c;" arabic-form="isolated" 
d="M545 1845h-72v-116q0 -17 -12 -29t-29 -12h-80v157h-72v-157h-84q-17 0 -29 12t-12 29v116h-72v-126q0 -43 30 -73t72 -30h257q43 0 73 30t30 73v126zM203 1909q-8 3 -13 11q-9 10 -10 20.5t-1 24.5l7 77l-73 -41l-34 63l101 56q6 5 22.5 9.5t34.5 -6.5q23 -15 23 -52v-1
l-7 -98q29 -4 57 -0.5t55 11.5q-18 14 -29.5 33.5t-15.5 40.5q-7 26 -2 53t19 49q32 46 90 49q29 1 54.5 -11t40.5 -33q36 -47 20 -103q-10 -34 -34 -61q9 -2 17.5 -4t17.5 -4l-14 -72q-21 5 -42 10.5t-42 13.5q-11 -8 -22 -13t-19 -9q-83 -33 -176 -20q-5 2 -11.5 3
t-13.5 4zM452 2132q-14 6 -27 3.5t-22.5 -11.5t-14 -22.5t0.5 -28.5q4 -19 16.5 -29t28.5 -18q14 11 24.5 25.5t14.5 29.5q4 14 -1 28.5t-20 22.5z" />
    <glyph glyph-name="shaddawithkasratanisolated" unicode="&#x651;&#x64d;" horiz-adv-x="678" arabic-form="isolated" 
d="M574 2060q0 -43 -30 -73t-72 -30h-257q-43 0 -73 30t-30 73v127h72v-117q0 -17 12 -29t29 -12h85v158h71v-158h80q17 0 29 12t12 29v117h72v-127zM112 1810v72h462v-72h-462zM112 1666v72h462v-72h-462z" />
    <glyph glyph-name="shaddawithfathaisolated" unicode="&#x651;&#x64e;" arabic-form="isolated" 
d="M78 1944v71h461v-71h-461zM539 1729q0 -21 -7.5 -40t-21.5 -33t-33 -22t-40 -8h-257q-42 0 -72 30t-30 73v126h72v-116q0 -17 12 -29t29 -12h84v157h72v-157h80q17 0 29 12t12 29v116h71v-126z" />
    <glyph glyph-name="shaddawithdammaisolated" unicode="&#x651;&#x64f;" arabic-form="isolated" 
d="M539 1628h-72v-116q0 -17 -12 -29t-29 -12h-79v157h-72v-157h-85q-17 0 -29 12t-12 29v116h-71v-126q0 -21 8 -40t22 -33q28 -30 72 -30h257q42 0 72 30t30 73v126zM118 1721l22 68q37 -12 77 -19.5t82 1.5q-32 32 -37 78q-3 27 5 53t25 46q18 20 42 30t52 8
q29 -3 52.5 -17t37.5 -37q30 -51 8 -105q-7 -17 -17.5 -31t-23.5 -26q8 -4 16.5 -6.5t17.5 -5.5l-23 -69q-20 7 -40.5 14.5t-40.5 18.5q-25 -13 -43 -17q-30 -8 -58.5 -9.5t-55 1.5t-51.5 9.5t-47 14.5zM403 1907q-13 8 -26.5 7t-23.5 -8.5t-16 -20.5t-4 -28q1 -9 5.5 -20
t17.5 -21q5 -4 8.5 -6.5t8.5 -5.5q14 11 26.5 23.5t18.5 27.5q5 14 2 29t-17 23z" />
    <glyph glyph-name="shaddawithkasraisolated" unicode="&#x651;&#x650;" horiz-adv-x="640" arabic-form="isolated" 
d="M555 1619q0 -43 -30 -73t-72 -30h-257q-43 0 -73 30t-30 73v127h72v-117q0 -17 12 -29t29 -12h85v158h71v-158h80q17 0 29 12t12 29v117h72v-127zM93 1369v72h462v-72h-462z" />
    <glyph glyph-name="shaddawithfathamedial" unicode="&#x640;&#x651;&#x64e;" horiz-adv-x="1033" arabic-form="medial" 
d="M188 1545v71h461v-71h-461zM649 1330q0 -21 -7.5 -40t-21.5 -33t-33 -22t-40 -8h-257q-42 0 -72 30t-30 73v126h72v-116q0 -17 12 -29t29 -12h84v157h72v-157h80q17 0 29 12t12 29v116h71v-126zM-42 189h1120v-189h-1120v189z" />
    <glyph glyph-name="shaddawithdammamedial" unicode="&#x640;&#x651;&#x64f;" horiz-adv-x="1033" arabic-form="medial" 
d="M677 1457h-72v-116q0 -17 -12 -29t-29 -12h-79v157h-72v-157h-85q-17 0 -29 12t-12 29v116h-71v-126q0 -21 8 -40t22 -33q28 -30 72 -30h257q42 0 72 30t30 73v126zM256 1550l22 68q37 -12 77 -19.5t82 1.5q-32 32 -37 78q-3 27 5 53t25 46q18 20 42 30t52 8
q29 -3 52.5 -17t37.5 -37q30 -51 8 -105q-7 -17 -17.5 -31t-23.5 -26q8 -4 16.5 -6.5t17.5 -5.5l-23 -69q-20 7 -40.5 14.5t-40.5 18.5q-25 -13 -43 -17q-30 -8 -58.5 -9.5t-55 1.5t-51.5 9.5t-47 14.5zM541 1736q-13 8 -26.5 7t-23.5 -8.5t-16 -20.5t-4 -28q1 -9 5.5 -20
t17.5 -21q5 -4 8.5 -6.5t8.5 -5.5q14 11 26.5 23.5t18.5 27.5q5 14 2 29t-17 23zM-42 0h1120v189h-1120v-189z" />
    <glyph glyph-name="shaddawithkasramedial" unicode="&#x640;&#x651;&#x650;" horiz-adv-x="1033" arabic-form="medial" 
d="M795 1543q0 -43 -30 -73t-72 -30h-257q-43 0 -73 30t-30 73v127h72v-117q0 -17 12 -29t29 -12h85v158h71v-158h80q17 0 29 12t12 29v117h72v-127zM333 1293v72h462v-72h-462zM-42 189h1120v-189h-1120v189z" />
    <glyph glyph-name="alefwithfathatanfinal" unicode="&#xfe8e;&#x64b;" horiz-adv-x="520" arabic-form="final" 
d="M361 1350v-1019q0 -32 22.5 -54t54.5 -22h124v-255h-124q-69 0 -129.5 26t-105.5 71t-71.5 105.5t-26.5 128.5v1019h256zM460 1528h-462v72h462v-72zM460 1672h-462v72h462v-72z" />
    <glyph glyph-name="alefwithfathatanisolated" unicode="&#xfe8d;&#x64b;" horiz-adv-x="465" arabic-form="isolated" 
d="M105 1350v-1350h255v1350h-255zM460 1528h-462v72h462v-72zM460 1672h-462v72h462v-72z" />
    <glyph glyph-name="allahisolated" unicode="&#xfedf;&#xfee0;&#xfeea;" horiz-adv-x="2124" arabic-form="isolated" 
d="M2019 1350v-1019q0 -68 -26 -128.5t-71 -105.5t-105.5 -71t-129.5 -26h-932v537q0 41 -15.5 77.5t-42.5 64t-63 43.5t-77 16t-77 -16t-62.5 -44t-42 -66t-15.5 -81v-202q0 -31 21.5 -52.5t53.5 -21.5h150v-255h-150q-68 0 -128 26t-105 70.5t-71 104.5t-26 128v202
q0 96 35.5 180t97 146.5t144 99t175.5 36.5t176 -37t144.5 -99.5t97 -145.5t34.5 -175v-281h242v1095h255v-1095h181q32 0 54.5 22t22.5 54v1019h255z" />
    <glyph glyph-name="tatweelwithfathatanabove" unicode="&#x640;&#x64b;" horiz-adv-x="1033" arabic-form="medial" 
d="M608 1275h-462v72h462v-72zM608 1419h-462v72h462v-72zM-42 0h1120v189h-1120v-189z" />
    <glyph glyph-name="fathamedial" unicode="&#x640;&#x64e;" horiz-adv-x="1033" arabic-form="medial" 
d="M756 1316h-462v72h462v-72zM-42 0h1120v189h-1120v-189z" />
    <glyph glyph-name="dammamedial" unicode="&#x640;&#x64f;" horiz-adv-x="1033" arabic-form="medial" 
d="M318 1219l-17 69q38 10 75.5 25t68.5 44q-45 11 -73 47q-17 21 -24 47.5t-3 52.5q5 26 20 47.5t39 34.5q26 13 54 13.5t52 -11.5q53 -28 62 -85q6 -33 -4 -70q9 2 17.5 4t17.5 4l17 -70q-20 -5 -41.5 -9.5t-44.5 -6.5q-7 -11 -14 -20.5t-13 -16.5q-43 -46 -92.5 -67
t-96.5 -32zM461 1528q-15 0 -26 -8t-15.5 -20t-3 -26t11.5 -26q5 -7 15 -13.5t27 -8.5q5 -1 10 -1h10q7 17 10.5 34t0.5 33q-2 14 -13 25t-27 11zM-42 0h1120v189h-1120v-189z" />
    <glyph glyph-name="kasramedial" unicode="&#x640;&#x650;" horiz-adv-x="1033" arabic-form="medial" 
d="M715 -396h-462v72h462v-72zM-42 189h1120v-189h-1120v189z" />
    <glyph glyph-name="shaddamedial" unicode="&#x640;&#x651;" horiz-adv-x="1033" arabic-form="medial" 
d="M352 1294q-21 0 -39.5 8t-32.5 22t-22 33t-8 40v126h72v-116q0 -17 12 -29t29 -12h84v157h72v-157h80q17 0 29 12t12 29v116h71v-126q0 -21 -8 -40t-21.5 -33t-32.5 -22t-40 -8h-257zM-42 0h1120v189h-1120v-189z" />
    <glyph glyph-name="sukunmedial" unicode="&#x640;&#x652;" horiz-adv-x="1033" arabic-form="medial" 
d="M438 1285q-33 0 -62 12.5t-50.5 34.5t-34 50.5t-12.5 61.5t12.5 62t34 50.5t50.5 34t62 12.5t61.5 -12.5t50 -34t34 -50.5t12.5 -62t-12.5 -61.5t-34 -50.5t-50 -34.5t-61.5 -12.5zM438 1531q-37 0 -62.5 -25.5t-25.5 -61.5t25.5 -61.5t62.5 -25.5q18 0 33.5 7t27 18.5
t18.5 27.5t7 34t-7 34t-18.5 27.5t-27 18.5t-33.5 7zM-42 0h1120v189h-1120v-189z" />
    <glyph glyph-name="lamwithalefmaddaaboveisolatedd" unicode="&#xfedf;&#xfe82;" horiz-adv-x="1209" arabic-form="isolated" 
d="M530 994v-739h243q32 0 54.5 22.5t22.5 54.5v1018h254v-1018q0 -69 -26 -129.5t-71 -105.5t-105 -71t-129 -26h-668v255h171v739h254zM590 1171q-26 -42 -54 -60.5t-58 -18.5q-24 0 -43 6.5t-34.5 14.5t-30 14.5t-30 6t-32.5 -11t-39 -35.5l-50 69q21 23 37 38t29 23.5
t25 12t26 3.5q30 0 54 -13t47.5 -21.5t48 -2.5t54.5 44z" />
    <glyph glyph-name="lamwithalefmaddaabovefinal" unicode="&#xfee0;&#xfe82;" horiz-adv-x="1249" arabic-form="final" 
d="M531 994v-739h320v1095h255v-1095h185v-255h-1186v255h171v739h255zM590 1171q-26 -42 -54 -60.5t-58 -18.5q-24 0 -43 6.5t-34.5 14.5t-30 14.5t-30 6t-32.5 -11t-39 -35.5l-50 69q21 23 37 38t29 23.5t25 12t26 3.5q30 0 54 -13t47.5 -21.5t48 -2.5t54.5 44z" />
    <glyph glyph-name="lamwithalefhamzaaboveisolatedd" unicode="&#xfedf;&#xfe84;" horiz-adv-x="1209" arabic-form="isolated" 
d="M530 994v-739h243q32 0 54.5 22.5t22.5 54.5v1018h254v-1018q0 -69 -26 -129.5t-71 -105.5t-105 -71t-129 -26h-668v255h171v739h254zM518 1330h-80h1q-34 -1 -49.5 -20.5t-15.5 -42.5q0 -15 3 -29t8 -25.5t12.5 -18.5t15.5 -7h142v-94h-308v94h49q-16 40 -16 80
q0 30 8.5 58t27 50t48.5 35.5t73 14.5h81v-95z" />
    <glyph glyph-name="lamwithalefhamzaabovefinal" unicode="&#xfee0;&#xfe84;" horiz-adv-x="1249" arabic-form="final" 
d="M531 994v-739h320v1095h255v-1095h185v-255h-1186v255h171v739h255zM518 1330h-80h1q-34 -1 -49.5 -20.5t-15.5 -42.5q0 -15 3 -29t8 -25.5t12.5 -18.5t15.5 -7h142v-94h-308v94h49q-16 40 -16 80q0 30 8.5 58t27 50t48.5 35.5t73 14.5h81v-95z" />
    <glyph glyph-name="lamwithalefhamzabelowisolated" unicode="&#xfedf;&#xfe88;" horiz-adv-x="1209" arabic-form="isolated" 
d="M530 994v-739h243q32 0 54.5 22.5t22.5 54.5v1018h254v-1018q0 -69 -26 -129.5t-71 -105.5t-105 -71t-129 -26h-668v255h171v739h254zM487 -195h-80h1q-34 -1 -49.5 -20.5t-15.5 -42.5q0 -15 3 -29t8 -25.5t12.5 -18.5t15.5 -7h142v-94h-308v94h49q-16 40 -16 80
q0 30 8.5 58t27 50t48.5 35.5t73 14.5h81v-95z" />
    <glyph glyph-name="lamwithalefhamzabelowfinal" unicode="&#xfee0;&#xfe88;" horiz-adv-x="1249" arabic-form="final" 
d="M531 994v-739h320v1095h255v-1095h185v-255h-1186v255h171v739h255zM487 -195h-80h1q-34 -1 -49.5 -20.5t-15.5 -42.5q0 -15 3 -29t8 -25.5t12.5 -18.5t15.5 -7h142v-94h-308v94h49q-16 40 -16 80q0 30 8.5 58t27 50t48.5 35.5t73 14.5h81v-95z" />
    <glyph glyph-name="lamwithalefisolated" unicode="&#xfedf;&#xfe8e;" horiz-adv-x="1209" arabic-form="isolated" 
d="M530 994v-739h243q32 0 54.5 22.5t22.5 54.5v1018h254v-1018q0 -69 -26 -129.5t-71 -105.5t-105 -71t-129 -26h-668v255h171v739h254z" />
    <glyph glyph-name="lamwithaleffinal" unicode="&#xfee0;&#xfe8e;" horiz-adv-x="1249" arabic-form="final" 
d="M531 994v-739h320v1095h255v-1095h185v-255h-1186v255h171v739h255z" />
    <glyph glyph-name="alefwaslaisolated" unicode="&#x671;" arabic-form="isolated" 
d="M577 1658q-36 -76 -75 -180q-149 16 -481 -185q30 60 55 93q38 55 103 112q-10 -2 -22 -2q-93 0 -93 82q0 12 5 30q34 115 137 242q59 68 129 68q76 0 152 -82q-33 -37 -103 -105q-31 27 -75 27q-69 0 -128 -65q14 -75 172 -92q130 49 224 57zM449 2197q-2 -5 -7 -14.5
t-11 -20.5t-11 -21t-7 -17q-6 7 -16.5 11.5t-18.5 6.5q-27 -49 -59 -89t-67 -69t-71 -45t-69 -22q4 13 9.5 24.5t10.5 26.5q8 25 2.5 42t-20.5 24.5t-36.5 6t-46 -13.5t-49.5 -34t-46 -55q24 44 48 79t50.5 58.5t54.5 31.5t60 -3q23 -8 30 -32.5t-15 -66.5q41 18 68 33
t45.5 31.5t33 36t30.5 43.5q-21 -5 -43.5 -7t-52.5 7q-15 2 -19.5 11.5t-4.5 17.5q0 51 13.5 98t43.5 86q20 29 42.5 25.5t47.5 -43.5q8 -15 13 -28.5t8.5 -27.5t5.5 -30.5t2 -36.5q11 -4 24.5 -8.5t27.5 -15.5zM350 2225q0 20 -1 38t-14 35q-2 5 -6.5 9.5t-10 6.5t-12 -0.5
t-13.5 -9.5q-11 -8 -17.5 -21t-11.5 -28q-3 -25 18.5 -30.5t67.5 0.5z" />
    <glyph glyph-name="alefwaslafinal" unicode="&#x671;" horiz-adv-x="490" arabic-form="final" 
d="M434 1625q0 -17 -42 -74q-72 -95 -209 -95q-82 0 -182 34q-29 -26 -91 -74q0 17 -3 43q42 43 128 126q39 -30 93 -38q136 120 216 120q90 0 90 -42zM355 1562q-6 44 -48 44q-48 0 -143 -65q32 -2 60 -2q80 0 131 23zM331 1350v-1019q0 -32 22.5 -54t54.5 -22h124v-255
h-124q-69 0 -129.5 26t-106 71t-71.5 105.5t-26 128.5v1019h256z" />
    <glyph glyph-name="pehisolated" unicode="&#x67e;" horiz-adv-x="1435" arabic-form="isolated" 
d="M1330 994v-662q0 -69 -26 -129.5t-71 -105.5t-105 -71t-129 -26h-438q-95 0 -178 36t-144.5 97.5t-97.5 144t-36 176.5v372h256v-372q0 -41 15.5 -77.5t42.5 -63.5t63.5 -42.5t78.5 -15.5h438q32 0 54 22.5t22 54.5v662h255zM757 -232q0 -27 -10.5 -50.5t-28 -41t-41 -28
t-50.5 -10.5t-50 10.5t-40.5 28t-27.5 41t-10 50.5t10 50.5t27.5 41t40.5 27.5t50 10t50.5 -10t41 -27.5t28 -41t10.5 -50.5zM1064 -232q0 -27 -10 -50.5t-27.5 -41t-41 -28t-50.5 -10.5t-50.5 10.5t-41 28t-27.5 41t-10 50.5t10 50.5t27.5 41t41 27.5t50.5 10t50.5 -10
t41 -27.5t27.5 -41t10 -50.5zM912 -482q0 -27 -10.5 -50.5t-28 -41t-41 -28t-50.5 -10.5t-50 10.5t-40.5 28t-27.5 41t-10 50.5t10 50.5t27.5 41t40.5 27.5t50 10t50.5 -10t41 -27.5t28 -41t10.5 -50.5z" />
    <glyph glyph-name="pehfinal" unicode="&#x67e;" horiz-adv-x="1474" arabic-form="final" 
d="M1331 994v-739h185v-255h-956q-94 0 -177 36t-144.5 97.5t-97.5 144t-36 176.5v372h256v-372q0 -41 15.5 -77.5t42.5 -63.5t63.5 -42.5t77.5 -15.5h515v739h256zM805 -232q0 -27 -10.5 -50.5t-28 -41t-41 -28t-50.5 -10.5t-50 10.5t-40.5 28t-27.5 41t-10 50.5t10 50.5
t27.5 41t40.5 27.5t50 10t50.5 -10t41 -27.5t28 -41t10.5 -50.5zM1112 -232q0 -27 -10 -50.5t-27.5 -41t-41 -28t-50.5 -10.5t-50.5 10.5t-41 28t-27.5 41t-10 50.5t10 50.5t27.5 41t41 27.5t50.5 10t50.5 -10t41 -27.5t27.5 -41t10 -50.5zM960 -482q0 -27 -10.5 -50.5
t-28 -41t-41 -28t-50.5 -10.5t-50 10.5t-40.5 28t-27.5 41t-10 50.5t10 50.5t27.5 41t40.5 27.5t50 10t50.5 -10t41 -27.5t28 -41t10.5 -50.5z" />
    <glyph glyph-name="pehinitial" unicode="&#x67e;" horiz-adv-x="645" arabic-form="initial" 
d="M540 994v-662q0 -69 -26 -129.5t-71 -105.5t-105.5 -71t-128.5 -26h-233v255h233q31 0 53.5 22.5t22.5 54.5v662h255zM216 -241q0 -27 -10.5 -50.5t-28 -41t-41 -28t-50.5 -10.5t-50 10.5t-40.5 28t-27.5 41t-10 50.5t10 50.5t27.5 41t40.5 27.5t50 10t50.5 -10t41 -27.5
t28 -41t10.5 -50.5zM523 -241q0 -27 -10 -50.5t-27.5 -41t-41 -28t-50.5 -10.5t-50.5 10.5t-41 28t-27.5 41t-10 50.5t10 50.5t27.5 41t41 27.5t50.5 10t50.5 -10t41 -27.5t27.5 -41t10 -50.5zM371 -491q0 -27 -10.5 -50.5t-28 -41t-41 -28t-50.5 -10.5t-50 10.5t-40.5 28
t-27.5 41t-10 50.5t10 50.5t27.5 41t40.5 27.5t50 10t50.5 -10t41 -27.5t28 -41t10.5 -50.5z" />
    <glyph glyph-name="pehmedial" unicode="&#x67e;" horiz-adv-x="667" arabic-form="medial" 
d="M523 994v-739h186v-255h-750v255h309v739h255zM216 -232q0 -27 -10.5 -50.5t-28 -41t-41 -28t-50.5 -10.5t-50 10.5t-40.5 28t-27.5 41t-10 50.5t10 50.5t27.5 41t40.5 27.5t50 10t50.5 -10t41 -27.5t28 -41t10.5 -50.5zM523 -232q0 -27 -10 -50.5t-27.5 -41t-41 -28
t-50.5 -10.5t-50.5 10.5t-41 28t-27.5 41t-10 50.5t10 50.5t27.5 41t41 27.5t50.5 10t50.5 -10t41 -27.5t27.5 -41t10 -50.5zM371 -482q0 -27 -10.5 -50.5t-28 -41t-41 -28t-50.5 -10.5t-50 10.5t-40.5 28t-27.5 41t-10 50.5t10 50.5t27.5 41t40.5 27.5t50 10t50.5 -10
t41 -27.5t28 -41t10.5 -50.5z" />
    <glyph glyph-name="vehisolated" unicode="&#x6a4;" horiz-adv-x="1862" arabic-form="isolated" 
d="M361 457q0 -42 16 -78.5t43.5 -64t64.5 -43.5t79 -16h295v291q0 96 35.5 178t96 142t142 94t174.5 34t174.5 -34.5t143 -94.5t96.5 -141t35 -173v-217q0 -75 -26 -137t-71.5 -105.5t-106.5 -67.5t-130 -24h-858q-95 0 -178.5 36t-146 98.5t-98.5 145.5t-36 177v369h256
v-369zM1115 255h307q33 0 55.5 21.5t22.5 57.5v217q0 39 -15 73.5t-41.5 60t-61.5 40t-75 14.5t-75 -15t-61 -41t-41 -61t-15 -76v-291zM1331 1220q0 27 10.5 50.5t28 41t41 28t50.5 10.5t50 -10.5t40.5 -28t27.5 -41t10 -50.5t-10 -50.5t-27.5 -41t-40.5 -27.5t-50 -10
t-50.5 10t-41 27.5t-28 41t-10.5 50.5zM1024 1220q0 27 10 50.5t27.5 41t41 28t50.5 10.5t50.5 -10.5t41 -28t27.5 -41t10 -50.5t-10 -50.5t-27.5 -41t-41 -27.5t-50.5 -10t-50.5 10t-41 27.5t-27.5 41t-10 50.5zM1176 1470q0 27 10.5 50.5t28 41t41 28t50.5 10.5t50 -10.5
t40.5 -28t27.5 -41t10 -50.5t-10 -50.5t-27.5 -41t-40.5 -27.5t-50 -10t-50.5 10t-41 27.5t-28 41t-10.5 50.5z" />
    <glyph glyph-name="vehfinal" unicode="&#x6a4;" horiz-adv-x="1897" arabic-form="final" 
d="M563 0q-95 0 -178.5 36t-145.5 98.5t-98 145.5t-36 177v369h255v-369q0 -42 16 -78.5t43.5 -64t64.5 -43.5t79 -16h295v291q0 96 35 178t96 142t142.5 94t173.5 34q93 0 175 -34.5t143 -94.5t96 -141t35 -173v-296h185v-255h-1376zM1114 255h385v296q0 39 -15.5 73.5
t-41.5 60t-61.5 40t-75.5 14.5q-39 0 -74 -15t-61 -41t-41 -61t-15 -76v-291zM1329 1220q0 27 10.5 50.5t28 41t41 28t50.5 10.5t50 -10.5t40.5 -28t27.5 -41t10 -50.5t-10 -50.5t-27.5 -41t-40.5 -27.5t-50 -10t-50.5 10t-41 27.5t-28 41t-10.5 50.5zM1022 1220
q0 27 10 50.5t27.5 41t41 28t50.5 10.5t50.5 -10.5t41 -28t27.5 -41t10 -50.5t-10 -50.5t-27.5 -41t-41 -27.5t-50.5 -10t-50.5 10t-41 27.5t-27.5 41t-10 50.5zM1174 1470q0 27 10.5 50.5t28 41t41 28t50.5 10.5t50 -10.5t40.5 -28t27.5 -41t10 -50.5t-10 -50.5t-27.5 -41
t-40.5 -27.5t-50 -10t-50.5 10t-41 27.5t-28 41t-10.5 50.5z" />
    <glyph glyph-name="vehinitial" unicode="&#x6a4;" horiz-adv-x="1145" arabic-form="initial" 
d="M-42 255h186v291q0 96 35 178t96 142t142 94t174 34t174.5 -34.5t142.5 -94.5t96 -141t35 -173v-217q0 -75 -26 -137t-71.5 -105.5t-106 -67.5t-129.5 -24h-748v255zM398 255h308q33 0 55.5 21.5t22.5 57.5v217q1 39 -14 73.5t-41.5 60t-62 40t-75.5 14.5t-75 -15
t-61.5 -41t-41.5 -61t-15 -76v-291zM615 1220q0 27 10.5 50.5t28 41t41 28t50.5 10.5t50 -10.5t40.5 -28t27.5 -41t10 -50.5t-10 -50.5t-27.5 -41t-40.5 -27.5t-50 -10t-50.5 10t-41 27.5t-28 41t-10.5 50.5zM308 1220q0 27 10 50.5t27.5 41t41 28t50.5 10.5t50.5 -10.5
t41 -28t27.5 -41t10 -50.5t-10 -50.5t-27.5 -41t-41 -27.5t-50.5 -10t-50.5 10t-41 27.5t-27.5 41t-10 50.5zM460 1470q0 27 10.5 50.5t28 41t41 28t50.5 10.5t50 -10.5t40.5 -28t27.5 -41t10 -50.5t-10 -50.5t-27.5 -41t-40.5 -27.5t-50 -10t-50.5 10t-41 27.5t-28 41
t-10.5 50.5z" />
    <glyph glyph-name="vehmedial" unicode="&#x6a4;" horiz-adv-x="1183" arabic-form="medial" 
d="M-42 0v255h186v291q0 96 35 178t96 142t142 94t174 34t174.5 -34.5t142.5 -94.5t96.5 -141t35.5 -173v-296h185v-255h-1267zM398 255h387v296q0 39 -15.5 73.5t-41.5 60t-61.5 40t-75.5 14.5t-75 -15t-61.5 -41t-41.5 -61t-15 -76v-291zM613 1220q0 27 10.5 50.5t28 41
t41 28t50.5 10.5t50 -10.5t40.5 -28t27.5 -41t10 -50.5t-10 -50.5t-27.5 -41t-40.5 -27.5t-50 -10t-50.5 10t-41 27.5t-28 41t-10.5 50.5zM306 1220q0 27 10 50.5t27.5 41t41 28t50.5 10.5t50.5 -10.5t41 -28t27.5 -41t10 -50.5t-10 -50.5t-27.5 -41t-41 -27.5t-50.5 -10
t-50.5 10t-41 27.5t-27.5 41t-10 50.5zM458 1470q0 27 10.5 50.5t28 41t41 28t50.5 10.5t50 -10.5t40.5 -28t27.5 -41t10 -50.5t-10 -50.5t-27.5 -41t-40.5 -27.5t-50 -10t-50.5 10t-41 27.5t-28 41t-10.5 50.5z" />
    <glyph glyph-name="tchehisolated" unicode="&#x686;" horiz-adv-x="1095" arabic-form="isolated" 
d="M114 885q31 15 80.5 34t107.5 36t119 28.5t117 11.5q85 0 166 -20.5t144.5 -73t102.5 -143t39 -229.5v-200q0 -68 -26 -128t-71 -104.5t-106 -70.5t-130 -26h-259q-19 0 -29 -15t-10 -34t10 -35t29 -16h239v-255h-239q-74 0 -128.5 26.5t-91.5 69.5t-55 98t-18 112
t18 111.5t55 97.5t91.5 69t128.5 26h259q32 0 55 21.5t23 52.5v200q0 62 -17 103t-45 65t-63 33.5t-72 9.5q-40 0 -85 -9t-88 -21.5t-80 -27.5t-61 -27zM841 -175q0 -26 -18 -44t-44 -18t-44 18t-18 44t18 44t44 18t44 -18t18 -44zM988 -175q0 -26 -18 -44t-44 -18t-44 18
t-18 44t18 44t44 18t44 -18t18 -44zM916 -294q0 -26 -19 -44t-44 -18q-26 0 -44 18t-18 44t18 44t44 18q25 0 44 -18t19 -44z" />
    <glyph glyph-name="tchehfinal" unicode="&#x686;" horiz-adv-x="1135" arabic-form="final" 
d="M115 885q31 15 80.5 34t107.5 36t119 28.5t117 11.5q85 0 166.5 -20.5t145 -73t102.5 -143t39 -229.5v-274h185v-255h-779q-19 0 -28.5 -15t-9.5 -34t9.5 -35t28.5 -16h239v-255h-239q-74 0 -128.5 26.5t-91.5 69.5t-55 98t-18 112t18 111.5t55 97.5t91.5 69t128.5 26
h338v274q0 62 -17 103t-44.5 65t-63 33.5t-72.5 9.5q-39 0 -84 -9t-88 -21.5t-80.5 -27.5t-61.5 -27zM841 -175q0 -26 -18 -44t-44 -18t-44 18t-18 44t18 44t44 18t44 -18t18 -44zM988 -175q0 -26 -18 -44t-44 -18t-44 18t-18 44t18 44t44 18t44 -18t18 -44zM916 -294
q0 -26 -19 -44t-44 -18q-26 0 -44 18t-18 44t18 44t44 18q25 0 44 -18t19 -44z" />
    <glyph glyph-name="tchehinitial" unicode="&#x686;" horiz-adv-x="1099" arabic-form="initial" 
d="M118 885q32 15 81.5 34t107 36t119 28.5t117.5 11.5q85 0 166 -20.5t144.5 -73t102 -143t38.5 -229.5v-200q0 -68 -26 -128t-71.5 -104.5t-106 -70.5t-129.5 -26h-703v255h703q33 0 56 21.5t23 52.5v200q0 62 -17 103t-45 65t-63 33.5t-72 9.5q-40 0 -85 -9t-88 -21.5
t-80.5 -27.5t-62.5 -27zM530 -232q0 -27 -10.5 -50.5t-28 -41t-41 -28t-50.5 -10.5t-50 10.5t-40.5 28t-27.5 41t-10 50.5t10 50.5t27.5 41t40.5 27.5t50 10t50.5 -10t41 -27.5t28 -41t10.5 -50.5zM837 -232q0 -27 -10 -50.5t-27.5 -41t-41 -28t-50.5 -10.5t-50.5 10.5
t-41 28t-27.5 41t-10 50.5t10 50.5t27.5 41t41 27.5t50.5 10t50.5 -10t41 -27.5t27.5 -41t10 -50.5zM685 -482q0 -27 -10.5 -50.5t-28 -41t-41 -28t-50.5 -10.5t-50 10.5t-40.5 28t-27.5 41t-10 50.5t10 50.5t27.5 41t40.5 27.5t50 10t50.5 -10t41 -27.5t28 -41t10.5 -50.5z
" />
    <glyph glyph-name="tchehmedial" unicode="&#x686;" horiz-adv-x="1141" arabic-form="medial" 
d="M121 885q31 15 80.5 34t107.5 36t119.5 28.5t117.5 11.5q85 0 166 -20.5t144.5 -73t102 -143t38.5 -229.5v-274h186v-255h-1225v255h785v274q0 62 -17 103t-45 65t-63 33.5t-72 9.5q-40 0 -85 -9t-88.5 -21.5t-81 -27.5t-61.5 -27zM530 -232q0 -27 -10.5 -50.5t-28 -41
t-41 -28t-50.5 -10.5t-50 10.5t-40.5 28t-27.5 41t-10 50.5t10 50.5t27.5 41t40.5 27.5t50 10t50.5 -10t41 -27.5t28 -41t10.5 -50.5zM837 -232q0 -27 -10 -50.5t-27.5 -41t-41 -28t-50.5 -10.5t-50.5 10.5t-41 28t-27.5 41t-10 50.5t10 50.5t27.5 41t41 27.5t50.5 10
t50.5 -10t41 -27.5t27.5 -41t10 -50.5zM685 -482q0 -27 -10.5 -50.5t-28 -41t-41 -28t-50.5 -10.5t-50 10.5t-40.5 28t-27.5 41t-10 50.5t10 50.5t27.5 41t40.5 27.5t50 10t50.5 -10t41 -27.5t28 -41t10.5 -50.5z" />
    <glyph glyph-name="jehisolated" unicode="&#x698;" horiz-adv-x="776" arabic-form="isolated" 
d="M539 994v-857q0 -2 -1 -29t-11.5 -69t-34.5 -96t-70 -110.5t-118 -111.5t-178 -100l-99 236q49 21 86.5 43.5t65 46t45.5 46t30 42.5q27 48 29 94v865h256zM413 1220q0 27 10.5 50.5t28 41t41 28t50.5 10.5t50 -10.5t40.5 -28t27.5 -41t10 -50.5t-10 -50.5t-27.5 -41
t-40.5 -27.5t-50 -10t-50.5 10t-41 27.5t-28 41t-10.5 50.5zM106 1220q0 27 10 50.5t27.5 41t41 28t50.5 10.5t50.5 -10.5t41 -28t27.5 -41t10 -50.5t-10 -50.5t-27.5 -41t-41 -27.5t-50.5 -10t-50.5 10t-41 27.5t-27.5 41t-10 50.5zM258 1470q0 27 10.5 50.5t28 41t41 28
t50.5 10.5t50 -10.5t40.5 -28t27.5 -41t10 -50.5t-10 -50.5t-27.5 -41t-40.5 -27.5t-50 -10t-50.5 10t-41 27.5t-28 41t-10.5 50.5z" />
    <glyph glyph-name="jehfinal" unicode="&#x698;" horiz-adv-x="681" arabic-form="final" 
d="M538 994v-739h185v-255h-204q-12 -41 -37 -89t-70.5 -98.5t-115.5 -99.5t-171 -91l-98 235q49 21 86.5 43.5t64.5 45t45 44t30 41.5q27 46 29 90v873h256zM413 1220q0 27 10.5 50.5t28 41t41 28t50.5 10.5t50 -10.5t40.5 -28t27.5 -41t10 -50.5t-10 -50.5t-27.5 -41
t-40.5 -27.5t-50 -10t-50.5 10t-41 27.5t-28 41t-10.5 50.5zM106 1220q0 27 10 50.5t27.5 41t41 28t50.5 10.5t50.5 -10.5t41 -28t27.5 -41t10 -50.5t-10 -50.5t-27.5 -41t-41 -27.5t-50.5 -10t-50.5 10t-41 27.5t-27.5 41t-10 50.5zM258 1470q0 27 10.5 50.5t28 41t41 28
t50.5 10.5t50 -10.5t40.5 -28t27.5 -41t10 -50.5t-10 -50.5t-27.5 -41t-40.5 -27.5t-50 -10t-50.5 10t-41 27.5t-28 41t-10.5 50.5z" />
    <glyph glyph-name="kehehisolated" unicode="&#x6a9;" horiz-adv-x="2278" arabic-form="isolated" 
d="M2250 172q-46 -43 -112 -43h-2098l560 549l44 -103q34 -80 127 -80h234l-66 -68q-44 -46 -71 -57q-21 -10 -70 -10h-143q-64 0 -88 13q-34 18 -70 89l-70 -75q-30 -39 -30 -45q0 -22 24 -42.5t52 -20.5h1468l-41 81h-723q-36 0 -64 25q-31 28 -31 76q0 17 91 105l398 384
q82 79 82 142q0 152 -144 152q-48 0 -113 -27q-50 -21 -99 -43l296 294l100 -198q51 -101 51 -174q0 -100 -99 -194l-168 -160q-64 -61 -64 -86q0 -35 10 -50l15 -38q23 -58 91 -58h463q26 0 61 -75l68 -144q33 -69 47 -86q29 -33 82 -33z" />
    <glyph glyph-name="kehehfinal" unicode="&#x6a9;" horiz-adv-x="2185" arabic-form="final" 
d="M2255 129h-2215l560 549l44 -103q34 -80 127 -80h234l-66 -68q-44 -46 -71 -57q-21 -10 -70 -10h-143q-64 0 -88 13q-34 18 -70 89l-70 -75q-30 -39 -30 -45q0 -22 24 -42.5t52 -20.5h1468l-41 81h-723q-36 0 -64 25q-31 28 -31 76q0 17 91 105l398 384q82 79 82 142
q0 152 -144 152q-48 0 -113 -27q-50 -21 -99 -43l296 294l100 -198q51 -101 51 -174q0 -100 -99 -194l-168 -160q-64 -61 -64 -86q0 -35 10 -50l15 -38q23 -58 91 -58h463q26 0 61 -75l72 -156h130v-150z" />
    <glyph glyph-name="kehehinitial" unicode="&#x6a9;" horiz-adv-x="1246" arabic-form="initial" 
d="M1213 172q-46 -43 -112 -43h-1101v150h904l-41 81h-723q-36 0 -64 25q-31 28 -31 76q0 17 91 105l398 384q82 79 82 142q0 152 -144 152q-48 0 -113 -27q-50 -21 -99 -43l296 294l100 -198q51 -101 51 -174q0 -100 -99 -194l-168 -160q-64 -61 -64 -86q0 -35 10 -50
l15 -38q23 -58 91 -58h463q26 0 61 -75l68 -144q33 -70 47 -86q29 -33 82 -33z" />
    <glyph glyph-name="kehehmedial" unicode="&#x6a9;" horiz-adv-x="1148" arabic-form="medial" 
d="M1218 129h-1218v150h904l-41 81h-723q-36 0 -64 25q-31 28 -31 76q0 17 91 105l398 384q82 79 82 142q0 152 -144 152q-48 0 -113 -27q-50 -21 -99 -43l296 294l100 -198q51 -101 51 -174q0 -100 -99 -194l-168 -160q-64 -61 -64 -86q0 -35 10 -50l15 -38q23 -58 91 -58
h463q26 0 61 -75l72 -156h130v-150z" />
    <glyph glyph-name="gafisolated" unicode="&#x6af;" horiz-adv-x="2278" arabic-form="isolated" 
d="M2250 172q-26 -24 -112 -43h-2098l560 549l44 -103q34 -80 127 -80h234l-66 -68q-44 -46 -71 -57q-21 -10 -70 -10h-143q-64 0 -88 13q-34 18 -70 89l-70 -75q-30 -39 -30 -45q0 -22 24 -42.5t52 -20.5h1468l-41 81h-723q-36 0 -64 25q-31 28 -31 76q0 17 91 105l398 384
q82 79 82 142q0 152 -144 152q-48 0 -113 -27q-50 -21 -99 -43l296 294l100 -198q51 -101 51 -174q0 -100 -99 -194l-168 -160q-64 -61 -64 -86q0 -35 10 -50l15 -38q23 -58 91 -58h463q26 0 61 -75l68 -144q33 -69 47 -86q29 -33 82 -33zM1650 1605l-577 -389l-26 39
l522 470z" />
    <glyph glyph-name="gaffinal" unicode="&#x6af;" horiz-adv-x="2185" arabic-form="final" 
d="M2255 129h-2215l560 549l44 -103q34 -80 127 -80h234l-66 -68q-44 -46 -71 -57q-21 -10 -70 -10h-143q-64 0 -88 13q-34 18 -70 89l-70 -75q-30 -39 -30 -45q0 -22 24 -42.5t52 -20.5h1468l-41 81h-723q-36 0 -64 25q-31 28 -31 76q0 17 91 105l398 384q82 79 82 142
q0 152 -144 152q-48 0 -113 -27q-50 -21 -99 -43l296 294l100 -198q51 -101 51 -174q0 -100 -99 -194l-168 -160q-64 -61 -64 -86q0 -35 10 -50l15 -38q23 -58 91 -58h463q26 0 61 -75l72 -156h130v-150zM1650 1605l-577 -389l-26 39l522 470z" />
    <glyph glyph-name="gafinitial" unicode="&#x6af;" horiz-adv-x="1246" arabic-form="initial" 
d="M1213 172q-46 -43 -112 -43h-1101v150h904l-41 81h-723q-36 0 -64 25q-31 28 -31 76q0 17 91 105l398 384q82 79 82 142q0 152 -144 152q-48 0 -113 -27q-50 -21 -99 -43l296 294l100 -198q51 -101 51 -174q0 -100 -99 -194l-168 -160q-64 -61 -64 -86q0 -35 10 -50
l15 -38q23 -58 91 -58h463q26 0 61 -75l68 -144q33 -70 47 -86q29 -33 82 -33zM613 1605l-577 -389l-26 39l522 470z" />
    <glyph glyph-name="gafmedial" unicode="&#x6af;" horiz-adv-x="1148" arabic-form="medial" 
d="M1218 129h-1218v150h904l-41 81h-723q-36 0 -64 25q-31 28 -31 76q0 17 91 105l398 384q82 79 82 142q0 152 -144 152q-48 0 -113 -27q-50 -21 -99 -43l296 294l100 -198q51 -101 51 -174q0 -100 -99 -194l-168 -160q-64 -61 -64 -86q0 -35 10 -50l15 -38q23 -58 91 -58
h463q26 0 61 -75l72 -156h130v-150zM613 1605l-577 -389l-26 39l522 470z" />
    <glyph glyph-name="farsiyehisolated" unicode="&#x6cc;" horiz-adv-x="1380" arabic-form="isolated" 
d="M1350 277q-19 -7 -37 -15q-27 -9 -80 -9q-122 0 -176 22q-71 28 -115 115l-46 92q-35 70 -58 70q-22 0 -62 -38l-90 -86q-40 -38 -40 -68q0 -28 17 -42q5 -3 45 -22l162 -76q86 -40 86 -116q0 -52 -67 -116l-205 -197q-62 -60 -108 -60q-54 0 -113 59l-329 329
q-64 64 -64 88q0 42 50 90l188 182l-46 -82q-34 -64 -34 -86q0 -29 57 -86l271 -272q68 -68 90 -68q13 0 73 58l50 48q27 26 27 46q0 45 -49 69l-188 91q-46 22 -60 38q-21 24 -21 70q0 40 100 137l431 418q-14 -45 -14 -78q0 -36 43 -122l122 -244q60 -121 190 -139z" />
    <glyph glyph-name="farsiyehfinal" unicode="&#x6cc;" horiz-adv-x="1280" arabic-form="final" 
d="M1350 129h-167q-111 0 -165 109l-122 244q-35 70 -58 70q-22 0 -62 -38l-90 -86q-40 -38 -40 -68q0 -28 17 -42q5 -3 45 -22l162 -76q86 -40 86 -116q0 -52 -67 -116l-205 -197q-62 -60 -108 -60q-54 0 -113 59l-329 329q-64 64 -64 88q0 42 50 90l188 182l-46 -82
q-34 -64 -34 -86q0 -29 57 -86l271 -272q68 -68 90 -68q13 0 73 58l50 48q27 26 27 46q0 45 -49 69l-188 91q-46 22 -60 38q-21 24 -21 70q0 40 100 137l431 418q-14 -45 -14 -78q0 -36 43 -122l152 -304q39 -77 113 -77h47v-150z" />
    <glyph glyph-name="fathatanisolated" unicode="&#xfe70;" horiz-adv-x="583" arabic-form="isolated" 
d="M518 1275h-462v72h462v-72zM518 1419h-462v72h462v-72z" />
    <glyph glyph-name="dammatanisolated" unicode="&#xfe72;" horiz-adv-x="576" arabic-form="isolated" 
d="M233 1300q-9 0 -17 4q-12 5 -17.5 14.5t-11.5 21.5l-27 73l-49 -69l-58 43l68 94q4 6 16.5 18t33.5 9q27 -3 43 -37v-1l36 -92q54 19 97 59q-46 11 -73 47q-17 21 -24 47.5t-4 52.5q5 26 20 47.5t40 34.5q26 13 54 13.5t51 -11.5q53 -28 62 -85q6 -33 -4 -70l18 4t17 4
l18 -70q-21 -5 -42 -9.5t-44 -6.5q-7 -11 -14.5 -20.5t-13.5 -16.5q-61 -65 -150 -93q-5 -2 -11.5 -3.5t-13.5 -1.5zM362 1608q-15 0 -26 -8t-15.5 -20t-3 -26t12.5 -26q11 -15 27.5 -19t33.5 -4q8 17 11 34t1 33q-3 14 -13.5 25t-27.5 11z" />
    <glyph glyph-name="kasratanisolated" unicode="&#xfe74;" horiz-adv-x="583" arabic-form="isolated" 
d="M518 -441h-462v72h462v-72zM518 -297h-462v72h462v-72z" />
    <glyph glyph-name="fathaisolated" unicode="&#xfe76;" horiz-adv-x="583" arabic-form="isolated" 
d="M522 1250h-462v72h462v-72z" />
    <glyph glyph-name="dammaisolated" unicode="&#xfe78;" horiz-adv-x="511" arabic-form="isolated" 
d="M121 1209l-17 69q38 10 75.5 25t68.5 44q-45 11 -73 47q-17 21 -24 47.5t-3 52.5q5 26 20 47.5t39 34.5q26 13 54 13.5t52 -11.5q53 -28 62 -85q6 -33 -4 -70q9 2 17.5 4t17.5 4l17 -70q-20 -5 -41.5 -9.5t-44.5 -6.5q-7 -11 -14 -20.5t-13 -16.5q-43 -46 -92.5 -67
t-96.5 -32zM264 1518q-15 0 -26 -8t-15.5 -20t-3 -26t11.5 -26q5 -7 15 -13.5t27 -8.5q5 -1 10 -1h10q7 17 10.5 34t0.5 33q-2 14 -13 25t-27 11z" />
    <glyph glyph-name="kasraisolated" unicode="&#xfe7a;" horiz-adv-x="583" arabic-form="isolated" 
d="M525 -306h-462v72h462v-72z" />
    <glyph glyph-name="shaddaisolated" unicode="&#xfe7c;" horiz-adv-x="551" arabic-form="isolated" 
d="M142 1324q-21 0 -39.5 8t-32.5 22t-22 33t-8 40v126h72v-116q0 -17 12 -29t29 -12h84v157h72v-157h80q17 0 29 12t12 29v116h71v-126q0 -21 -8 -40t-21.5 -33t-32.5 -22t-40 -8h-257z" />
    <glyph glyph-name="sukunisolated" unicode="&#xfe7e;" horiz-adv-x="326" arabic-form="isolated" 
d="M165 1285q-33 0 -62 12.5t-50.5 34.5t-34 50.5t-12.5 61.5t12.5 62t34 50.5t50.5 34t62 12.5t61.5 -12.5t50 -34t34 -50.5t12.5 -62t-12.5 -61.5t-34 -50.5t-50 -34.5t-61.5 -12.5zM165 1531q-37 0 -62.5 -25.5t-25.5 -61.5t25.5 -61.5t62.5 -25.5q18 0 33.5 7t27 18.5
t18.5 27.5t7 34t-7 34t-18.5 27.5t-27 18.5t-33.5 7z" />
    <glyph glyph-name="hamzaisolated" unicode="&#x621;" horiz-adv-x="1173" arabic-form="isolated" 
d="M904 678h-222q-46 -4 -81 -21t-58.5 -43t-35.5 -58.5t-12 -65.5q0 -43 8.5 -85t24 -75.5t36.5 -54t45 -20.5h459v-255h-963v255h183q-49 112 -49 235q0 83 23.5 162t75.5 140.5t135 99.5t201 41h230v-255z" />
    <glyph glyph-name="alefwithmaddaaboveisolated" unicode="&#x622;" horiz-adv-x="465" arabic-form="isolated" 
d="M360 1350v-1350h-255v1350h255zM413 1526q-26 -42 -54 -60.5t-58 -18.5q-24 0 -43 6.5t-34.5 14.5t-30 14.5t-30 6t-32.5 -11t-39 -35.5l-50 69q21 23 37 38t29 23.5t25 12t26 3.5q30 0 54 -13t47.5 -21.5t48 -2.5t54.5 44z" />
    <glyph glyph-name="alefwithmaddaabovefinal" unicode="&#x622;" horiz-adv-x="520" arabic-form="final" 
d="M361 1350v-1019q0 -32 22.5 -54t54.5 -22h124v-255h-124q-69 0 -129.5 26t-106 71t-71.5 105.5t-26 128.5v1019h256zM412 1526q-26 -42 -54 -60.5t-58 -18.5q-24 0 -43 6.5t-34.5 14.5t-30 14.5t-30 6t-32.5 -11t-39 -35.5l-50 69q21 23 37 38t29 23.5t25 12t26 3.5
q30 0 54 -13t47.5 -21.5t48 -2.5t54.5 44z" />
    <glyph glyph-name="alefwithhamzaaboveisolated" unicode="&#x623;" horiz-adv-x="465" arabic-form="isolated" 
d="M360 1350v-1350h-255v1350h255zM348 1686h-80h1q-34 -1 -49.5 -20.5t-15.5 -42.5q0 -15 3 -29t8 -25.5t12.5 -18.5t15.5 -7h142v-94h-308v94h49q-16 40 -16 80q0 30 8.5 58t27 50t48.5 35.5t73 14.5h81v-95z" />
    <glyph glyph-name="alefwithhamzaabovefinal" unicode="&#x623;" horiz-adv-x="548" arabic-form="final" 
d="M376 1686h-80h1q-34 -1 -49.5 -20.5t-15.5 -42.5q0 -15 3 -29t8 -25.5t12.5 -18.5t15.5 -7h142v-94h-308v94h49q-16 40 -16 80q0 30 8.5 58t27 50t48.5 35.5t73 14.5h81v-95zM389 1350v-1019q0 -32 22.5 -54t54.5 -22h124v-255h-124q-69 0 -129.5 26t-106 71t-71.5 105.5
t-26 128.5v1019h256z" />
    <glyph glyph-name="wawwithhamzaaboveisolated" unicode="&#x624;" horiz-adv-x="1116" arabic-form="isolated" 
d="M238 -101h321q57 0 102 26t69 75h-295q-68 0 -128 26t-105 70.5t-71 104.5t-26 128v202q0 96 35.5 180t97 147t144 99.5t175.5 36.5q94 0 176.5 -37.5t144 -100.5t97 -146t35.5 -174v-440q0 -93 -35.5 -175.5t-96.5 -144t-143.5 -97t-175.5 -35.5h-321v255zM755 255v281
q0 40 -15.5 77t-42.5 64.5t-63 44t-77 16.5t-76.5 -16t-62 -44t-42 -66t-15.5 -81v-202q0 -31 21.5 -52.5t52.5 -21.5h320zM656 1382h-80h1q-34 -1 -49.5 -20.5t-15.5 -42.5q0 -15 3 -29t8 -25.5t12.5 -18.5t15.5 -7h142v-94h-308v94h49q-16 40 -16 80q0 30 8.5 58t27 50
t48.5 35.5t73 14.5h81v-95z" />
    <glyph glyph-name="wawwithhamzaabovefinal" unicode="&#x624;" horiz-adv-x="1152" arabic-form="final" 
d="M238 -101h320q57 0 102 26t69 75h-295q-68 0 -128 26t-104.5 70.5t-70.5 104.5t-26 128v202q0 96 35.5 180t97 147t143.5 99.5t175 36.5q94 0 176.5 -37.5t144 -100.5t97 -146t35.5 -174v-281h185v-255h-194q-17 -75 -58.5 -140t-100 -113t-131 -75.5t-152.5 -27.5h-320
v255zM754 255v281q0 40 -15 77t-42 64.5t-63.5 44t-77.5 16.5t-76.5 -16t-62 -44t-42 -66t-15.5 -81v-202q0 -31 21.5 -52.5t52.5 -21.5h320zM656 1382h-80h1q-34 -1 -49.5 -20.5t-15.5 -42.5q0 -15 3 -29t8 -25.5t12.5 -18.5t15.5 -7h142v-94h-308v94h49q-16 40 -16 80
q0 30 8.5 58t27 50t48.5 35.5t73 14.5h81v-95z" />
    <glyph glyph-name="alefwithhamzabelowisolated" unicode="&#x625;" horiz-adv-x="465" arabic-form="isolated" 
d="M360 1350v-1350h-255v1350h255zM351 -194h-80h1q-34 -1 -49.5 -20.5t-15.5 -42.5q0 -15 3 -29t8 -25.5t12.5 -18.5t15.5 -7h142v-94h-308v94h49q-16 40 -16 80q0 30 8.5 58t27 50t48.5 35.5t73 14.5h81v-95z" />
    <glyph glyph-name="alefwithhamzabelowfinal" unicode="&#x625;" horiz-adv-x="520" arabic-form="final" 
d="M361 1350v-1019q0 -32 22.5 -54t54.5 -22h124v-255h-124q-69 0 -129.5 26t-106 71t-71.5 105.5t-26 128.5v1019h256zM377 -99h-81q-43 -1 -73 -14.5t-48.5 -35.5t-27 -50t-8.5 -58q0 -40 16 -80h-49v-94h308v94h-142q-8 0 -15.5 7t-12.5 18.5t-8 25.5t-3 29
q0 23 15.5 42.5t49.5 20.5h-1h80v95z" />
    <glyph glyph-name="yehwithhamzaaboveisolated" unicode="&#x626;" horiz-adv-x="1257" arabic-form="isolated" 
d="M1098 738h-271q-32 0 -55 -22.5t-23 -56.5v-195h74q81 0 143 -26t103 -73.5t62 -113.5t21 -146q0 -115 -44 -201.5t-115.5 -144t-163 -86.5t-187.5 -29q-95 0 -186.5 28.5t-162.5 86t-114.5 143.5t-43.5 201v723h254v-723q0 -51 21.5 -89t57 -63.5t81 -38.5t93.5 -13
t93.5 13t81.5 39t58 64.5t22 89.5q0 47 -18.5 75.5t-55.5 28.5h-329v450q0 69 26 130t71.5 106.5t106 72t129.5 26.5h271v-256zM376 1163h-80h1q-34 -1 -49.5 -20.5t-15.5 -42.5q0 -15 3 -29t8 -25.5t12.5 -18.5t15.5 -7h142v-94h-308v94h49q-16 40 -16 80q0 30 8.5 58
t27 50t48.5 35.5t73 14.5h81v-95z" />
    <glyph glyph-name="yehwithhamzaabovefinal" unicode="&#x626;" horiz-adv-x="1191" arabic-form="final" 
d="M1233 0h-95q-18 -91 -67 -158t-116.5 -111.5t-149.5 -66t-166 -21.5q-95 0 -186.5 28.5t-163 86t-115 143.5t-43.5 201v724h256v-724q0 -51 21.5 -89t57 -63.5t81 -38.5t92.5 -13q33 0 66 7t62.5 20t54.5 32t42 43h-298v255h667v-255zM376 1163h-80h1q-34 -1 -49.5 -20.5
t-15.5 -42.5q0 -15 3 -29t8 -25.5t12.5 -18.5t15.5 -7h142v-94h-308v94h49q-16 40 -16 80q0 30 8.5 58t27 50t48.5 35.5t73 14.5h81v-95z" />
    <glyph glyph-name="yehwithhamzaaboveinitial" unicode="&#x626;" horiz-adv-x="648" arabic-form="initial" 
d="M522 994v-662q0 -69 -26.5 -129.5t-71.5 -105.5t-105.5 -71t-129.5 -26h-231v255h231q32 0 55 22.5t23 54.5v662h255zM506 1382h-80h1q-34 -1 -49.5 -20.5t-15.5 -42.5q0 -15 3 -29t8 -25.5t12.5 -18.5t15.5 -7h142v-94h-308v94h49q-16 40 -16 80q0 30 8.5 58t27 50
t48.5 35.5t73 14.5h81v-95z" />
    <glyph glyph-name="yehwithhamzaabovemedial" unicode="&#x626;" horiz-adv-x="666" arabic-form="medial" 
d="M522 994v-739h186v-255h-750v255h309v739h255zM506 1382h-80h1q-34 -1 -49.5 -20.5t-15.5 -42.5q0 -15 3 -29t8 -25.5t12.5 -18.5t15.5 -7h142v-94h-308v94h49q-16 40 -16 80q0 30 8.5 58t27 50t48.5 35.5t73 14.5h81v-95z" />
    <glyph glyph-name="alefisolated" unicode="&#x627;" horiz-adv-x="465" arabic-form="isolated" 
d="M360 1350v-1350h-255v1350h255z" />
    <glyph glyph-name="aleffinal" unicode="&#x627;" horiz-adv-x="520" arabic-form="final" 
d="M361 1350v-1019q0 -32 22.5 -54t54.5 -22h124v-255h-124q-69 0 -129.5 26t-105.5 71t-71.5 105.5t-26.5 128.5v1019h256z" />
    <glyph glyph-name="behisolated" unicode="&#x628;" horiz-adv-x="1435" arabic-form="isolated" 
d="M1330 994v-662q0 -69 -26 -129.5t-71 -105.5t-105 -71t-129 -26h-438q-95 0 -178 36t-144.5 97.5t-97.5 144t-36 176.5v372h256v-372q0 -41 15.5 -77.5t42.5 -63.5t63.5 -42.5t78.5 -15.5h438q32 0 54 22.5t22 54.5v662h255zM589 -225q0 27 10 50t27.5 40.5t41 27.5
t50.5 10t50.5 -10t41 -27.5t28 -40.5t10.5 -50t-10.5 -50.5t-28 -41t-41 -28t-50.5 -10.5t-50.5 10.5t-41 28t-27.5 41t-10 50.5z" />
    <glyph glyph-name="behfinal" unicode="&#x628;" horiz-adv-x="1474" arabic-form="final" 
d="M1331 994v-739h185v-255h-956q-94 0 -177 36t-144.5 97.5t-97.5 144t-36 176.5v372h256v-372q0 -41 15.5 -77.5t42.5 -63.5t63.5 -42.5t77.5 -15.5h515v739h256zM589 -225q0 27 10 50t27.5 40.5t41 27.5t50.5 10t50.5 -10t41 -27.5t28 -40.5t10.5 -50t-10.5 -50.5
t-28 -41t-41 -28t-50.5 -10.5t-50.5 10.5t-41 28t-27.5 41t-10 50.5z" />
    <glyph glyph-name="behinitial" unicode="&#x628;" horiz-adv-x="627" arabic-form="initial" 
d="M263 -225q0 27 10 50t27.5 40.5t41 27.5t50.5 10t50.5 -10t41 -27.5t27.5 -40.5t10 -50t-10 -50.5t-27.5 -41t-41 -28t-50.5 -10.5t-50.5 10.5t-41 28t-27.5 41t-10 50.5zM522 994v-662q0 -69 -26 -129.5t-71 -105.5t-105.5 -71t-128.5 -26h-233v255h233q31 0 53.5 22.5
t22.5 54.5v662h255z" />
    <glyph glyph-name="behmedial" unicode="&#x628;" horiz-adv-x="666" arabic-form="medial" 
d="M194 -225q0 27 10 50t27.5 40.5t41 27.5t50.5 10t50.5 -10t41 -27.5t27.5 -40.5t10 -50t-10 -50.5t-27.5 -41t-41 -28t-50.5 -10.5t-50.5 10.5t-41 28t-27.5 41t-10 50.5zM522 994v-739h186v-255h-750v255h309v739h255z" />
    <glyph glyph-name="tehmarbutaisolated" unicode="&#x629;" horiz-adv-x="1108" arabic-form="isolated" 
d="M361 331q0 -34 22 -54.5t54 -20.5h232q32 0 54.5 21.5t22.5 56.5v206q0 40 -15 76t-41.5 63t-61.5 43t-75 16t-75 -16t-61 -43.5t-41 -64t-15 -78.5v-205zM105 536q0 95 35.5 178.5t96 145.5t142 98t174.5 36q92 0 174 -36.5t143 -98.5t96.5 -144.5t35.5 -174.5v-206
q0 -75 -26 -136.5t-71.5 -105.5t-106 -68t-129.5 -24h-232q-71 0 -131.5 23.5t-105 67t-70 104.5t-25.5 136v205zM577 1220q0 27 10.5 50.5t28 41t41 28t50.5 10.5t50 -10.5t40.5 -28t27.5 -41t10 -50.5t-10 -50.5t-27.5 -41t-40.5 -27.5t-50 -10t-50.5 10t-41 27.5t-28 41
t-10.5 50.5zM270 1220q0 27 10 50.5t27.5 41t41 28t50.5 10.5t50.5 -10.5t41 -28t27.5 -41t10 -50.5t-10 -50.5t-27.5 -41t-41 -27.5t-50.5 -10t-50.5 10t-41 27.5t-27.5 41t-10 50.5z" />
    <glyph glyph-name="tehmarbutafinal" unicode="&#x629;" horiz-adv-x="1153" arabic-form="final" 
d="M1195 255v-255h-440v537q0 41 -15.5 77.5t-42.5 64t-63 43.5t-77 16t-77 -16t-62.5 -44t-42 -66t-15.5 -81v-202q0 -31 21.5 -52.5t53.5 -21.5h150v-255h-150q-68 0 -128 26t-105 70.5t-71 104.5t-26 128v202q0 96 35.5 180t97 146.5t144 99t175.5 36.5t176 -37
t144.5 -99.5t97 -145.5t34.5 -175v-281h186zM580 1220q0 27 10.5 50.5t28 41t41 28t50.5 10.5t50 -10.5t40.5 -28t27.5 -41t10 -50.5t-10 -50.5t-27.5 -41t-40.5 -27.5t-50 -10t-50.5 10t-41 27.5t-28 41t-10.5 50.5zM273 1220q0 27 10 50.5t27.5 41t41 28t50.5 10.5
t50.5 -10.5t41 -28t27.5 -41t10 -50.5t-10 -50.5t-27.5 -41t-41 -27.5t-50.5 -10t-50.5 10t-41 27.5t-27.5 41t-10 50.5z" />
    <glyph glyph-name="tehisolated" unicode="&#x62a;" horiz-adv-x="1435" arabic-form="isolated" 
d="M1330 994v-662q0 -69 -26 -129.5t-71 -105.5t-105 -71t-129 -26h-438q-95 0 -178 36t-144.5 97.5t-97.5 144t-36 176.5v372h256v-372q0 -41 15.5 -77.5t42.5 -63.5t63.5 -42.5t78.5 -15.5h438q32 0 54 22.5t22 54.5v662h255zM743 1220q0 27 10.5 50.5t28 41t41 28
t50.5 10.5t50 -10.5t40.5 -28t27.5 -41t10 -50.5t-10 -50.5t-27.5 -41t-40.5 -27.5t-50 -10t-50.5 10t-41 27.5t-28 41t-10.5 50.5zM435 1220q0 27 10.5 50.5t28 41t41 28t50.5 10.5t50.5 -10.5t41 -28t27.5 -41t10 -50.5t-10 -50.5t-27.5 -41t-41 -27.5t-50.5 -10t-50.5 10
t-41 27.5t-28 41t-10.5 50.5z" />
    <glyph glyph-name="tehfinal" unicode="&#x62a;" horiz-adv-x="1474" arabic-form="final" 
d="M1331 994v-739h185v-255h-956q-94 0 -177 36t-144.5 97.5t-97.5 144t-36 176.5v372h256v-372q0 -41 15.5 -77.5t42.5 -63.5t63.5 -42.5t77.5 -15.5h515v739h256zM743 1220q0 27 10.5 50.5t28 41t41 28t50.5 10.5t50 -10.5t40.5 -28t27.5 -41t10 -50.5t-10 -50.5
t-27.5 -41t-40.5 -27.5t-50 -10t-50.5 10t-41 27.5t-28 41t-10.5 50.5zM436 1220q0 27 10 50.5t27.5 41t41 28t50.5 10.5t50.5 -10.5t41 -28t27.5 -41t10 -50.5t-10 -50.5t-27.5 -41t-41 -27.5t-50.5 -10t-50.5 10t-41 27.5t-27.5 41t-10 50.5z" />
    <glyph glyph-name="tehinitial" unicode="&#x62a;" horiz-adv-x="630" arabic-form="initial" 
d="M522 994v-662q0 -69 -26 -129.5t-71 -105.5t-105.5 -71t-128.5 -26h-233v255h233q31 0 53.5 22.5t22.5 54.5v662h255zM266 1220q0 27 10.5 50.5t28 41t41 28t50.5 10.5t50.5 -10.5t41 -28t27.5 -41t10 -50.5t-10 -50.5t-27.5 -41t-41 -27.5t-50.5 -10t-50.5 10t-41 27.5
t-28 41t-10.5 50.5zM-41 1220q0 27 10 50.5t27.5 41t41 28t50.5 10.5t50.5 -10.5t41 -28t28 -41t10.5 -50.5t-10.5 -50.5t-28 -41t-41 -27.5t-50.5 -10t-50.5 10t-41 27.5t-27.5 41t-10 50.5z" />
    <glyph glyph-name="tehmedial" unicode="&#x62a;" horiz-adv-x="667" arabic-form="medial" 
d="M523 994v-739h186v-255h-750v255h309v739h255zM266 1220q0 27 10 50.5t27.5 41t41 28t50.5 10.5t50.5 -10.5t41 -28t27.5 -41t10 -50.5t-10 -50.5t-27.5 -41t-41 -27.5t-50.5 -10t-50.5 10t-41 27.5t-27.5 41t-10 50.5zM-42 1220q0 27 10 50.5t27.5 41t41 28t50.5 10.5
t50.5 -10.5t41 -28t28 -41t10.5 -50.5t-10.5 -50.5t-28 -41t-41 -27.5t-50.5 -10t-50.5 10t-41 27.5t-27.5 41t-10 50.5z" />
    <glyph glyph-name="thehisolated" unicode="&#x62b;" horiz-adv-x="1435" arabic-form="isolated" 
d="M1330 994v-662q0 -69 -26 -129.5t-71 -105.5t-105 -71t-129 -26h-438q-95 0 -178 36t-144.5 97.5t-97.5 144t-36 176.5v372h256v-372q0 -41 15.5 -77.5t42.5 -63.5t63.5 -42.5t78.5 -15.5h438q32 0 54 22.5t22 54.5v662h255zM743 1220q0 27 10.5 50.5t28 41t41 28
t50.5 10.5t50 -10.5t40.5 -28t27.5 -41t10 -50.5t-10 -50.5t-27.5 -41t-40.5 -27.5t-50 -10t-50.5 10t-41 27.5t-28 41t-10.5 50.5zM436 1220q0 27 10 50.5t27.5 41t41 28t50.5 10.5t50.5 -10.5t41 -28t27.5 -41t10 -50.5t-10 -50.5t-27.5 -41t-41 -27.5t-50.5 -10t-50.5 10
t-41 27.5t-27.5 41t-10 50.5zM588 1470q0 27 10.5 50.5t28 41t41 28t50.5 10.5t50 -10.5t40.5 -28t27.5 -41t10 -50.5t-10 -50.5t-27.5 -41t-40.5 -27.5t-50 -10t-50.5 10t-41 27.5t-28 41t-10.5 50.5z" />
    <glyph glyph-name="thehfinal" unicode="&#x62b;" horiz-adv-x="1474" arabic-form="final" 
d="M1331 994v-739h185v-255h-956q-94 0 -177 36t-144.5 97.5t-97.5 144t-36 176.5v372h256v-372q0 -41 15.5 -77.5t42.5 -63.5t63.5 -42.5t77.5 -15.5h515v739h256zM743 1220q0 27 10.5 50.5t28 41t41 28t50.5 10.5t50 -10.5t40.5 -28t27.5 -41t10 -50.5t-10 -50.5
t-27.5 -41t-40.5 -27.5t-50 -10t-50.5 10t-41 27.5t-28 41t-10.5 50.5zM436 1220q0 27 10 50.5t27.5 41t41 28t50.5 10.5t50.5 -10.5t41 -28t27.5 -41t10 -50.5t-10 -50.5t-27.5 -41t-41 -27.5t-50.5 -10t-50.5 10t-41 27.5t-27.5 41t-10 50.5zM588 1470q0 27 10.5 50.5
t28 41t41 28t50.5 10.5t50 -10.5t40.5 -28t27.5 -41t10 -50.5t-10 -50.5t-27.5 -41t-40.5 -27.5t-50 -10t-50.5 10t-41 27.5t-28 41t-10.5 50.5z" />
    <glyph glyph-name="thehinitial" unicode="&#x62b;" horiz-adv-x="646" arabic-form="initial" 
d="M541 994v-662q0 -69 -26 -129.5t-71 -105.5t-105.5 -71t-128.5 -26h-233v255h233q31 0 53.5 22.5t22.5 54.5v662h255zM265 1220q0 27 10.5 50.5t28 41t41 28t50.5 10.5t50 -10.5t40.5 -28t27.5 -41t10 -50.5t-10 -50.5t-27.5 -41t-40.5 -27.5t-50 -10t-50.5 10t-41 27.5
t-28 41t-10.5 50.5zM-42 1220q0 27 10 50.5t27.5 41t41 28t50.5 10.5t50.5 -10.5t41 -28t27.5 -41t10 -50.5t-10 -50.5t-27.5 -41t-41 -27.5t-50.5 -10t-50.5 10t-41 27.5t-27.5 41t-10 50.5zM110 1470q0 27 10.5 50.5t28 41t41 28t50.5 10.5t50 -10.5t40.5 -28t27.5 -41
t10 -50.5t-10 -50.5t-27.5 -41t-40.5 -27.5t-50 -10t-50.5 10t-41 27.5t-28 41t-10.5 50.5z" />
    <glyph glyph-name="thehmedial" unicode="&#x62b;" horiz-adv-x="670" arabic-form="medial" 
d="M526 994v-739h186v-255h-750v255h309v739h255zM265 1220q0 27 10.5 50.5t28 41t41 28t50.5 10.5t50 -10.5t40.5 -28t27.5 -41t10 -50.5t-10 -50.5t-27.5 -41t-40.5 -27.5t-50 -10t-50.5 10t-41 27.5t-28 41t-10.5 50.5zM-42 1220q0 27 10 50.5t27.5 41t41 28t50.5 10.5
t50.5 -10.5t41 -28t27.5 -41t10 -50.5t-10 -50.5t-27.5 -41t-41 -27.5t-50.5 -10t-50.5 10t-41 27.5t-27.5 41t-10 50.5zM110 1470q0 27 10.5 50.5t28 41t41 28t50.5 10.5t50 -10.5t40.5 -28t27.5 -41t10 -50.5t-10 -50.5t-27.5 -41t-40.5 -27.5t-50 -10t-50.5 10t-41 27.5
t-28 41t-10.5 50.5z" />
    <glyph glyph-name="jeemisolated" unicode="&#x62c;" horiz-adv-x="1095" arabic-form="isolated" 
d="M115 885q31 15 80.5 34t107 36t118.5 28.5t117 11.5q57 0 112.5 -9t105.5 -29.5t93 -55.5t74.5 -86.5t49 -122t17.5 -163.5v-200q0 -68 -26 -128t-71 -104.5t-105.5 -70.5t-129.5 -26h-260q-19 0 -28.5 -15t-9.5 -34t9.5 -35t28.5 -16h239v-255h-239q-74 0 -128.5 26.5
t-91.5 69.5t-55 98t-18 112t18 111.5t55 97.5t91.5 69t128.5 26h260q32 0 54.5 21.5t22.5 52.5v200q0 62 -17 103t-44.5 65t-63 33.5t-72.5 9.5q-39 0 -84 -9t-88 -21.5t-80.5 -27.5t-61.5 -27zM732 -225q0 27 10 50t27.5 40.5t41 27.5t50.5 10t50.5 -10t41 -27.5
t27.5 -40.5t10 -50t-10 -50.5t-27.5 -41t-41 -28t-50.5 -10.5t-50.5 10.5t-41 28t-27.5 41t-10 50.5z" />
    <glyph glyph-name="jeemfinal" unicode="&#x62c;" horiz-adv-x="1135" arabic-form="final" 
d="M115 885q31 15 80.5 34t107.5 36t119 28.5t117 11.5q85 0 166.5 -20.5t145 -73t102.5 -143t39 -229.5v-274h185v-255h-779q-19 0 -28.5 -15t-9.5 -34t9.5 -35t28.5 -16h239v-255h-239q-74 0 -128.5 26.5t-91.5 69.5t-55 98t-18 112t18 111.5t55 97.5t91.5 69t128.5 26
h338v274q0 62 -17 103t-44.5 65t-63 33.5t-72.5 9.5q-39 0 -84 -9t-88 -21.5t-80.5 -27.5t-61.5 -27zM732 -225q0 27 10 50t27.5 40.5t41 27.5t50.5 10t50.5 -10t41 -27.5t28 -40.5t10.5 -50t-10.5 -50.5t-28 -41t-41 -28t-50.5 -10.5t-50.5 10.5t-41 28t-27.5 41t-10 50.5z
" />
    <glyph glyph-name="jeeminitial" unicode="&#x62c;" horiz-adv-x="1099" arabic-form="initial" 
d="M118 885q32 15 81.5 34t107 36t119 28.5t117.5 11.5q85 0 166 -20.5t144.5 -73t102 -143t38.5 -229.5v-200q0 -68 -26 -128t-71.5 -104.5t-106 -70.5t-129.5 -26h-703v255h703q33 0 56 21.5t23 52.5v200q0 62 -17 103t-45 65t-63 33.5t-72 9.5q-40 0 -85 -9t-88 -21.5
t-80.5 -27.5t-62.5 -27zM418 -225q0 27 10 50t27.5 40.5t41 27.5t50.5 10t50.5 -10t41 -27.5t27.5 -40.5t10 -50t-10 -50.5t-27.5 -41t-41 -28t-50.5 -10.5t-50.5 10.5t-41 28t-27.5 41t-10 50.5z" />
    <glyph glyph-name="jeemmedial" unicode="&#x62c;" horiz-adv-x="1141" arabic-form="medial" 
d="M121 885q31 15 80.5 34t107.5 36t119.5 28.5t117.5 11.5q85 0 166 -20.5t144.5 -73t102 -143t38.5 -229.5v-274h186v-255h-1225v255h785v274q0 62 -17 103t-45 65t-63 33.5t-72 9.5q-40 0 -85 -9t-88.5 -21.5t-81 -27.5t-61.5 -27zM417 -225q0 27 10 50t27.5 40.5
t41 27.5t50.5 10t50.5 -10t41 -27.5t27.5 -40.5t10 -50t-10 -50.5t-27.5 -41t-41 -28t-50.5 -10.5t-50.5 10.5t-41 28t-27.5 41t-10 50.5z" />
    <glyph glyph-name="hahisolated" unicode="&#x62d;" horiz-adv-x="1095" arabic-form="isolated" 
d="M115 885q31 15 80.5 34t107 36t118.5 28.5t117 11.5q57 0 112.5 -9t105.5 -29.5t93 -55.5t74.5 -86.5t49 -122t17.5 -163.5v-200q0 -68 -26 -128t-71 -104.5t-105.5 -70.5t-129.5 -26h-260q-19 0 -28.5 -15t-9.5 -34t9.5 -35t28.5 -16h337v-255h-337q-74 0 -128.5 26.5
t-91.5 69.5t-55 98t-18 112t18 111.5t55 97.5t91.5 69t128.5 26h260q32 0 54.5 21.5t22.5 52.5v200q0 62 -17 103t-44.5 65t-63 33.5t-72.5 9.5q-39 0 -84 -9t-88 -21.5t-80.5 -27.5t-61.5 -27z" />
    <glyph glyph-name="hahfinal" unicode="&#x62d;" horiz-adv-x="1135" arabic-form="final" 
d="M115 885q31 15 80.5 34t107.5 36t119 28.5t117 11.5q85 0 166.5 -20.5t145 -73t102.5 -143t39 -229.5v-274h185v-255h-779q-19 0 -28.5 -15t-9.5 -34t9.5 -35t28.5 -16h339v-255h-339q-74 0 -128.5 26.5t-91.5 69.5t-55 98t-18 112t18 111.5t55 97.5t91.5 69t128.5 26
h338v274q0 62 -17 103t-44.5 65t-63 33.5t-72.5 9.5q-39 0 -84 -9t-88 -21.5t-80.5 -27.5t-61.5 -27z" />
    <glyph glyph-name="hahinitial" unicode="&#x62d;" horiz-adv-x="1099" arabic-form="initial" 
d="M118 885q32 15 81.5 34t107 36t119 28.5t117.5 11.5q85 0 166 -20.5t144.5 -73t102 -143t38.5 -229.5v-200q0 -68 -26 -128t-71.5 -104.5t-106 -70.5t-129.5 -26h-703v255h703q33 0 56 21.5t23 52.5v200q0 62 -17 103t-45 65t-63 33.5t-72 9.5q-40 0 -85 -9t-88 -21.5
t-80.5 -27.5t-62.5 -27z" />
    <glyph glyph-name="hahmedial" unicode="&#x62d;" horiz-adv-x="1141" arabic-form="medial" 
d="M121 885q31 15 80.5 34t107.5 36t119.5 28.5t117.5 11.5q85 0 166 -20.5t144.5 -73t102 -143t38.5 -229.5v-274h186v-255h-1225v255h785v274q0 62 -17 103t-45 65t-63 33.5t-72 9.5q-40 0 -85 -9t-88.5 -21.5t-81 -27.5t-61.5 -27z" />
    <glyph glyph-name="khahisolated" unicode="&#x62e;" horiz-adv-x="1095" arabic-form="isolated" 
d="M115 885q31 15 80.5 34t107 36t118.5 28.5t117 11.5q57 0 112.5 -9t105.5 -29.5t93 -55.5t74.5 -86.5t49 -122t17.5 -163.5v-200q0 -68 -26 -128t-71 -104.5t-105.5 -70.5t-129.5 -26h-260q-19 0 -28.5 -15t-9.5 -34t9.5 -35t28.5 -16h337v-255h-337q-74 0 -128.5 26.5
t-91.5 69.5t-55 98t-18 112t18 111.5t55 97.5t91.5 69t128.5 26h260q32 0 54.5 21.5t22.5 52.5v200q0 62 -17 103t-44.5 65t-63 33.5t-72.5 9.5q-39 0 -84 -9t-88 -21.5t-80.5 -27.5t-61.5 -27zM410 1220q0 27 10 50.5t27.5 41t41 28t50.5 10.5t50.5 -10.5t41 -28t27.5 -41
t10 -50.5t-10 -50.5t-27.5 -41t-41 -27.5t-50.5 -10t-50.5 10t-41 27.5t-27.5 41t-10 50.5z" />
    <glyph glyph-name="khahfinal" unicode="&#x62e;" horiz-adv-x="1135" arabic-form="final" 
d="M115 885q31 15 80.5 34t107.5 36t119 28.5t117 11.5q85 0 166.5 -20.5t145 -73t102.5 -143t39 -229.5v-274h185v-255h-779q-19 0 -28.5 -15t-9.5 -34t9.5 -35t28.5 -16h337v-255h-337q-74 0 -128.5 26.5t-91.5 69.5t-55 98t-18 112t18 111.5t55 97.5t91.5 69t128.5 26
h338v274q0 62 -17 103t-44.5 65t-63 33.5t-72.5 9.5q-39 0 -84 -9t-88 -21.5t-80.5 -27.5t-61.5 -27zM410 1220q0 27 10 50.5t27.5 41t41 28t50.5 10.5t50.5 -10.5t41 -28t28 -41t10.5 -50.5t-10.5 -50.5t-28 -41t-41 -27.5t-50.5 -10t-50.5 10t-41 27.5t-27.5 41t-10 50.5z
" />
    <glyph glyph-name="khahinitial" unicode="&#x62e;" horiz-adv-x="1099" arabic-form="initial" 
d="M118 885q32 15 81.5 34t107 36t119 28.5t117.5 11.5q85 0 166 -20.5t144.5 -73t102 -143t38.5 -229.5v-200q0 -68 -26 -128t-71.5 -104.5t-106 -70.5t-129.5 -26h-703v255h703q33 0 56 21.5t23 52.5v200q0 62 -17 103t-45 65t-63 33.5t-72 9.5q-40 0 -85 -9t-88 -21.5
t-80.5 -27.5t-62.5 -27zM413 1220q0 27 10.5 50.5t28 41t41 28t50.5 10.5t50 -10.5t40.5 -28t27.5 -41t10 -50.5t-10 -50.5t-27.5 -41t-40.5 -27.5t-50 -10t-50.5 10t-41 27.5t-28 41t-10.5 50.5z" />
    <glyph glyph-name="khahmedial" unicode="&#x62e;" horiz-adv-x="1141" arabic-form="medial" 
d="M121 885q31 15 80.5 34t107.5 36t119.5 28.5t117.5 11.5q85 0 166 -20.5t144.5 -73t102 -143t38.5 -229.5v-274h186v-255h-1225v255h785v274q0 62 -17 103t-45 65t-63 33.5t-72 9.5q-40 0 -85 -9t-88.5 -21.5t-81 -27.5t-61.5 -27zM415 1220q0 27 10.5 50.5t28 41t41 28
t50.5 10.5t50 -10.5t40.5 -28t27.5 -41t10 -50.5t-10 -50.5t-27.5 -41t-40.5 -27.5t-50 -10t-50.5 10t-41 27.5t-28 41t-10.5 50.5z" />
    <glyph glyph-name="dalisolated" unicode="&#x62f;" horiz-adv-x="951" arabic-form="isolated" 
d="M156 994q184 0 315 -30.5t214 -89.5t122 -145.5t39 -199.5v-200q0 -68 -26 -128t-71.5 -104.5t-106.5 -70.5t-130 -26h-407v255h407q32 0 55 21.5t23 52.5v200q0 51 -24.5 90t-77 65.5t-134.5 40.5t-198 14v255z" />
    <glyph glyph-name="dalfinal" unicode="&#x62f;" horiz-adv-x="989" arabic-form="final" 
d="M156 994q184 0 315 -30.5t214.5 -89.5t122 -145.5t38.5 -199.5v-274h185v-255h-926v255h486v274q0 51 -24.5 90t-77 65.5t-135 40.5t-198.5 14v255z" />
    <glyph glyph-name="thalisolated" unicode="&#x630;" horiz-adv-x="951" arabic-form="isolated" 
d="M156 994q184 0 315 -30.5t214 -89.5t122 -145.5t39 -199.5v-200q0 -68 -26 -128t-71.5 -104.5t-106.5 -70.5t-130 -26h-407v255h407q32 0 55 21.5t23 52.5v200q0 51 -24.5 90t-77 65.5t-134.5 40.5t-198 14v255zM376 1220q0 27 10.5 50.5t28 41t41 28t50.5 10.5
t50.5 -10.5t41 -28t27.5 -41t10 -50.5t-10 -50.5t-27.5 -41t-41 -27.5t-50.5 -10t-50.5 10t-41 27.5t-28 41t-10.5 50.5z" />
    <glyph glyph-name="thalfinal" unicode="&#x630;" horiz-adv-x="989" arabic-form="final" 
d="M156 994q184 0 315 -30.5t214.5 -89.5t122 -145.5t38.5 -199.5v-274h185v-255h-926v255h486v274q0 51 -24.5 90t-77 65.5t-135 40.5t-198.5 14v255zM376 1220q0 27 10.5 50.5t28 41t41 28t50.5 10.5t50.5 -10.5t41 -28t27.5 -41t10 -50.5t-10 -50.5t-27.5 -41t-41 -27.5
t-50.5 -10t-50.5 10t-41 27.5t-28 41t-10.5 50.5z" />
    <glyph glyph-name="rehisolated" unicode="&#x631;" horiz-adv-x="645" arabic-form="isolated" 
d="M539 994v-857q0 -2 -1 -29t-11.5 -69t-34.5 -96t-70 -110.5t-118 -111.5t-178 -100l-99 236q49 21 86.5 43.5t65 46t45.5 46t30 42.5q27 48 29 94v865h256z" />
    <glyph glyph-name="rehfinal" unicode="&#x631;" horiz-adv-x="681" arabic-form="final" 
d="M538 994v-739h185v-255h-204q-12 -41 -37 -89t-70.5 -98.5t-115.5 -99.5t-171 -91l-98 235q49 21 86.5 43.5t64.5 45t45 44t30 41.5q27 46 29 90v873h256z" />
    <glyph glyph-name="zainisolated" unicode="&#x632;" horiz-adv-x="642" arabic-form="isolated" 
d="M276 1220q0 27 10.5 50.5t28 41t41 28t50.5 10.5t50.5 -10.5t41 -28t28 -41t10.5 -50.5t-10.5 -50.5t-28 -41t-41 -27.5t-50.5 -10t-50.5 10t-41 27.5t-28 41t-10.5 50.5zM536 994v-857q0 -2 -1 -29t-11.5 -69t-34.5 -96t-70 -110.5t-118 -111.5t-178 -100l-99 236
q49 21 86.5 43.5t65 46t45.5 46t30 42.5q27 48 29 94v865h256z" />
    <glyph glyph-name="zainfinal" unicode="&#x632;" horiz-adv-x="679" arabic-form="final" 
d="M277 1220q0 27 10 50.5t27.5 41t41 28t50.5 10.5t50.5 -10.5t41 -28t28 -41t10.5 -50.5t-10.5 -50.5t-28 -41t-41 -27.5t-50.5 -10t-50.5 10t-41 27.5t-27.5 41t-10 50.5zM536 994v-739h185v-255h-204q-12 -41 -37 -89t-70.5 -98.5t-115.5 -99.5t-171 -91l-98 235
q49 21 86.5 43.5t64.5 45t45 44t30 41.5q27 46 29 90v873h256z" />
    <glyph glyph-name="seenisolated" unicode="&#x633;" horiz-adv-x="2045" arabic-form="isolated" 
d="M1532 994v-739h75q33 0 56 21.5t23 51.5v666h254v-666q0 -68 -26 -127.5t-71.5 -104t-106 -70.5t-129.5 -26h-495q-18 -89 -66.5 -155.5t-116.5 -111t-149.5 -66.5t-165.5 -22q-95 0 -186.5 28t-163 84.5t-115.5 141t-44 198.5v729h256v-729q0 -49 22 -86t57.5 -61.5
t81 -37t92.5 -12.5t92.5 12.5t81 37t57 61.5t21.5 86v897h257v-739h153v739h256z" />
    <glyph glyph-name="seenfinal" unicode="&#x633;" horiz-adv-x="2083" arabic-form="final" 
d="M1532 994v-739h154v739h254v-739h185v-255h-1012q-18 -89 -66.5 -155.5t-116.5 -111t-149.5 -66.5t-166.5 -22q-96 0 -187.5 28t-163 84.5t-115 141t-43.5 198.5v729h256v-729q0 -49 21.5 -86t57 -61.5t81 -37t93.5 -12.5q47 0 92.5 12.5t81 37t57.5 61.5t22 86v897h256
v-739h154v739h255z" />
    <glyph glyph-name="seeninitial" unicode="&#x633;" horiz-adv-x="1475" arabic-form="initial" 
d="M960 994v-739h75q33 0 56 21.5t23 52.5v665h256v-665q0 -68 -26.5 -128t-72 -104.5t-106.5 -70.5t-130 -26h-1077v255h338v739h254v-739h155v739h255z" />
    <glyph glyph-name="seenmedial" unicode="&#x633;" horiz-adv-x="1513" arabic-form="medial" 
d="M1370 994v-739h185v-255h-1597v255h337v739h254v-739h155v739h255v-739h156v739h255z" />
    <glyph glyph-name="sheenisolated" unicode="&#x634;" horiz-adv-x="2045" arabic-form="isolated" 
d="M1532 994v-739h75q33 0 56 21.5t23 51.5v666h254v-666q0 -68 -26 -127.5t-71.5 -104t-106 -70.5t-129.5 -26h-495q-18 -89 -66.5 -155.5t-116.5 -111t-149.5 -66.5t-165.5 -22q-95 0 -186.5 28t-163 84.5t-115.5 141t-44 198.5v729h256v-729q0 -49 22 -86t57.5 -61.5
t81 -37t92.5 -12.5t92.5 12.5t81 37t57 61.5t21.5 86v897h257v-739h153v739h256zM1434 1220q0 27 10.5 50.5t28 41t41 28t50.5 10.5t50 -10.5t40.5 -28t27.5 -41t10 -50.5t-10 -50.5t-27.5 -41t-40.5 -27.5t-50 -10t-50.5 10t-41 27.5t-28 41t-10.5 50.5zM1127 1220
q0 27 10 50.5t27.5 41t41 28t50.5 10.5t50.5 -10.5t41 -28t27.5 -41t10 -50.5t-10 -50.5t-27.5 -41t-41 -27.5t-50.5 -10t-50.5 10t-41 27.5t-27.5 41t-10 50.5zM1279 1470q0 27 10.5 50.5t28 41t41 28t50.5 10.5t50 -10.5t40.5 -28t27.5 -41t10 -50.5t-10 -50.5t-27.5 -41
t-40.5 -27.5t-50 -10t-50.5 10t-41 27.5t-28 41t-10.5 50.5z" />
    <glyph glyph-name="sheenfinal" unicode="&#x634;" horiz-adv-x="2083" arabic-form="final" 
d="M1532 994v-739h154v739h254v-739h185v-255h-1012q-18 -89 -66.5 -155.5t-116.5 -111t-149.5 -66.5t-166.5 -22q-96 0 -187.5 28t-163 84.5t-115 141t-43.5 198.5v729h256v-729q0 -49 21.5 -86t57 -61.5t81 -37t93.5 -12.5q47 0 92.5 12.5t81 37t57 61.5t21.5 86v897h257
v-739h154v739h255zM1434 1220q0 27 10.5 50.5t28 41t41 28t50.5 10.5t50 -10.5t40.5 -28t27.5 -41t10 -50.5t-10 -50.5t-27.5 -41t-40.5 -27.5t-50 -10t-50.5 10t-41 27.5t-28 41t-10.5 50.5zM1127 1220q0 27 10 50.5t27.5 41t41 28t50.5 10.5t50.5 -10.5t41 -28t27.5 -41
t10 -50.5t-10 -50.5t-27.5 -41t-41 -27.5t-50.5 -10t-50.5 10t-41 27.5t-27.5 41t-10 50.5zM1279 1470q0 27 10.5 50.5t28 41t41 28t50.5 10.5t50 -10.5t40.5 -28t27.5 -41t10 -50.5t-10 -50.5t-27.5 -41t-40.5 -27.5t-50 -10t-50.5 10t-41 27.5t-28 41t-10.5 50.5z" />
    <glyph glyph-name="sheeninitial" unicode="&#x634;" horiz-adv-x="1475" arabic-form="initial" 
d="M960 994v-739h75q33 0 56 21.5t23 52.5v665h256v-665q0 -68 -26.5 -128t-72 -104.5t-106.5 -70.5t-130 -26h-1077v255h338v739h254v-739h155v739h255zM857 1220q0 27 10.5 50.5t28 41t41 28t50.5 10.5t50 -10.5t40.5 -28t27.5 -41t10 -50.5t-10 -50.5t-27.5 -41
t-40.5 -27.5t-50 -10t-50.5 10t-41 27.5t-28 41t-10.5 50.5zM550 1220q0 27 10 50.5t27.5 41t41 28t50.5 10.5t50.5 -10.5t41 -28t27.5 -41t10 -50.5t-10 -50.5t-27.5 -41t-41 -27.5t-50.5 -10t-50.5 10t-41 27.5t-27.5 41t-10 50.5zM702 1470q0 27 10.5 50.5t28 41t41 28
t50.5 10.5t50 -10.5t40.5 -28t27.5 -41t10 -50.5t-10 -50.5t-27.5 -41t-40.5 -27.5t-50 -10t-50.5 10t-41 27.5t-28 41t-10.5 50.5z" />
    <glyph glyph-name="sheenmedial" unicode="&#x634;" horiz-adv-x="1513" arabic-form="medial" 
d="M1370 994v-739h185v-255h-1597v255h337v739h254v-739h155v739h255v-739h156v739h255zM851 1220q0 27 10.5 50.5t28 41t41 28t50.5 10.5t50 -10.5t40.5 -28t27.5 -41t10 -50.5t-10 -50.5t-27.5 -41t-40.5 -27.5t-50 -10t-50.5 10t-41 27.5t-28 41t-10.5 50.5zM544 1220
q0 27 10 50.5t27.5 41t41 28t50.5 10.5t50.5 -10.5t41 -28t27.5 -41t10 -50.5t-10 -50.5t-27.5 -41t-41 -27.5t-50.5 -10t-50.5 10t-41 27.5t-27.5 41t-10 50.5zM696 1470q0 27 10.5 50.5t28 41t41 28t50.5 10.5t50 -10.5t40.5 -28t27.5 -41t10 -50.5t-10 -50.5t-27.5 -41
t-40.5 -27.5t-50 -10t-50.5 10t-41 27.5t-28 41t-10.5 50.5z" />
    <glyph glyph-name="sadisolated" unicode="&#x635;" horiz-adv-x="2045" arabic-form="isolated" 
d="M1123 994v-126q89 57 191 91.5t200 34.5q87 0 164.5 -25t135.5 -80.5t92 -144t34 -216.5v-200q0 -68 -26.5 -127.5t-71.5 -104t-106 -70.5t-130 -26h-493q-18 -89 -66.5 -155.5t-116.5 -111t-149.5 -66.5t-166.5 -22q-96 0 -187.5 28t-163 84.5t-115 141t-43.5 198.5v729
h256v-729q0 -49 21.5 -86t57 -61.5t81 -37t93.5 -12.5q47 0 92.5 12.5t81 37t57.5 61.5t22 86v897h256zM1123 255h483q33 0 56 21.5t23 51.5v200q0 58 -14 98t-37 65t-54.5 36t-65.5 11q-66 0 -135 -21t-126 -55.5t-93.5 -78t-36.5 -88.5v-240z" />
    <glyph glyph-name="sadfinal" unicode="&#x635;" horiz-adv-x="2082" arabic-form="final" 
d="M1122 994v-126q44 28 92.5 51.5t99 40t101 25.5t99.5 9q87 0 164 -25t135 -80.5t92 -144t34 -216.5v-273h185v-255h-1012q-18 -89 -66.5 -155.5t-116 -111t-149 -66.5t-166.5 -22q-95 0 -186.5 28t-163 84.5t-115.5 141t-44 198.5v729h256v-729q0 -49 22 -86t57.5 -61.5
t81 -37t92.5 -12.5t92.5 12.5t81 37t57 61.5t21.5 86v897h256zM1122 255h562v273q0 58 -14 98t-37 65t-54 36t-65 11q-66 0 -135.5 -21t-126.5 -55.5t-93.5 -78t-36.5 -88.5v-240z" />
    <glyph glyph-name="sadinitial" unicode="&#x635;" horiz-adv-x="1322" arabic-form="initial" 
d="M399 994v-126q88 57 190.5 91.5t201.5 34.5q87 0 164.5 -25t135.5 -80.5t92 -144t34 -216.5v-200q0 -68 -26.5 -127.5t-72 -104t-106 -70.5t-129.5 -26h-925v255h185v739h256zM791 738q-66 0 -135.5 -21t-126.5 -55.5t-93.5 -78t-36.5 -88.5v-240h484q32 0 55 21.5
t23 51.5v200q0 58 -13.5 98t-37 65t-54.5 36t-65 11z" />
    <glyph glyph-name="sadmedial" unicode="&#x635;" horiz-adv-x="1360" arabic-form="medial" 
d="M400 994v-126q88 57 190.5 91.5t201.5 34.5q87 0 164 -25t135 -80.5t92 -144t34 -216.5v-273h185v-255h-1444v255h186v739h256zM792 738q-66 0 -135.5 -21t-126.5 -55.5t-93.5 -78t-36.5 -88.5v-240h561v273q0 58 -13.5 98t-37 65t-54 36t-64.5 11z" />
    <glyph glyph-name="dadisolated" unicode="&#x636;" horiz-adv-x="2045" arabic-form="isolated" 
d="M1123 994v-126q89 57 191 91.5t200 34.5q87 0 164.5 -25t135.5 -80.5t92 -144t34 -216.5v-200q0 -68 -26.5 -127.5t-71.5 -104t-106 -70.5t-130 -26h-493q-18 -89 -66.5 -155.5t-116.5 -111t-149.5 -66.5t-166.5 -22q-96 0 -187.5 28t-163 84.5t-115 141t-43.5 198.5v729
h256v-729q0 -49 21.5 -86t57 -61.5t81 -37t93.5 -12.5q47 0 92.5 12.5t81 37t57.5 61.5t22 86v897h256zM1123 255h483q33 0 56 21.5t23 51.5v200q0 58 -14 98t-37 65t-54.5 36t-65.5 11q-66 0 -135 -21t-126 -55.5t-93.5 -78t-36.5 -88.5v-240zM1274 1220q0 27 10 50.5
t27.5 41t41 28t50.5 10.5t50.5 -10.5t41 -28t28 -41t10.5 -50.5t-10.5 -50.5t-28 -41t-41 -27.5t-50.5 -10t-50.5 10t-41 27.5t-27.5 41t-10 50.5z" />
    <glyph glyph-name="dadfinal" unicode="&#x636;" horiz-adv-x="2082" arabic-form="final" 
d="M1122 994v-126q44 28 92.5 51.5t99 40t101 25.5t99.5 9q87 0 164 -25t135 -80.5t92 -144t34 -216.5v-273h185v-255h-1012q-18 -89 -66.5 -155.5t-116 -111t-149 -66.5t-166.5 -22q-95 0 -186.5 28t-163 84.5t-115.5 141t-44 198.5v729h256v-729q0 -49 22 -86t57.5 -61.5
t81 -37t92.5 -12.5t92.5 12.5t81 37t57 61.5t21.5 86v897h256zM1122 255h562v273q0 58 -14 98t-37 65t-54 36t-65 11q-66 0 -135.5 -21t-126.5 -55.5t-93.5 -78t-36.5 -88.5v-240zM1274 1220q0 27 10 50.5t27.5 41t41 28t50.5 10.5t50.5 -10.5t41 -28t28 -41t10.5 -50.5
t-10.5 -50.5t-28 -41t-41 -27.5t-50.5 -10t-50.5 10t-41 27.5t-27.5 41t-10 50.5z" />
    <glyph glyph-name="dadinitial" unicode="&#x636;" horiz-adv-x="1322" arabic-form="initial" 
d="M399 994v-126q88 57 190.5 91.5t201.5 34.5q87 0 164.5 -25t135.5 -80.5t92 -144t34 -216.5v-200q0 -68 -26.5 -127.5t-72 -104t-106 -70.5t-129.5 -26h-925v255h185v739h256zM791 738q-66 0 -135.5 -21t-126.5 -55.5t-93.5 -78t-36.5 -88.5v-240h484q32 0 55 21.5
t23 51.5v200q0 58 -13.5 98t-37 65t-54.5 36t-65 11zM549 1220q0 27 10.5 50.5t28 41t41 28t50.5 10.5t50.5 -10.5t41 -28t28 -41t10.5 -50.5t-10.5 -50.5t-28 -41t-41 -27.5t-50.5 -10t-50.5 10t-41 27.5t-28 41t-10.5 50.5z" />
    <glyph glyph-name="dadmedial" unicode="&#x636;" horiz-adv-x="1360" arabic-form="medial" 
d="M400 994v-126q88 57 190.5 91.5t201.5 34.5q87 0 164 -25t135 -80.5t92 -144t34 -216.5v-273h185v-255h-1444v255h186v739h256zM792 738q-66 0 -135.5 -21t-126.5 -55.5t-93.5 -78t-36.5 -88.5v-240h561v273q0 58 -13.5 98t-37 65t-54 36t-64.5 11zM551 1220
q0 27 10 50.5t27.5 41t41 28t50.5 10.5t50.5 -10.5t41 -28t28 -41t10.5 -50.5t-10.5 -50.5t-28 -41t-41 -27.5t-50.5 -10t-50.5 10t-41 27.5t-27.5 41t-10 50.5z" />
    <glyph glyph-name="tahisolated" unicode="&#x637;" horiz-adv-x="1427" arabic-form="isolated" 
d="M504 1350v-481q88 57 190 91t202 34q86 0 163.5 -25t136 -80.5t92.5 -144t34 -216.5v-199q0 -68 -26.5 -128t-71.5 -104.5t-106 -70.5t-130 -26h-883v255h144v1095h255zM896 739q-44 0 -90.5 -9.5t-90 -27t-82 -40.5t-67.5 -50t-45.5 -56.5t-16.5 -59.5v-241h484
q33 0 56 21.5t23 52.5v199q0 58 -14 98t-37 65t-54.5 36.5t-65.5 11.5z" />
    <glyph glyph-name="tahfinal" unicode="&#x637;" horiz-adv-x="1465" arabic-form="final" 
d="M504 1350v-481q88 57 190 91t202 34q87 0 164 -25t135.5 -80.5t92.5 -144t34 -216.5v-273h185v-255h-1402v255h144v1095h255zM896 739q-44 0 -90.5 -9.5t-90 -27t-82 -40.5t-67.5 -50t-45.5 -56.5t-16.5 -59.5v-241h564v273q0 58 -14 98t-37.5 65t-55 36.5t-65.5 11.5z
" />
    <glyph glyph-name="tahinitial" unicode="&#x637;" horiz-adv-x="1321" arabic-form="initial" 
d="M399 1350v-482q44 28 92 51.5t98.5 40t101.5 25.5t100 9q87 0 164.5 -25t135 -80.5t91.5 -144t34 -216.5v-199q0 -68 -26.5 -128t-71.5 -104.5t-105.5 -70.5t-129.5 -26h-925v255h185v1095h256zM791 739q-44 0 -90 -10t-89.5 -27t-82 -40.5t-67.5 -50.5t-46 -56.5
t-17 -59.5v-240h484q32 0 54.5 21.5t22.5 52.5v199q0 58 -13.5 98.5t-36.5 65.5t-54 36t-65 11z" />
    <glyph glyph-name="tahmedial" unicode="&#x637;" horiz-adv-x="1360" arabic-form="medial" 
d="M399 1350v-481q88 57 190 91t202 34q86 0 163.5 -25t136 -80.5t92.5 -144t34 -216.5v-273h185v-255h-1444v255h186v1095h255zM791 739q-44 0 -90.5 -9.5t-90 -27t-82 -40.5t-67.5 -50t-45.5 -56.5t-16.5 -59.5v-241h562v273q0 58 -13.5 98t-37 65t-54.5 36.5t-65 11.5z
" />
    <glyph glyph-name="zahisolated" unicode="&#x638;" horiz-adv-x="1427" arabic-form="isolated" 
d="M504 1350v-481q88 57 190 91t202 34q86 0 163.5 -25t136 -80.5t92.5 -144t34 -216.5v-199q0 -68 -26.5 -128t-71.5 -104.5t-106 -70.5t-130 -26h-883v255h144v1095h255zM896 739q-44 0 -90.5 -9.5t-90 -27t-82 -40.5t-67.5 -50t-45.5 -56.5t-16.5 -59.5v-241h484
q33 0 56 21.5t23 52.5v199q0 58 -14 98t-37 65t-54.5 36.5t-65.5 11.5zM656 1220q0 27 10 50.5t27.5 41t41 28t50.5 10.5t50.5 -10.5t41 -28t28 -41t10.5 -50.5t-10.5 -50.5t-28 -41t-41 -27.5t-50.5 -10t-50.5 10t-41 27.5t-27.5 41t-10 50.5z" />
    <glyph glyph-name="zahfinal" unicode="&#x638;" horiz-adv-x="1465" arabic-form="final" 
d="M504 1350v-481q88 57 190 91t202 34q87 0 164 -25t135.5 -80.5t92.5 -144t34 -216.5v-273h185v-255h-1402v255h144v1095h255zM896 739q-44 0 -90.5 -9.5t-90 -27t-82 -40.5t-67.5 -50t-45.5 -56.5t-16.5 -59.5v-241h564v273q0 58 -14 98t-37.5 65t-55 36.5t-65.5 11.5z
M657 1220q0 27 10 50.5t27.5 41t41 28t50.5 10.5t50.5 -10.5t41 -28t28 -41t10.5 -50.5t-10.5 -50.5t-28 -41t-41 -27.5t-50.5 -10t-50.5 10t-41 27.5t-27.5 41t-10 50.5z" />
    <glyph glyph-name="zahinitial" unicode="&#x638;" horiz-adv-x="1321" arabic-form="initial" 
d="M399 1350v-482q44 28 92 51.5t98.5 40t101.5 25.5t100 9q87 0 164.5 -25t135 -80.5t91.5 -144t34 -216.5v-199q0 -68 -26.5 -128t-71.5 -104.5t-105.5 -70.5t-129.5 -26h-925v255h185v1095h256zM791 739q-44 0 -90 -10t-89.5 -27t-82 -40.5t-67.5 -50.5t-46 -56.5
t-17 -59.5v-240h484q32 0 54.5 21.5t22.5 52.5v199q0 58 -13.5 98.5t-36.5 65.5t-54 36t-65 11zM549 1220q0 27 10.5 50.5t28 41t41 28t50.5 10.5t50.5 -10.5t41 -28t28 -41t10.5 -50.5t-10.5 -50.5t-28 -41t-41 -27.5t-50.5 -10t-50.5 10t-41 27.5t-28 41t-10.5 50.5z" />
    <glyph glyph-name="zahmedial" unicode="&#x638;" horiz-adv-x="1360" arabic-form="medial" 
d="M399 1350v-481q88 57 190 91t202 34q86 0 163.5 -25t136 -80.5t92.5 -144t34 -216.5v-273h185v-255h-1444v255h186v1095h255zM791 739q-44 0 -90.5 -9.5t-90 -27t-82 -40.5t-67.5 -50t-45.5 -56.5t-16.5 -59.5v-241h562v273q0 58 -13.5 98t-37 65t-54.5 36.5t-65 11.5z
M551 1220q0 27 10 50.5t27.5 41t41 28t50.5 10.5t50.5 -10.5t41 -28t28 -41t10.5 -50.5t-10.5 -50.5t-28 -41t-41 -27.5t-50.5 -10t-50.5 10t-41 27.5t-27.5 41t-10 50.5z" />
    <glyph glyph-name="ainisolated" unicode="&#x639;" horiz-adv-x="1230" arabic-form="isolated" 
d="M1125 0h-727q-19 0 -28.5 -15t-9.5 -34t9.5 -35t28.5 -16h533v-255h-533q-74 0 -128.5 26.5t-91.5 69.5t-55 98t-18 112q0 50 14 98t42.5 88t72 69.5t102.5 41.5v295q-1 90 29.5 166t83 134t122.5 95.5t148.5 49.5t160 -3.5t158.5 -63.5l-105 -231q-57 39 -116 45.5
t-108.5 -14t-82 -66t-36.5 -112.5v-288h535v-255z" />
    <glyph glyph-name="ainfinal" unicode="&#x639;" horiz-adv-x="1165" arabic-form="final" 
d="M1207 0h-808q-20 0 -29.5 -15t-9.5 -34t9.5 -35t29.5 -16h530v-255h-530q-74 0 -129 26.5t-91.5 69.5t-55 98t-18.5 112q0 42 11 83.5t32.5 78.5t54 67t76.5 49q-34 45 -64.5 96.5t-50.5 108.5q-17 45 -26.5 94.5t-9.5 98.5q0 75 22.5 142t75 117t137.5 79t210 29
q126 0 211.5 -29.5t138 -80t75 -118t22.5 -143.5q0 -47 -8.5 -93.5t-23.5 -91.5q-17 -51 -41.5 -96.5t-53.5 -86.5h314v-255zM406 515q12 -34 33 -68t45 -65t49.5 -58t46.5 -48q20 18 43 42.5t45.5 54.5t42.5 66t34 78q9 26 14.5 54.5t5.5 51.5q0 24 -10 45t-32.5 36.5
t-59 25t-90.5 9.5q-53 0 -89.5 -9t-58.5 -24t-31.5 -35.5t-9.5 -43.5q0 -55 22 -112z" />
    <glyph glyph-name="aininitial" unicode="&#x639;" horiz-adv-x="1036" arabic-form="initial" 
d="M931 0h-973v255h185v291q-1 89 29.5 165t83 134t123 95.5t148.5 49.5t160 -3.5t158 -63.5l-101 -232q-57 39 -116.5 46t-109 -13t-82.5 -66t-37 -112v-291h532v-255z" />
    <glyph glyph-name="ainmedial" unicode="&#x639;" horiz-adv-x="1191" arabic-form="medial" 
d="M1233 0h-1275v255h331q-29 40 -53 84t-43 95v-1q-17 46 -26.5 95t-9.5 98q0 75 22.5 142t75 117.5t137.5 79.5t210 29q126 0 212 -29.5t138.5 -80.5t75 -118.5t22.5 -143.5q0 -47 -9 -94t-24 -92q-17 -51 -41.5 -96.5t-52.5 -84.5h310v-255zM434 515q14 -38 34.5 -72
t44 -64.5t48 -56t45.5 -44.5q21 19 45.5 45t47.5 57t43 65.5t33 72.5q20 57 20 104q0 24 -10 45t-32.5 36.5t-59.5 25t-91 9.5q-53 0 -89.5 -9t-59 -24t-32 -35.5t-9.5 -43.5q0 -25 5.5 -54.5t16.5 -56.5z" />
    <glyph glyph-name="ghainisolated" unicode="&#x63a;" horiz-adv-x="1230" arabic-form="isolated" 
d="M654 1220q0 27 10 50.5t27.5 41t41 28t50.5 10.5t50.5 -10.5t41 -28t27.5 -41t10 -50.5t-10 -50.5t-27.5 -41t-41 -27.5t-50.5 -10t-50.5 10t-41 27.5t-27.5 41t-10 50.5zM1125 0h-727q-19 0 -28.5 -15t-9.5 -34t9.5 -35t28.5 -16h536v-255h-536q-74 0 -128.5 26.5
t-91.5 69.5t-55 98t-18 112q0 50 14 98t42.5 88t72 69.5t102.5 41.5v295q-1 90 29.5 166t83 134t122.5 95.5t148.5 49.5t160 -3.5t158.5 -63.5l-105 -231q-57 39 -116 45.5t-108.5 -14t-82 -66t-36.5 -112.5v-288h535v-255z" />
    <glyph glyph-name="ghainfinal" unicode="&#x63a;" horiz-adv-x="1165" arabic-form="final" 
d="M444 1220q0 27 10 50.5t27.5 41t41 28t50.5 10.5t50.5 -10.5t41 -28t28 -41t10.5 -50.5t-10.5 -50.5t-28 -41t-41 -27.5t-50.5 -10t-50.5 10t-41 27.5t-27.5 41t-10 50.5zM1207 0h-808q-20 0 -29.5 -15t-9.5 -34t9.5 -35t29.5 -16h530v-255h-530q-74 0 -129 26.5
t-91.5 69.5t-55 98t-18.5 112q0 42 11 83.5t32.5 78.5t54 67t76.5 49q-34 45 -64.5 96.5t-50.5 108.5q-17 45 -26.5 94.5t-9.5 98.5q0 75 22.5 142t75 117t137.5 79t210 29q126 0 211.5 -29.5t138 -80t75 -118t22.5 -143.5q0 -47 -8.5 -93.5t-23.5 -91.5
q-17 -51 -41.5 -96.5t-53.5 -86.5h314v-255zM406 515q12 -34 33 -68t45 -65t49.5 -58t46.5 -48q20 18 43 42.5t45.5 54.5t42.5 66t34 78q9 26 14.5 54.5t5.5 51.5q0 24 -10 45t-32.5 36.5t-59 25t-90.5 9.5q-53 0 -89.5 -9t-58.5 -24t-31.5 -35.5t-9.5 -43.5q0 -55 22 -112z
" />
    <glyph glyph-name="ghaininitial" unicode="&#x63a;" horiz-adv-x="1036" arabic-form="initial" 
d="M462 1220q0 27 10.5 50.5t28 41t41 28t50.5 10.5t50.5 -10.5t41 -28t28 -41t10.5 -50.5t-10.5 -50.5t-28 -41t-41 -27.5t-50.5 -10t-50.5 10t-41 27.5t-28 41t-10.5 50.5zM931 0h-973v255h185v291q-1 89 29.5 165t83 134t123 95.5t148.5 49.5t160 -3.5t158 -63.5
l-101 -232q-57 39 -116.5 46t-109 -13t-82.5 -66t-37 -112v-291h532v-255z" />
    <glyph glyph-name="ghainmedial" unicode="&#x63a;" horiz-adv-x="1181" arabic-form="medial" 
d="M463 1220q0 27 10 50.5t27.5 41t41 28t50.5 10.5t50.5 -10.5t41 -28t27.5 -41t10 -50.5t-10 -50.5t-27.5 -41t-41 -27.5t-50.5 -10t-50.5 10t-41 27.5t-27.5 41t-10 50.5zM1223 0h-1265v255h321q-29 40 -53 84t-43 95v-1q-17 46 -26.5 95t-9.5 98q0 75 22.5 142t75 117.5
t137.5 79.5t210 29q126 0 212 -29.5t138.5 -80.5t75 -118.5t22.5 -143.5q0 -47 -9 -94t-24 -92q-17 -51 -41.5 -96.5t-52.5 -84.5h310v-255zM424 515q14 -38 34.5 -72t44 -64.5t48 -56t45.5 -44.5q21 19 45.5 45t47.5 57t43 65.5t33 72.5q20 57 20 104q0 24 -10 45
t-32.5 36.5t-59.5 25t-91 9.5q-53 0 -89.5 -9t-59 -24t-32 -35.5t-9.5 -43.5q0 -25 5.5 -54.5t16.5 -56.5z" />
    <glyph glyph-name="fehisolated" unicode="&#x641;" horiz-adv-x="1862" arabic-form="isolated" 
d="M361 457q0 -42 16 -78.5t43.5 -64t64.5 -43.5t79 -16h295v291q0 96 35.5 178t96 142t142 94t174.5 34t174.5 -34.5t143 -94.5t96.5 -141t35 -173v-217q0 -75 -26 -137t-71.5 -105.5t-106.5 -67.5t-130 -24h-858q-95 0 -178.5 36t-146 98.5t-98.5 145.5t-36 177v369h256
v-369zM1115 255h307q33 0 55.5 21.5t22.5 57.5v217q0 39 -15 73.5t-41.5 60t-61.5 40t-75 14.5t-75 -15t-61 -41t-41 -61t-15 -76v-291zM1177 1220q0 27 10.5 50.5t28 41t41 28t50.5 10.5t50.5 -10.5t41 -28t28 -41t10.5 -50.5t-10.5 -50.5t-28 -41t-41 -27.5t-50.5 -10
t-50.5 10t-41 27.5t-28 41t-10.5 50.5z" />
    <glyph glyph-name="fehfinal" unicode="&#x641;" horiz-adv-x="1897" arabic-form="final" 
d="M563 0q-95 0 -178.5 36t-145.5 98.5t-98 145.5t-36 177v369h255v-369q0 -42 16 -78.5t43.5 -64t64.5 -43.5t79 -16h295v291q0 96 35 178t96 142t142.5 94t173.5 34q93 0 175 -34.5t143 -94.5t96 -141t35 -173v-296h185v-255h-1376zM1114 255h385v296q0 39 -15.5 73.5
t-41.5 60t-61.5 40t-75.5 14.5q-39 0 -74 -15t-61 -41t-41 -61t-15 -76v-291zM1176 1220q0 27 10 50.5t27.5 41t41 28t50.5 10.5t50.5 -10.5t41 -28t28 -41t10.5 -50.5t-10.5 -50.5t-28 -41t-41 -27.5t-50.5 -10t-50.5 10t-41 27.5t-27.5 41t-10 50.5z" />
    <glyph glyph-name="fehinitial" unicode="&#x641;" horiz-adv-x="1145" arabic-form="initial" 
d="M-42 255h186v291q0 96 35 178t96 142t142 94t174 34t174.5 -34.5t142.5 -94.5t96 -141t35 -173v-217q0 -75 -26 -137t-71.5 -105.5t-106 -67.5t-129.5 -24h-748v255zM398 255h308q33 0 55.5 21.5t22.5 57.5v217q1 39 -14 73.5t-41.5 60t-62 40t-75.5 14.5t-75 -15
t-61.5 -41t-41.5 -61t-15 -76v-291zM461 1220q0 27 10.5 50.5t28 41t41 28t50.5 10.5t50 -10.5t40.5 -28t27.5 -41t10 -50.5t-10 -50.5t-27.5 -41t-40.5 -27.5t-50 -10t-50.5 10t-41 27.5t-28 41t-10.5 50.5z" />
    <glyph glyph-name="fehmedial" unicode="&#x641;" horiz-adv-x="1183" arabic-form="medial" 
d="M-42 0v255h186v291q0 96 35 178t96 142t142 94t174 34t174.5 -34.5t142.5 -94.5t96.5 -141t35.5 -173v-296h185v-255h-1267zM398 255h387v296q0 39 -15.5 73.5t-41.5 60t-61.5 40t-75.5 14.5t-75 -15t-61.5 -41t-41.5 -61t-15 -76v-291zM461 1220q0 27 10.5 50.5t28 41
t41 28t50.5 10.5t50 -10.5t40.5 -28t27.5 -41t10 -50.5t-10 -50.5t-27.5 -41t-40.5 -27.5t-50 -10t-50.5 10t-41 27.5t-28 41t-10.5 50.5z" />
    <glyph glyph-name="qafisolated" unicode="&#x642;" horiz-adv-x="1480" arabic-form="isolated" 
d="M361 825v-718q0 -43 16 -81t44.5 -66t66 -44t81.5 -16h354q54 0 99.5 28t71.5 72h-295q-68 0 -128 26t-105 71t-71 105t-26 128v201q0 96 35.5 180t97 147t143.5 99.5t176 36.5q93 0 176 -37t144.5 -99.5t97 -145.5t35.5 -176v-439q0 -93 -35.5 -175.5t-97 -144
t-143.5 -97t-175 -35.5h-354q-96 0 -180.5 36.5t-147.5 99t-99.5 146.5t-36.5 180v718h256zM1119 255v281q0 41 -15.5 77.5t-42.5 64.5t-63 44t-77 16t-77 -16t-62.5 -44t-41.5 -66t-15 -81v-201q0 -32 21.5 -53.5t52.5 -21.5h320zM944 1220q0 27 10.5 50.5t28 41t41 28
t50.5 10.5t50.5 -10.5t41 -28t27.5 -41t10 -50.5t-10 -50.5t-27.5 -41t-41 -27.5t-50.5 -10t-50.5 10t-41 27.5t-28 41t-10.5 50.5zM636 1220q0 27 10.5 50.5t28 41t41 28t50.5 10.5t50.5 -10.5t41 -28t27.5 -41t10 -50.5t-10 -50.5t-27.5 -41t-41 -27.5t-50.5 -10t-50.5 10
t-41 27.5t-28 41t-10.5 50.5z" />
    <glyph glyph-name="qaffinal" unicode="&#x642;" horiz-adv-x="1517" arabic-form="final" 
d="M361 825v-718q0 -43 16 -81t44 -66t65.5 -44t80.5 -16h355q57 0 101.5 26.5t70.5 73.5h-296q-68 0 -128.5 26t-105.5 71t-71 105t-26 128v201q0 96 35.5 180t97 147t144 99.5t176.5 36.5q93 0 176 -37t144.5 -99.5t97.5 -145.5t36 -176v-281h185v-255h-196
q-18 -75 -59 -139.5t-99.5 -112.5t-130.5 -75.5t-152 -27.5h-355q-96 0 -180 36.5t-146.5 99t-99 146.5t-36.5 180v718h256zM1118 255v281q0 41 -15.5 77.5t-42.5 64.5t-63.5 44t-76.5 16q-41 0 -77 -16t-62.5 -44t-42 -66t-15.5 -81v-201q0 -32 21.5 -53.5t53.5 -21.5h320z
M944 1220q0 27 10.5 50.5t28 41t41 28t50.5 10.5t50.5 -10.5t41 -28t27.5 -41t10 -50.5t-10 -50.5t-27.5 -41t-41 -27.5t-50.5 -10t-50.5 10t-41 27.5t-28 41t-10.5 50.5zM636 1220q0 27 10.5 50.5t28 41t41 28t50.5 10.5t50.5 -10.5t41 -28t27.5 -41t10 -50.5t-10 -50.5
t-27.5 -41t-41 -27.5t-50.5 -10t-50.5 10t-41 27.5t-28 41t-10.5 50.5z" />
    <glyph glyph-name="qafinitial" unicode="&#x642;" horiz-adv-x="1145" arabic-form="initial" 
d="M-42 255h186v291q0 96 35 178t96 142t142 94t174 34t174.5 -34.5t142.5 -94.5t96 -141t35 -173v-217q0 -75 -26 -137t-71.5 -105.5t-106 -67.5t-129.5 -24h-748v255zM398 255h308q33 0 55.5 21.5t22.5 57.5v217q1 39 -14 73.5t-41.5 60t-62 40t-75.5 14.5t-75 -15
t-61.5 -41t-41.5 -61t-15 -76v-291zM617 1220q0 27 10.5 50.5t28 41t41 28t50.5 10.5t50.5 -10.5t41 -28t27.5 -41t10 -50.5t-10 -50.5t-27.5 -41t-41 -27.5t-50.5 -10t-50.5 10t-41 27.5t-28 41t-10.5 50.5zM309 1220q0 27 10.5 50.5t28 41t41 28t50.5 10.5t50.5 -10.5
t41 -28t27.5 -41t10 -50.5t-10 -50.5t-27.5 -41t-41 -27.5t-50.5 -10t-50.5 10t-41 27.5t-28 41t-10.5 50.5z" />
    <glyph glyph-name="qafmedial" unicode="&#x642;" horiz-adv-x="1183" arabic-form="medial" 
d="M-42 0v255h186v291q0 96 35 178t96 142t142 94t174 34t174.5 -34.5t142.5 -94.5t96.5 -141t35.5 -173v-296h185v-255h-1267zM398 255h386v296q0 39 -15 73.5t-41.5 60t-61.5 40t-75 14.5t-75 -15t-61.5 -41t-41.5 -61t-15 -76v-291zM617 1220q0 27 10.5 50.5t28 41t41 28
t50.5 10.5t50.5 -10.5t41 -28t27.5 -41t10 -50.5t-10 -50.5t-27.5 -41t-41 -27.5t-50.5 -10t-50.5 10t-41 27.5t-28 41t-10.5 50.5zM309 1220q0 27 10.5 50.5t28 41t41 28t50.5 10.5t50.5 -10.5t41 -28t27.5 -41t10 -50.5t-10 -50.5t-27.5 -41t-41 -27.5t-50.5 -10t-50.5 10
t-41 27.5t-28 41t-10.5 50.5z" />
    <glyph glyph-name="kafisolated" unicode="&#x643;" horiz-adv-x="1436" arabic-form="isolated" 
d="M1331 1350v-1018q0 -69 -26 -129.5t-71 -105.5t-105.5 -71t-129.5 -26h-439q-94 0 -177 36t-144.5 97.5t-97.5 144t-36 176.5v372h256v-372q0 -41 15.5 -77.5t42.5 -63.5t63 -42.5t78 -15.5h439q32 0 54.5 22.5t22.5 54.5v1018h255zM821 1180h-80h1q-34 -1 -49.5 -20.5
t-15.5 -42.5q0 -15 3 -29t8 -25.5t12.5 -18.5t15.5 -7h142v-94h-308v94h49q-16 40 -16 80q0 30 8.5 58t27 50t48.5 35.5t73 14.5h81v-95z" />
    <glyph glyph-name="arabickaffinal" unicode="&#x643;" horiz-adv-x="1474" arabic-form="final" 
d="M1331 1350v-1095h185v-255h-955q-95 0 -178 36t-144.5 97.5t-97.5 144t-36 176.5v372h256v-372q0 -41 15.5 -77.5t42.5 -63.5t63.5 -42.5t78.5 -15.5h514v1095h256zM821 1180h-80h1q-34 -1 -49.5 -20.5t-15.5 -42.5q0 -15 3 -29t8 -25.5t12.5 -18.5t15.5 -7h142v-94h-308
v94h49q-16 40 -16 80q0 30 8.5 58t27 50t48.5 35.5t73 14.5h81v-95z" />
    <glyph glyph-name="kafinitial" unicode="&#x643;" horiz-adv-x="1270" arabic-form="initial" 
d="M863 1198l-229 -204q100 -2 195.5 -24t170 -75t120 -142t45.5 -224v-200q0 -68 -26 -128t-71.5 -104.5t-106.5 -70.5t-130 -26h-873v255h873q33 0 56 21.5t23 52.5v200q0 62 -25.5 102.5t-67.5 64.5t-94.5 33.5t-106.5 9.5q-53 0 -110 -9t-109 -21.5t-94.5 -27
t-66.5 -25.5l-113 206l556 515z" />
    <glyph glyph-name="kafmedial" unicode="&#x643;" horiz-adv-x="1314" arabic-form="medial" 
d="M870 1198l-229 -204q66 -1 131 -11t124 -31.5t109.5 -56.5t87 -86t57.5 -120.5t21 -159.5v-274h185v-255h-1398v255h957v274q0 62 -25.5 102.5t-67 64.5t-94 33.5t-106.5 9.5q-53 0 -110.5 -9t-109.5 -21.5t-94 -27t-66 -25.5l-113 206l557 515z" />
    <glyph glyph-name="lamisolated" unicode="&#x644;" horiz-adv-x="1229" arabic-form="isolated" 
d="M1124 1350v-1251q0 -114 -44 -199.5t-115.5 -142.5t-163 -85.5t-187.5 -28.5t-187.5 28.5t-163 85.5t-115 142.5t-43.5 199.5v727h256v-727q0 -50 21.5 -87.5t57 -63t81 -38t93.5 -12.5t93.5 12.5t81 38t57.5 63t22 87.5v1251h256z" />
    <glyph glyph-name="lamfinal" unicode="&#x644;" horiz-adv-x="1265" arabic-form="final" 
d="M1307 0h-195q-18 -89 -67 -156t-116.5 -112t-149 -67.5t-165.5 -22.5q-96 0 -187.5 28.5t-163 85.5t-115 143t-43.5 200v727h256v-727q0 -50 21.5 -88t57 -63t81 -37.5t93.5 -12.5q47 0 92.5 12.5t81 37.5t57 63t21.5 88v1251h256v-1095h185v-255z" />
    <glyph glyph-name="laminitial" unicode="&#x644;" horiz-adv-x="520" arabic-form="initial" 
d="M415 1350v-1019q0 -68 -26 -128.5t-71.5 -105.5t-106 -71t-129.5 -26h-124v255h124q33 0 55.5 22t22.5 54v1019h255z" />
    <glyph glyph-name="lammedial" unicode="&#x644;" horiz-adv-x="541" arabic-form="medial" 
d="M398 1350v-1095h185v-255h-625v255h185v1095h255z" />
    <glyph glyph-name="meemisolated" unicode="&#x645;" horiz-adv-x="1442" arabic-form="isolated" 
d="M889 994q93 0 174.5 -36t142 -98.5t96 -145.5t35.5 -177v-205q0 -95 -35.5 -178.5t-96 -145.5t-142 -98t-174.5 -36q-89 0 -167.5 34t-139 92.5t-98 136.5t-42.5 165q-45 -15 -63 -47t-18 -72v-538h-256v538q0 72 18.5 137t59 115.5t104.5 84t155 44.5q5 87 42 165
t97.5 137t139.5 93.5t168 34.5zM1082 537q0 42 -15 78.5t-41.5 63.5t-61.5 43t-75 16q-39 0 -74.5 -16t-62 -44t-41.5 -64.5t-15 -76.5v-206q0 -41 15 -77t41.5 -64t62 -44t74.5 -16q40 0 75 16t61.5 43t41.5 64t15 79v205z" />
    <glyph glyph-name="meemfinal" unicode="&#x645;" horiz-adv-x="1480" arabic-form="final" 
d="M1522 0h-325q-60 -61 -138.5 -93.5t-169.5 -32.5q-89 0 -168.5 34t-139.5 92.5t-97.5 136.5t-42.5 165q-45 -15 -63 -47t-18 -72v-538h-255v538q0 72 18.5 137t59 115.5t104 84t154.5 44.5q5 87 42 165t97.5 137t139.5 93.5t169 34.5q92 0 173.5 -36t142 -98.5t96 -145.5
t35.5 -177v-205q0 -40 -6 -77h192v-255zM1081 537q0 42 -15 78.5t-41 63.5t-61 43t-75 16t-75.5 -16t-62 -44t-41.5 -64.5t-15 -76.5v-206q0 -41 15 -77t41.5 -64t62 -44t75.5 -16t75 16t61 43t41 64t15 79v205z" />
    <glyph glyph-name="meeminitial" unicode="&#x645;" horiz-adv-x="1145" arabic-form="initial" 
d="M-42 255h191q-4 20 -4.5 38.5t-0.5 38.5v205q0 94 35 177t96 145.5t142 98.5t174 36t174.5 -37.5t142.5 -100.5t96 -145.5t35 -173.5v-206q0 -92 -35 -174.5t-96 -145.5t-142.5 -100t-174.5 -37q-187 0 -308 126h-325v255zM591 738q-40 0 -75 -16t-61.5 -43t-41.5 -63.5
t-15 -78.5v-205q0 -42 15 -79t41.5 -64t61.5 -43t75 -16t75.5 16t62 44t41.5 64t15 77v206q0 40 -15 76.5t-41.5 64.5t-62 44t-75.5 16z" />
    <glyph glyph-name="meemmedial" unicode="&#x645;" horiz-adv-x="1182" arabic-form="medial" 
d="M-42 255h191q-3 19 -4 38t-1 39v205q0 94 35 177t96 145.5t142 98.5t174 36q92 0 174 -37.5t143 -100.5t96 -145.5t35 -173.5v-206q1 -21 0 -39t-5 -37h190v-255h-325q-61 -60 -139 -93t-169 -33q-185 0 -308 126h-325v255zM591 738q-40 0 -75 -16t-61.5 -43t-41.5 -63.5
t-15 -78.5v-205q0 -42 15 -79t41.5 -64t61.5 -43t75 -16t75 16t61.5 44t41.5 64t15 77v206q0 40 -15 76.5t-41.5 64.5t-61.5 44t-75 16z" />
    <glyph glyph-name="noonisolated" unicode="&#x646;" horiz-adv-x="1229" arabic-form="isolated" 
d="M1124 994v-893q0 -114 -44 -200t-115.5 -143t-163 -85.5t-187.5 -28.5t-187.5 28.5t-163 85.5t-115 143t-43.5 200v725h256v-725q0 -50 21.5 -88t57 -63.5t81 -38t93.5 -12.5t93.5 12.5t81 38t57.5 63.5t22 88v893h256zM485 1220q0 27 10 50.5t27.5 41t41 28t50.5 10.5
t50.5 -10.5t41 -28t28 -41t10.5 -50.5t-10.5 -50.5t-28 -41t-41 -27.5t-50.5 -10t-50.5 10t-41 27.5t-27.5 41t-10 50.5z" />
    <glyph glyph-name="noonfinal" unicode="&#x646;" horiz-adv-x="1266" arabic-form="final" 
d="M1123 994v-738h185v-256h-196q-18 -90 -66.5 -157t-116.5 -111t-149.5 -66t-165.5 -22q-96 0 -187.5 28.5t-163 85.5t-115 143t-43.5 200v725h255v-725q0 -50 21.5 -88t57.5 -63.5t81.5 -38t93.5 -12.5q47 0 92.5 12.5t81 38t57.5 63.5t22 88v893h256zM484 1220
q0 27 10.5 50.5t28 41t41 28t50.5 10.5t50.5 -10.5t41 -28t27.5 -41t10 -50.5t-10 -50.5t-27.5 -41t-41 -27.5t-50.5 -10t-50.5 10t-41 27.5t-28 41t-10.5 50.5z" />
    <glyph glyph-name="nooninitial" unicode="&#x646;" horiz-adv-x="627" arabic-form="initial" 
d="M264 1220q0 27 10 50.5t27.5 41t41 28t50.5 10.5t50.5 -10.5t41 -28t27.5 -41t10 -50.5t-10 -50.5t-27.5 -41t-41 -27.5t-50.5 -10t-50.5 10t-41 27.5t-27.5 41t-10 50.5zM522 994v-662q0 -69 -26 -129.5t-71 -105.5t-105.5 -71t-128.5 -26h-233v255h233q31 0 53.5 22.5
t22.5 54.5v662h255z" />
    <glyph glyph-name="noonmedial" unicode="&#x646;" horiz-adv-x="666" arabic-form="medial" 
d="M196 1220q0 27 10 50.5t27.5 41t41 28t50.5 10.5t50.5 -10.5t41 -28t27.5 -41t10 -50.5t-10 -50.5t-27.5 -41t-41 -27.5t-50.5 -10t-50.5 10t-41 27.5t-27.5 41t-10 50.5zM522 994v-739h186v-255h-750v255h309v739h255z" />
    <glyph glyph-name="hehisolated" unicode="&#x647;" horiz-adv-x="1108" arabic-form="isolated" 
d="M361 331q0 -34 22 -54.5t54 -20.5h232q32 0 54.5 21.5t22.5 56.5v206q0 40 -15 76t-41.5 63t-61.5 43t-75 16t-75 -16t-61 -43.5t-41 -64t-15 -78.5v-205zM105 536q0 95 35.5 178.5t96 145.5t142 98t174.5 36q92 0 174 -36.5t143 -98.5t96.5 -144.5t35.5 -174.5v-206
q0 -75 -26 -136.5t-71.5 -105.5t-106 -68t-129.5 -24h-232q-71 0 -131.5 23.5t-105 67t-70 104.5t-25.5 136v205z" />
    <glyph glyph-name="hehfinal" unicode="&#x647;" horiz-adv-x="1153" arabic-form="final" 
d="M1195 255v-255h-440v537q0 41 -15.5 77.5t-42.5 64t-63 43.5t-77 16t-77 -16t-62.5 -44t-42 -66t-15.5 -81v-202q0 -31 21.5 -52.5t53.5 -21.5h150v-255h-150q-68 0 -128 26t-105 70.5t-71 104.5t-26 128v202q0 96 35.5 180t97 146.5t144 99t175.5 36.5t176 -37
t144.5 -99.5t97 -145.5t34.5 -175v-281h186z" />
    <glyph glyph-name="hehinitial" unicode="&#x647;" horiz-adv-x="1446" arabic-form="initial" 
d="M143 410q0 60 18 113.5t49.5 97t75 74.5t95.5 46q33 58 87 105t119.5 80t139 50.5t146.5 17.5q91 0 175.5 -26t149.5 -82t104 -144.5t39 -213.5v-199q0 -68 -26.5 -128t-71.5 -104.5t-106 -70.5t-130 -26h-1049v255h185v155zM806 255h201q33 0 56 21.5t23 52.5v199
q0 56 -18 96t-47.5 65.5t-68 37.5t-79.5 12q-53 0 -105.5 -14.5t-93.5 -39.5q60 -48 96.5 -118t35.5 -154v-158zM398 256h152v157q0 18 -5.5 33.5t-16 27t-24.5 18t-30 6.5q-32 0 -54 -25.5t-22 -62.5v-154z" />
    <glyph glyph-name="hehmedial" unicode="&#x647;" horiz-adv-x="1487" arabic-form="medial" 
d="M-42 0v255h185v154q0 60 18 113.5t50 96.5t75.5 74.5t95.5 46.5q33 58 86.5 105t118.5 80t138.5 51t147.5 18q91 0 175.5 -26t149.5 -82t104 -144.5t39 -213.5v-273h188v-255h-1571zM806 255h280v273q0 56 -18 96t-47.5 65.5t-68 37.5t-79.5 12q-54 0 -105.5 -14
t-93.5 -40q62 -47 97.5 -117t34.5 -155v-158zM399 255h151v158q0 18 -5.5 33.5t-16 27t-24.5 18t-30 6.5q-32 0 -53.5 -25.5t-21.5 -63.5v-154z" />
    <glyph glyph-name="wawisolated" unicode="&#x648;" horiz-adv-x="1116" arabic-form="isolated" 
d="M238 -101h321q57 0 102 26t69 75h-295q-68 0 -128 26t-105 70.5t-71 104.5t-26 128v202q0 96 35.5 180t97 147t144 99.5t175.5 36.5q94 0 176.5 -37.5t144 -100.5t97 -146t35.5 -174v-440q0 -93 -35.5 -175.5t-96.5 -144t-143.5 -97t-175.5 -35.5h-321v255zM755 255v281
q0 40 -15.5 77t-42.5 64.5t-63 44t-77 16.5t-76.5 -16t-62 -44t-42 -66t-15.5 -81v-202q0 -31 21.5 -52.5t52.5 -21.5h320z" />
    <glyph glyph-name="wawfinal" unicode="&#x648;" horiz-adv-x="1152" arabic-form="final" 
d="M238 -101h320q57 0 102 26t69 75h-295q-68 0 -128 26t-104.5 70.5t-70.5 104.5t-26 128v202q0 96 35.5 180t97 147t143.5 99.5t175 36.5q94 0 176.5 -37.5t144 -100.5t97 -146t35.5 -174v-281h185v-255h-194q-17 -75 -58.5 -140t-100 -113t-131 -75.5t-152.5 -27.5h-320
v255zM754 255v281q0 40 -15 77t-42 64.5t-63.5 44t-77.5 16.5t-76.5 -16t-62 -44t-42 -66t-15.5 -81v-202q0 -31 21.5 -52.5t52.5 -21.5h320z" />
    <glyph glyph-name="alefmaksuraisolated" unicode="&#x649;" horiz-adv-x="1229" arabic-form="isolated" 
d="M1070 738h-271q-32 0 -55 -22.5t-23 -56.5v-195h74q81 0 143 -26t103 -73.5t62 -113.5t21 -146q0 -115 -44 -201.5t-115.5 -144t-163 -86.5t-187.5 -29q-95 0 -186.5 28.5t-163 86t-115.5 143.5t-44 201v723h256v-723q0 -51 21.5 -89t57 -63.5t81 -38.5t93.5 -13t93.5 13
t81 39t57.5 64.5t22 89.5q0 47 -18.5 75.5t-54.5 28.5h-330v450q0 69 26.5 130t71.5 106.5t106 72t130 26.5h271v-256z" />
    <glyph glyph-name="alefmaksurafinal" unicode="&#x649;" horiz-adv-x="1165" arabic-form="final" 
d="M1207 0h-95q-18 -91 -67 -158t-117 -111.5t-149.5 -66t-165.5 -21.5q-95 0 -186.5 28.5t-163 86t-115 143.5t-43.5 201v724h255v-724q0 -51 22 -89t57.5 -63.5t81 -38.5t92.5 -13q33 0 65.5 7t62 20t54.5 32t42 43h-298v255h668v-255z" />
    <glyph glyph-name="yehisolated" unicode="&#x64a;" horiz-adv-x="1229" arabic-form="isolated" 
d="M1070 738h-271q-33 0 -56 -22.5t-23 -56.5v-195h75q81 0 142.5 -26t103 -73.5t62.5 -113.5t21 -146q0 -115 -44 -201.5t-115.5 -144t-163.5 -86.5t-188 -29q-95 0 -186.5 28.5t-163 86t-115 143.5t-43.5 201v723h256v-723q0 -51 21.5 -89t57 -63.5t81 -38.5t92.5 -13
q48 0 94 13t81.5 39t57.5 64.5t22 89.5q0 47 -18.5 75.5t-54.5 28.5h-330v450q0 69 26.5 130t71.5 106.5t106 72t130 26.5h271v-256zM635 -584q0 27 10.5 50.5t28 41t41 27.5t50.5 10t50.5 -10t41 -27.5t27.5 -41t10 -50.5t-10 -50.5t-27.5 -41t-41 -27.5t-50.5 -10
t-50.5 10t-41 27.5t-28 41t-10.5 50.5zM327 -584q0 27 10.5 50.5t28 41t41 27.5t50.5 10t50.5 -10t41 -27.5t28 -41t10.5 -50.5t-10.5 -50.5t-28 -41t-41 -27.5t-50.5 -10t-50.5 10t-41 27.5t-28 41t-10.5 50.5z" />
    <glyph glyph-name="yehfinal" unicode="&#x64a;" horiz-adv-x="1165" arabic-form="final" 
d="M1207 0h-95q-18 -91 -67 -158t-117 -111.5t-149.5 -66t-165.5 -21.5q-95 0 -186.5 28.5t-163 86t-115 143.5t-43.5 201v724h255v-724q0 -51 22 -89t57.5 -63.5t81 -38.5t92.5 -13q33 0 65.5 7t62 20t54.5 32t42 43h-298v255h668v-255zM636 -584q0 27 10 50.5t27.5 41
t41 27.5t50.5 10t50.5 -10t41 -27.5t27.5 -41t10 -50.5t-10 -50.5t-27.5 -41t-41 -27.5t-50.5 -10t-50.5 10t-41 27.5t-27.5 41t-10 50.5zM328 -584q0 27 10 50.5t27.5 41t41 27.5t50.5 10t50.5 -10t41 -27.5t28 -41t10.5 -50.5t-10.5 -50.5t-28 -41t-41 -27.5t-50.5 -10
t-50.5 10t-41 27.5t-27.5 41t-10 50.5z" />
    <glyph glyph-name="yehinitial" unicode="&#x64a;" horiz-adv-x="629" arabic-form="initial" 
d="M524 994v-662q0 -69 -26.5 -129.5t-71.5 -105.5t-105 -71t-128 -26h-233v255h233q31 0 53.5 22.5t22.5 54.5v662h255zM266 -228q0 27 10 50.5t27.5 41t41 27.5t50.5 10t50.5 -10t41 -27.5t27.5 -41t10 -50.5t-10 -50.5t-27.5 -41t-41 -27.5t-50.5 -10t-50.5 10t-41 27.5
t-27.5 41t-10 50.5zM-42 -228q0 27 10 50.5t27.5 41t41 27.5t50.5 10t50.5 -10t41 -27.5t28 -41t10.5 -50.5t-10.5 -50.5t-28 -41t-41 -27.5t-50.5 -10t-50.5 10t-41 27.5t-27.5 41t-10 50.5z" />
    <glyph glyph-name="yehmedial" unicode="&#x64a;" horiz-adv-x="670" arabic-form="medial" 
d="M526 994v-739h186v-255h-750v255h309v739h255zM266 -228q0 27 10 50.5t27.5 41t41 27.5t50.5 10t50.5 -10t41 -27.5t27.5 -41t10 -50.5t-10 -50.5t-27.5 -41t-41 -27.5t-50.5 -10t-50.5 10t-41 27.5t-27.5 41t-10 50.5zM-42 -228q0 27 10 50.5t27.5 41t41 27.5t50.5 10
t50.5 -10t41 -27.5t28 -41t10.5 -50.5t-10.5 -50.5t-28 -41t-41 -27.5t-50.5 -10t-50.5 10t-41 27.5t-27.5 41t-10 50.5z" />
    <glyph glyph-name=".notdef" horiz-adv-x="0" 
 />
    <glyph glyph-name=".null" horiz-adv-x="0" 
 />
    <glyph glyph-name="nonmarkingreturn" horiz-adv-x="500" 
 />
    <glyph glyph-name="endash" horiz-adv-x="1024" 
d="M1036 618h-1048v61h1048v-61z" />
    <glyph glyph-name="guilsinglright" horiz-adv-x="512" 
d="M457 586l-393 -457v75l231 382l-222 381v77z" />
    <glyph glyph-name="ordmasculine" horiz-adv-x="661" 
d="M638 1149q0 -139 -96 -244q-98 -109 -236 -109q-126 0 -200 79t-74 206q0 139 94 245q98 111 235 111q130 0 203.5 -78.5t73.5 -209.5zM548 1079q0 110 -64 203q-71 104 -177 104q-90 0 -141 -68q-45 -61 -45 -155q0 -111 67 -206q74 -104 181 -104q86 0 136 72
q43 64 43 154z" />
    <glyph glyph-name="paragraph" horiz-adv-x="896" 
d="M899 1372q-95 -5 -118 -41q-17 -27 -17 -134v-1525h-58v1682h-187v-1682h-59v1011q-467 -10 -467 348q0 120 68 218q72 104 185 133q100 26 273 26h380v-36z" />
    <glyph glyph-name="multiply" horiz-adv-x="1319" 
d="M1227 881l-427 -448l415 -431h-276l-275 290l-275 -290h-278l415 431l-424 448h275l287 -301l288 301h275z" />
    <glyph glyph-name="space" unicode=" " horiz-adv-x="325" 
 />
    <glyph glyph-name="exclam" unicode="!" horiz-adv-x="484" 
d="M379 67q0 -28 -11 -53t-29.5 -43.5t-44 -29t-53.5 -10.5t-52.5 10.5t-43 29t-29.5 43.5t-11 53q0 29 11 54t29.5 43t43 28.5t52.5 10.5t53.5 -10.5t44 -28.5t29.5 -43t11 -54zM365 1350v-1047h-255v1047h255z" />
    <glyph glyph-name="quotedbl" unicode="&#x22;" horiz-adv-x="840" 
d="M683 843h-146l-50 566h248zM302 843h-146l-51 566h248z" />
    <glyph glyph-name="numbersign" unicode="#" horiz-adv-x="1276" 
d="M862 442l-50 -357h-175l50 357h-186l-51 -357h-175l50 357h-220l24 172h220l25 174h-220l24 172h220l46 326h175l-46 -326h186l46 326h176l-46 -326h236l-24 -172h-236l-24 -174h236l-24 -172h-237zM735 788h-186l-24 -174h186z" />
    <glyph glyph-name="dollar" unicode="$" horiz-adv-x="1282" 
d="M702 1190v-360l15 -4q205 -53 290 -101q170 -95 170 -311q0 -171 -109 -286q-105 -112 -262 -139q-43 -7 -104 -10v-196h-117v196q-205 13 -318 104q-160 127 -162 361h273q2 -109 42 -166q49 -70 165 -86v408q-196 55 -267 96q-110 64 -149 152q-31 68 -31 154
q0 168 119 276q94 84 228 107q37 7 100 11v174h117v-174q175 -7 287 -90q139 -102 142 -313h-261q-4 99 -53 147q-40 38 -115 50zM585 1193q-185 -18 -185 -169q0 -79 62 -121q38 -25 123 -46v336zM702 193q202 24 202 188q0 98 -78 145q-30 17 -85 33q-33 10 -39 12v-378z
" />
    <glyph glyph-name="percent" unicode="%" horiz-adv-x="1838" 
d="M1382 1425l-779 -1479h-176l781 1479h174zM1408 743q181 0 267 -132q58 -89 58 -241q0 -188 -82 -291q-87 -107 -251 -107q-169 0 -255 110q-75 96 -75 267q0 187 82 286q89 108 256 108zM1404 601q-78 0 -109 -75q-23 -55 -23 -174q0 -107 21 -161q29 -75 107 -75
q79 0 110 85q20 56 20 161q0 106 -20 160q-29 79 -106 79zM443 1398q168 0 255 -116q69 -93 69 -259q0 -193 -87 -296q-84 -100 -241 -100q-169 0 -257 112q-77 97 -77 276q0 194 97 293q88 90 241 90zM438 1254q-74 0 -106 -70q-26 -57 -26 -182q0 -104 20 -157
q29 -76 106 -76q84 0 114 85q20 58 20 170t-28 171t-100 59z" />
    <glyph glyph-name="ampersand" unicode="&#x26;" horiz-adv-x="1523" 
d="M1267 681q-24 -205 -135 -346l286 -335h-342l-115 139q-44 -47 -111 -89q-128 -80 -283 -80q-211 0 -337 122q-125 119 -125 295q0 193 159 319q81 64 159 99q-131 155 -131 291q0 161 130 255q103 76 248 76q151 0 252 -87q114 -97 114 -248q0 -226 -244 -355l182 -221
q34 60 51 165h242zM654 903q61 37 95 73q52 54 52 122q0 56 -40 96q-35 34 -90 34q-57 0 -92 -34q-39 -37 -39 -88q0 -54 45 -118q24 -35 43 -56q25 -30 26 -29zM568 622q-190 -97 -190 -227q0 -74 54 -131q58 -60 147 -60q123 0 233 124z" />
    <glyph glyph-name="quotesingle" unicode="'" horiz-adv-x="458" 
d="M301 843h-145l-51 566h248z" />
    <glyph glyph-name="parenleft" unicode="(" horiz-adv-x="707" 
d="M602 1409q-90 -164 -147 -358q-75 -252 -75 -511q0 -277 65 -521q42 -153 97 -264q49 -101 57 -117h-234q-15 21 -84 151q-81 150 -132 362q-44 182 -44 383q0 258 92 523q63 184 171 352h234z" />
    <glyph glyph-name="parenright" unicode=")" horiz-adv-x="707" 
d="M105 -362q90 164 147 358q75 252 75 511q0 277 -65 521q-42 156 -96 265q-50 100 -57 116h233q14 -20 85 -151q80 -150 131 -362q44 -182 44 -383q0 -259 -92 -524q-63 -183 -171 -351h-234z" />
    <glyph glyph-name="asterisk" unicode="*" horiz-adv-x="2943" 
d="M470 1120q82 0 149.5 -30.5t115.5 -81.5t74 -116.5t26 -134.5q0 -70 -27 -137t-75 -119t-115 -83.5t-148 -31.5q-80 0 -147 30t-115.5 80t-75.5 114t-27 133v587q0 11 8 18.5t19 7.5t18.5 -7.5t7.5 -18.5v-383q30 48 75 86q19 16 43 31.5t53.5 28t64.5 20t76 7.5z
M470 443q64 0 120.5 24.5t98.5 67t66.5 100t24.5 122.5q0 64 -24.5 120.5t-66.5 99t-98.5 67t-120.5 24.5q-65 0 -121.5 -24.5t-98.5 -67t-66.5 -99t-24.5 -120.5q0 -65 24.5 -122.5t66.5 -100t98.5 -67t121.5 -24.5zM1547 562q-24 -39 -56.5 -71t-72.5 -55.5t-86 -36
t-96 -12.5q-76 0 -143 29t-116.5 79t-78 117t-28.5 142q0 76 28.5 143t78 116.5t116.5 78.5t143 29t143 -29t117 -78.5t78.5 -116.5t28.5 -143q0 -8 -6 -16.5t-22 -8.5h-391q-11 0 -19.5 7.5t-8.5 20.5q0 11 8.5 19t19.5 8h362q-6 59 -32 110.5t-67.5 90t-95.5 60.5t-115 22
q-65 0 -121.5 -24.5t-98.5 -67t-66 -99.5t-24 -122q0 -64 24 -120.5t66 -99t98.5 -67t121.5 -24.5q42 0 81 11t73.5 30.5t63 47t48.5 60.5q6 11 17.5 13t21.5 -5q8 -6 11 -17t-5 -21zM1703 385q-26 1 -44 18t-20 37v630q2 20 20 37t44 17t44 -17t19 -37v-630q-1 -20 -19 -37
t-44 -18zM1891 385q-27 1 -45 17t-20 34v474q3 40 18 77q13 32 40.5 65t78.5 54q52 19 97 16t81 -19t61.5 -40t37.5 -46l289 -455q14 -22 33 -35q17 -11 41.5 -15t56.5 13q15 7 24.5 17.5t15.5 22t8.5 21.5t2.5 17v466q2 20 19.5 37t42.5 17q27 0 45 -17t19 -37v-466
q0 -41 -13 -78q-12 -32 -39 -65.5t-81 -55.5q-52 -21 -98 -17.5t-82 19t-61 37.5t-35 37q-5 8 -20 31.5t-36 57.5t-46.5 74t-51.5 81q-61 96 -135 212q-9 18 -22 31q-11 11 -28 20.5t-39 7.5q-38 -4 -58.5 -19.5t-28.5 -32.5q-11 -20 -10 -46v-454q0 -22 -18 -39.5
t-44 -18.5zM1609 350q25 0 47.5 -9.5t38.5 -25.5t25.5 -38t9.5 -46q0 -25 -9.5 -47t-25.5 -38.5t-38.5 -26t-47.5 -9.5h-81v-94q0 -19 -19 -19q-8 0 -13 5.5t-5 13.5l-1 215q0 52 32.5 85.5t86.5 33.5zM1609 147q17 0 32.5 6.5t27 18t18 26.5t6.5 33q0 34 -24.5 59t-59.5 25
q-38 0 -59.5 -24.5t-21.5 -59.5v-84h81zM1914 352q37 0 69.5 -14t56.5 -38t38 -56.5t14 -69.5q0 -36 -14 -68.5t-38 -57t-56.5 -38.5t-69.5 -14q-36 0 -68.5 14t-56.5 38.5t-38 57t-14 68.5q0 37 14 69.5t38 56.5t56.5 38t68.5 14zM1914 36q29 0 54 11t44 29.5t29.5 43.5
t10.5 54q0 28 -10.5 53t-29.5 44t-44 29.5t-54 10.5q-28 0 -53 -10.5t-43.5 -29.5t-29.5 -44t-11 -53q0 -29 11 -54t29.5 -43.5t43.5 -29.5t53 -11zM2568 350q8 0 13.5 -5.5t5.5 -13.5t-5.5 -14t-13.5 -6h-82v-294q0 -8 -5.5 -14t-13.5 -6q-9 0 -14.5 6t-5.5 14v294h-83
q-9 0 -15 6t-6 14t6 13.5t15 5.5h204zM1338 199q62 0 91.5 -27.5t29.5 -65.5q0 -19 -6.5 -37.5t-20.5 -33.5t-37.5 -24t-56.5 -9q-26 0 -47.5 8.5t-37 23.5t-23.5 34.5t-8 42.5q0 18 19 18q7 0 12.5 -5t5.5 -13q0 -6 2 -18t10 -24t24 -21t44 -9q33 0 50.5 10t24.5 23
t7.5 23.5t0.5 11.5l-0.5 9t-8 19t-25 18.5t-50.5 8.5t-55 8t-35.5 20.5t-19.5 27t-6 28.5q0 13 4.5 31t17.5 34t35.5 27.5t58.5 11.5q32 -1 58 -13q22 -11 40.5 -33.5t18.5 -65.5q0 -7 -5.5 -12t-13.5 -5q-7 0 -12 5t-5 12q0 21 -9 38q-8 14 -24 26.5t-48 12.5t-48.5 -11
t-23.5 -24q-8 -16 -8 -35q1 -13 10 -23q8 -9 24 -16t46 -7zM2353 231q0 -39 -22.5 -70t-59.5 -44l56 -92q4 -6 2.5 -13.5t-8.5 -10.5q-8 -5 -15.5 -3.5t-11.5 9.5l-64 103h-82v-95q0 -8 -5 -13.5t-13 -5.5q-19 0 -19 19v216q0 52 32.5 86.5t88.5 34.5q25 0 47 -9.5t38.5 -26
t26 -38.5t9.5 -47zM2232 147q35 0 59.5 24.5t24.5 59.5q0 18 -6.5 33t-18 26.5t-27 18t-32.5 6.5q-38 0 -61 -23.5t-23 -60.5v-84h84zM2714 196q63 0 93 -27t30 -65q0 -19 -7 -38t-21.5 -34.5t-38 -25t-56.5 -9.5q-26 0 -48 9t-37.5 24t-23.5 35t-6 43q0 19 16 19
q8 0 13 -5.5t5 -13.5q0 -6 2.5 -18.5t11 -25t25 -21.5t44.5 -9q34 0 51 10.5t24.5 23.5t8 24t0.5 12t-0.5 9.5t-8 18.5t-25 18.5t-50.5 8.5q-34 0 -56.5 8t-36 21t-19 28t-5.5 29q0 13 4.5 31t17 34.5t35 28t58.5 11.5q33 -1 59 -13q22 -11 40.5 -33.5t18.5 -66.5
q0 -7 -5 -13t-13 -6q-9 0 -14 6t-5 13q0 21 -8 38q-7 14 -23 26t-48 12q-33 0 -49.5 -11t-24.5 -24q-9 -15 -9 -34q1 -13 10 -24q8 -9 24 -16.5t47 -7.5z" />
    <glyph glyph-name="plus" unicode="+" horiz-adv-x="1182" 
d="M105 596v189h392v392h189v-392h391v-189h-391v-392h-189v392h-392z" />
    <glyph glyph-name="comma" unicode="," horiz-adv-x="456" 
d="M115 -100q88 5 131 60q20 25 20 54q0 20 -21 20q-23 -2 -38 -3q-102 0 -102 90q0 46 31 70q31 23 66 23q70 0 109.5 -44t39.5 -114q0 -98 -64.5 -157t-161.5 -58z" />
    <glyph glyph-name="hyphenminus" unicode="-" horiz-adv-x="749" 
d="M640 651v-251h-535v251h535z" />
    <glyph glyph-name="period" unicode="." horiz-adv-x="462" 
d="M357 129q0 -26 -9.5 -49t-26.5 -40t-40 -27t-50 -10q-26 0 -49 10t-40 27t-27 40t-10 49q0 27 10 50t27 40t40 26.5t49 9.5q27 0 50 -9.5t40 -26.5t26.5 -40t9.5 -50z" />
    <glyph glyph-name="slash" unicode="/" horiz-adv-x="1032" 
d="M927 1409l-566 -1409h-256l568 1409h254z" />
    <glyph glyph-name="zero" unicode="0" horiz-adv-x="1112" 
d="M555 1354q93 0 175.5 -35.5t144 -97t97 -143.5t35.5 -175v-453q0 -93 -35.5 -174.5t-97 -143t-144 -97t-175.5 -35.5q-94 0 -176 35.5t-143 96.5t-96 143t-35 175v453q0 94 35 176.5t96 143.5t143 96t176 35zM759 903q0 42 -16 79t-43.5 64.5t-64.5 43.5t-80 16
q-42 0 -79.5 -16t-65.5 -43.5t-44 -64.5t-16 -79v-453q0 -42 16 -79.5t44 -65t65.5 -44t79.5 -16.5q43 0 80 16.5t64.5 44t43.5 65t16 79.5v453z" />
    <glyph glyph-name="one" unicode="1" horiz-adv-x="768" 
d="M663 0h-261v1081h-297l103 270h268q50 0 85.5 -19t58 -50.5t33 -72.5t10.5 -84v-1125z" />
    <glyph glyph-name="two" unicode="2" horiz-adv-x="1151" 
d="M1046 918q0 -85 -24.5 -152.5t-66.5 -123.5t-96.5 -104.5t-114.5 -95.5l-259 -202h555v-240h-727q-41 0 -78.5 9.5t-66 30.5t-46 54t-17.5 80q0 31 8.5 55t23.5 43.5t34.5 36t41.5 32.5l20 15h-1l440 346q24 19 45.5 43.5t38.5 52t27 57.5t10 61q0 43 -16 79.5t-44 63
t-65 41t-80 14.5q-51 0 -90.5 -16t-66.5 -45.5t-41.5 -70.5t-14.5 -91q0 -31 12.5 -60t34.5 -53.5t51.5 -43.5t63.5 -31l-219 -158q-102 64 -149.5 160t-47.5 209q0 101 40 182t106.5 137.5t154 87t182.5 30.5q92 0 172.5 -33t140.5 -91t94.5 -137.5t34.5 -171.5z" />
    <glyph glyph-name="three" unicode="3" horiz-adv-x="1117" 
d="M558 0q-87 0 -165.5 32.5t-139.5 89.5t-100 134.5t-48 168.5h247q7 -39 26.5 -72t47.5 -57t62 -37.5t70 -13.5q43 0 81.5 16.5t66.5 45t44.5 66.5t16.5 82q0 53 -17 87.5t-43.5 56.5t-59.5 35t-65 22q-28 9 -55 19t-48 25t-34 36.5t-13 54.5q0 23 17.5 56t44 70t57 74.5
t57.5 69.5q9 10 14 15.5t9 10t7 8.5t8 10h-403l-61 247h615q39 0 76.5 -9.5t66.5 -29.5t46.5 -52t17.5 -78q0 -31 -17.5 -68t-44 -75.5t-57.5 -75.5t-59 -68q-12 -14 -20 -23.5t-19 -23.5q52 -31 93.5 -73.5t71 -93.5t45 -108.5t15.5 -118.5q0 -94 -36 -176.5t-98 -144.5
t-144.5 -98t-175.5 -36z" />
    <glyph glyph-name="four" unicode="4" horiz-adv-x="1268" 
d="M1163 211h-183v-211h-278v211h-421q-34 0 -65.5 12.5t-56 35t-39.5 53.5t-15 67q0 20 6 42t15 40l550 890h328l-551 -889h249v147h278v-147h183v-251z" />
    <glyph glyph-name="five" unicode="5" horiz-adv-x="1071" 
d="M534 0q-80 0 -152 29t-129.5 80.5t-96 121.5t-51.5 152h237q10 -32 29 -59t44.5 -46.5t56 -30.5t62.5 -11q42 0 78.5 16.5t63.5 44t42.5 64.5t15.5 79t-16 79t-43 64t-63.5 43t-77.5 16q-21 0 -43.5 -0.5t-43.5 -1.5q-22 -1 -43 -1.5t-42 -0.5q-52 0 -98 7.5t-80.5 31
t-54.5 67.5t-20 117v308q0 48 17.5 82.5t47.5 56.5t69 32.5t81 10.5h592l-69 -246h-481v-226h168q90 0 169 -35t137.5 -94.5t92 -139.5t33.5 -170t-33.5 -170t-91.5 -140t-137 -95t-170 -35z" />
    <glyph glyph-name="six" unicode="6" horiz-adv-x="1225" 
d="M625 944q97 -4 186.5 -39.5t158 -97.5t109.5 -147t41 -188q0 -104 -42.5 -190.5t-113 -149t-162 -97.5t-188.5 -35q-99 0 -191 35t-162.5 97.5t-113 149t-42.5 190.5q0 57 15.5 113.5t43.5 105.5l388 662h319zM618 245q47 0 90.5 17t77 47.5t53.5 72t20 90.5q0 48 -20 89
t-53.5 71.5t-77 47.5t-90.5 17t-90.5 -17t-76.5 -47.5t-53 -71.5t-20 -89q0 -49 20 -90.5t53 -72t76.5 -47.5t90.5 -17z" />
    <glyph glyph-name="seven" unicode="7" horiz-adv-x="1081" 
d="M293 0l388 1080h-513l-63 271h675q40 0 75.5 -15t62.5 -40.5t42.5 -60.5t15.5 -75q0 -18 -14 -71t-37.5 -129t-54 -168.5t-63.5 -190t-66 -193t-61.5 -177t-50 -142.5t-31.5 -89h-305z" />
    <glyph glyph-name="eight" unicode="8" horiz-adv-x="1102" 
d="M939 988q0 -71 -26.5 -134.5t-74.5 -114.5q75 -60 117 -142.5t42 -178.5q0 -92 -37 -168.5t-99.5 -132t-143 -86.5t-167.5 -31q-88 0 -168.5 31t-142 86.5t-98 132.5t-36.5 168q0 96 42 178.5t117 142.5q-50 51 -75.5 114.5t-25.5 134.5q0 79 32 146t85.5 115.5
t123.5 75.5t146 27t146 -27t124 -75.5t86.5 -115.5t32.5 -146zM550 1114q-29 0 -54 -10.5t-43.5 -29t-29.5 -43.5t-11 -53q0 -29 11 -54.5t29.5 -44.5t43.5 -30t54 -11t54.5 11t44.5 30t30 44.5t11 54.5q0 28 -11 53t-30 43.5t-44.5 29t-54.5 10.5zM550 239q39 0 74 14
t61.5 39t42 59t15.5 74q0 39 -15.5 73t-42 59t-61.5 39.5t-74 14.5t-73.5 -14.5t-60.5 -39.5t-41.5 -59t-15.5 -73t15.5 -73t41.5 -59t61 -39.5t73 -14.5z" />
    <glyph glyph-name="nine" unicode="9" horiz-adv-x="1151" 
d="M576 1351q97 0 182.5 -37t149.5 -101t101 -149.5t37 -182.5q0 -58 -13.5 -114t-39.5 -106q-87 -161 -180 -330.5t-180 -330.5h-297l229 410q-96 4 -180 41t-146 99.5t-98 147t-36 183.5q0 97 37 182.5t101 149.5t149.5 101t183.5 37zM571 652q46 0 86.5 18.5t70.5 50
t47.5 73t17.5 87.5q0 45 -17.5 86t-47.5 72t-70.5 49t-86.5 18t-86.5 -18t-70.5 -48.5t-47 -71.5t-17 -87q0 -47 17 -89t46.5 -73t70 -49t87.5 -18z" />
    <glyph glyph-name="colon" unicode=":" horiz-adv-x="462" 
d="M357 124q0 -26 -9.5 -49t-26.5 -40t-40 -27t-50 -10q-26 0 -49 10t-40 27t-27 40t-10 49q0 27 10 50t27 40t40 26.5t49 9.5q27 0 50 -9.5t40 -26.5t26.5 -40t9.5 -50zM357 756q0 -26 -9.5 -49t-26.5 -40t-40 -27t-50 -10q-26 0 -49 10t-40 27t-27 40t-10 49q0 27 10 50
t27 40t40 26.5t49 9.5q27 0 50 -9.5t40 -26.5t26.5 -40t9.5 -50z" />
    <glyph glyph-name="semicolon" unicode=";" horiz-adv-x="462" 
d="M357 758q0 -26 -9.5 -49t-26.5 -40t-40 -27t-50 -10q-26 0 -49 10t-40 27t-27 40t-10 49q0 27 10 50t27 40t40 26.5t49 9.5q27 0 50 -9.5t40 -26.5t26.5 -40t9.5 -50zM115 -103q88 5 131 60q20 25 20 54q0 20 -21 20q-23 -2 -38 -3q-102 0 -102 90q0 46 31 70
q31 23 66 23q70 0 109.5 -44t39.5 -114q0 -98 -64.5 -157t-161.5 -58z" />
    <glyph glyph-name="less" unicode="&#x3c;" horiz-adv-x="1126" 
d="M1021 1316v-302l-595 -302l594 -304v-300l-915 477v255z" />
    <glyph glyph-name="equal" unicode="=" horiz-adv-x="1182" 
d="M105 772v185h972v-185h-972zM105 424v185h972v-185h-972z" />
    <glyph glyph-name="greater" unicode="&#x3e;" horiz-adv-x="1125" 
d="M105 108v302l594 303l-593 303v300l914 -477v-255z" />
    <glyph glyph-name="question" unicode="?" horiz-adv-x="1119" 
d="M105 782q3 125 22 215.5t51 144.5q35 55 85.5 99.5t114.5 70.5h-1q91 37 195 37q204 0 329 -122q113 -110 113 -280q0 -72 -22 -138t-63 -120q-20 -25 -57 -63t-91 -91q-26 -26 -43 -44t-23 -29q-6 -10 -10.5 -16.5t-7.5 -21.5t-5 -43.5t-2 -81.5h-253q0 61 2 97t6 58.5
t9.5 37.5t12.5 33q13 32 38 68.5t57 71.5l99 99q91 88 91 176q0 33 -10 61.5t-31 50.5v-1q-50 51 -141 51q-121 0 -173 -91q-16 -26 -25.5 -83.5t-14.5 -145.5h-252zM427 63q0 29 10.5 54t29 43t43.5 28.5t53 10.5t53 -10.5t44 -28.5t29.5 -43t10.5 -54q0 -28 -10.5 -53
t-29.5 -43.5t-44 -29t-53 -10.5t-53 10.5t-43.5 29t-29 43.5t-10.5 53z" />
    <glyph glyph-name="at" unicode="@" horiz-adv-x="1885" 
d="M1593 242l63 -170q-234 -122 -666 -122q-333 0 -534 101q-351 178 -351 606q0 382 267 601q126 103 298 153q165 48 340 48q359 0 574 -183q196 -166 196 -427q0 -209 -125 -354q-90 -103 -253 -152q-99 -30 -195 -30q-89 0 -141 41q-18 15 -40 46q-106 -87 -212 -87
q-77 0 -145 42q-123 75 -123 245q0 164 113 309q135 174 319 174q108 0 176 -77l19 45h202l-164 -475q-18 -51 -18 -74q0 -37 66 -37q120 0 204 81q101 98 101 285q0 184 -114 296q-152 149 -438 149q-311 0 -497 -161q-91 -79 -137 -188q-53 -128 -53 -274q0 -238 135 -364
q96 -90 229 -122q138 -33 299 -33q371 0 605 108zM1019 627l46 129q22 60 22 91q0 32 -22 56q-23 25 -58 25q-77 0 -153 -101q-44 -59 -72 -148q-22 -70 -22 -120q0 -94 83 -94q118 0 176 162z" />
    <glyph glyph-name="A" unicode="A" horiz-adv-x="1419" 
d="M869 1412l535 -1412h-323l-112 316h-524l-114 -316h-317l537 1412h318zM894 541l-91 254q-63 176 -94 306q-35 -125 -99 -306l-91 -254h375z" />
    <glyph glyph-name="B" unicode="B" horiz-adv-x="1440" 
d="M164 1409h634q203 0 304 -52q94 -48 142 -139q41 -77 41 -163q0 -120 -78 -209q-43 -50 -113 -82q80 -28 121 -57q137 -100 137 -292q0 -167 -106 -278q-129 -137 -391 -137h-691v1409zM471 1167v-329h282q98 0 144 23q86 42 86 143q0 103 -84 142q-45 21 -147 21h-281z
M471 628v-386h312q133 0 187 38q72 51 72 155q0 124 -97 169q-53 24 -178 24h-296z" />
    <glyph glyph-name="C" unicode="C" horiz-adv-x="1480" 
d="M1406 544q-17 -219 -147 -374q-171 -204 -486 -204q-333 0 -520 236q-159 202 -159 504q0 315 189 527q188 210 502 210q292 0 471 -193q126 -136 140 -313h-304q-19 93 -75 154q-87 95 -238 95q-202 0 -300 -169q-75 -127 -75 -314q0 -190 78 -317q100 -163 294 -163
q170 0 255 123q53 76 68 198h307z" />
    <glyph glyph-name="D" unicode="D" horiz-adv-x="1511" 
d="M164 1409h569q180 0 294 -43q199 -77 305 -276q84 -158 84 -368q0 -361 -199 -560q-114 -113 -259 -142q-97 -20 -218 -20h-576v1409zM471 1148v-887h237q120 0 185 25q113 44 170 179q43 101 43 246q0 246 -137 356q-101 81 -272 81h-226z" />
    <glyph glyph-name="E" unicode="E" horiz-adv-x="1323" 
d="M1221 1409v-261h-750v-300h688v-242h-688v-345h764v-261h-1071v1409h1057z" />
    <glyph glyph-name="F" unicode="F" horiz-adv-x="1202" 
d="M1156 1409v-261h-685v-326h596v-242h-596v-580h-307v1409h992z" />
    <glyph glyph-name="G" unicode="G" horiz-adv-x="1540" 
d="M1407 759v-759h-197l-30 161q-159 -195 -421 -195q-323 0 -509 239q-156 200 -156 493q0 331 202 545q191 200 491 200q277 0 451 -180q130 -133 150 -318h-298q-17 85 -67 142q-87 99 -240 99q-187 0 -290 -145q-89 -126 -89 -341q0 -210 84 -333q103 -152 304 -152
q198 0 289 152q44 74 47 167h-313v225h592z" />
    <glyph glyph-name="H" unicode="H" horiz-adv-x="1519" 
d="M1355 1409v-1409h-307v613h-577v-613h-307v1409h307v-535h577v535h307z" />
    <glyph glyph-name="I" unicode="I" horiz-adv-x="635" 
d="M471 1409v-1409h-307v1409h307z" />
    <glyph glyph-name="J" unicode="J" horiz-adv-x="1102" 
d="M958 1409v-948q0 -139 -25 -219q-43 -138 -167 -212q-107 -64 -271 -64q-300 0 -412 203q-58 105 -58 300q0 28 1 58h285q0 -152 12 -198q27 -114 163 -114q96 0 135 61q30 49 30 174v959h307z" />
    <glyph glyph-name="K" unicode="K" horiz-adv-x="1452" 
d="M1413 1409l-553 -557l605 -852h-389l-427 633l-178 -178v-455h-307v1409h307v-420q0 -29 -3 -177q92 108 119 136l436 461h390z" />
    <glyph glyph-name="L" unicode="L" horiz-adv-x="1203" 
d="M1160 261v-261h-996v1409h307v-1148h689z" />
    <glyph glyph-name="M" unicode="M" horiz-adv-x="1850" 
d="M1686 1409v-1409h-292v422q0 340 19 714q-68 -273 -144 -493l-220 -643h-242l-226 630q-75 208 -143 500q18 -414 18 -675v-455h-292v1409h438l211 -612q68 -200 117 -446q43 214 121 449l201 609h434z" />
    <glyph glyph-name="N" unicode="N" horiz-adv-x="1519" 
d="M1355 1409v-1409h-310l-420 680q-98 162 -109 181q-33 58 -69 135q13 -159 13 -396v-600h-296v1409h314l409 -665q126 -205 185 -325q-13 219 -13 403v587h296z" />
    <glyph glyph-name="O" unicode="O" horiz-adv-x="1578" 
d="M801 1443q281 0 472 -185q210 -205 210 -554q0 -300 -159 -497q-194 -241 -532 -241q-345 0 -542 246q-155 194 -155 491q0 350 201 546q199 194 505 194zM796 1186q-181 0 -285 -129q-106 -130 -106 -352q0 -224 104 -354q55 -68 144 -102q67 -26 141 -26q169 0 267 118
q112 135 112 368q0 218 -103 348q-102 129 -274 129z" />
    <glyph glyph-name="P" unicode="P" horiz-adv-x="1355" 
d="M164 1409h568q162 0 255 -25q138 -37 223 -156q81 -112 81 -272q0 -221 -152 -346q-80 -67 -189 -88q-71 -14 -163 -14h-316v-508h-307v1409zM471 1148v-398h275q121 0 175 44q67 54 67 157q0 107 -77 159q-56 38 -182 38h-258z" />
    <glyph glyph-name="Q" unicode="Q" horiz-adv-x="1552" 
d="M1472 19l-145 -155l-207 187q-138 -85 -342 -85q-217 0 -383 109q-153 100 -234 285q-67 151 -67 344q0 333 201 538q197 201 497 201q320 0 510 -221q178 -207 178 -509q0 -216 -81 -378q-45 -89 -109 -151zM1075 383q95 128 95 325q0 212 -97 342q-103 136 -286 136
q-179 0 -283 -134q-100 -129 -100 -346q0 -223 104 -352q105 -131 280 -131q69 0 130 21l-140 123l144 154z" />
    <glyph glyph-name="R" unicode="R" horiz-adv-x="1498" 
d="M160 1409h682q202 0 310 -64q184 -108 184 -335q0 -160 -98 -263q-52 -55 -126 -82q93 -23 146 -104q40 -61 55 -165q5 -30 20 -197q13 -147 42 -183l13 -16h-321q-12 23 -21 63q-7 32 -21 227q-14 174 -99 228q-57 36 -182 36h-277v-554h-307v1409zM467 1167v-388h293
q142 0 200 40q73 51 73 155q0 124 -99 169q-54 24 -160 24h-307z" />
    <glyph glyph-name="S" unicode="S" horiz-adv-x="1334" 
d="M1192 992h-293q-20 212 -266 212q-93 0 -150 -31q-80 -43 -80 -131q0 -70 58 -101q56 -31 283 -87q239 -59 332 -120q171 -112 171 -311q0 -220 -171 -346q-152 -111 -409 -111q-362 0 -518 207q-89 117 -94 298h306q7 -117 61 -175q85 -90 256 -90q116 0 182 46
q77 52 77 141q0 90 -107 132q-58 22 -277 83q-157 43 -247 85q-99 45 -150 132q-49 82 -49 195q0 203 169 322q143 101 373 101q200 0 337 -80q196 -115 206 -371z" />
    <glyph glyph-name="T" unicode="T" horiz-adv-x="1227" 
d="M1194 1409v-261h-428v-1148h-307v1148h-426v261h1161z" />
    <glyph glyph-name="U" unicode="U" horiz-adv-x="1491" 
d="M1348 1409v-833q0 -180 -33 -278q-111 -332 -567 -332q-246 0 -386 90q-148 94 -194 268q-25 92 -25 256v829h307v-849q0 -161 47 -231q72 -107 257 -107q173 0 239 101q48 73 48 237v849h307z" />
    <glyph glyph-name="V" unicode="V" horiz-adv-x="1308" 
d="M1294 1409l-469 -1409h-349l-462 1409h322l184 -569q39 -124 94 -350q23 -92 40 -196q18 102 44 203q62 245 93 341l183 571h320z" />
    <glyph glyph-name="W" unicode="W" horiz-adv-x="1904" 
d="M1881 1409l-382 -1409h-308l-153 603q-49 197 -89 471q-32 -235 -88 -463l-150 -611h-312l-376 1409h309l139 -592q66 -280 90 -514q12 115 31 215q39 208 62 297l153 594h291l149 -580q5 -19 61 -298q18 -87 34 -228q28 256 96 538l136 568h307z" />
    <glyph glyph-name="X" unicode="X" horiz-adv-x="1357" 
d="M1310 1409l-453 -672l494 -737h-370l-210 334q-55 87 -96 177q-39 -79 -103 -178l-213 -333h-352l498 737l-459 672h360l171 -277q69 -111 107 -199q46 94 105 188l180 288h341z" />
    <glyph glyph-name="Y" unicode="Y" horiz-adv-x="1320" 
d="M1339 1409l-525 -866v-543h-307v547l-526 862h351l220 -375q56 -97 112 -231q68 159 118 244l213 362h344z" />
    <glyph glyph-name="Z" unicode="Z" horiz-adv-x="1302" 
d="M1222 1409v-235l-630 -752q-22 -26 -157 -168q188 7 283 7h529v-261h-1192v247l650 773q33 39 127 134q-152 -6 -254 -6h-471v261h1115z" />
    <glyph glyph-name="bracketleft" unicode="[" horiz-adv-x="721" 
d="M616 1409v-203h-252v-1365h252v-203h-511v1771h511z" />
    <glyph glyph-name="backslash" unicode="\" horiz-adv-x="1032" 
d="M359 1409l568 -1409h-256l-566 1409h254z" />
    <glyph glyph-name="bracketright" unicode="]" horiz-adv-x="721" 
d="M105 -362v203h252v1365h-252v203h511v-1771h-511z" />
    <glyph glyph-name="asciicircum" unicode="^" horiz-adv-x="1197" 
d="M374 745h-269l325 672h337l325 -672h-270l-224 467z" />
    <glyph glyph-name="underscore" unicode="_" horiz-adv-x="1267" 
d="M105 -211h1057v-117h-1057v117z" />
    <glyph glyph-name="grave" unicode="`" horiz-adv-x="683" 
d="M105 1461h295l178 -284h-188z" />
    <glyph glyph-name="a" unicode="a" horiz-adv-x="1120" 
d="M1068 0h-285q-18 56 -18 99q-131 -127 -337 -127q-163 0 -253 73q-104 85 -104 236q0 192 178 267q73 30 266 55q175 22 216 47q32 19 32 76q0 135 -183 135q-116 0 -162 -53q-28 -33 -39 -101h-265q13 160 123 248q118 95 350 95q242 0 360 -97q71 -59 84 -154
q5 -34 5 -106q0 -21 -3 -206q-2 -178 -2 -211q0 -132 12 -197q7 -38 25 -79zM761 497q-31 -18 -61 -27q-37 -11 -135 -26q-101 -15 -144 -38q-63 -34 -63 -115q0 -67 46 -105q39 -33 111 -33q122 0 199 85q34 37 42 80q5 28 5 64v115z" />
    <glyph glyph-name="b" unicode="b" horiz-adv-x="1285" 
d="M435 1409v-512q115 154 323 154q132 0 242 -78q195 -139 195 -451q0 -221 -105 -370q-127 -180 -349 -180q-214 0 -319 158v-130h-266v1409h279zM673 827q-114 0 -181 -84q-67 -83 -67 -231q0 -130 54 -215q65 -102 193 -102q123 0 186 103q55 90 55 215q0 151 -71 236
q-65 78 -169 78z" />
    <glyph glyph-name="c" unicode="c" horiz-adv-x="1169" 
d="M1102 392q-22 -154 -105 -255q-137 -165 -386 -165q-257 0 -399 171q-121 144 -121 359q0 263 161 415q141 133 363 133q260 0 391 -162q76 -93 89 -224h-275q-13 67 -48 108q-57 67 -155 67q-130 0 -194 -108q-50 -86 -50 -222q0 -138 51 -223q63 -103 187 -103
q186 0 218 209h273z" />
    <glyph glyph-name="d" unicode="d" horiz-adv-x="1284" 
d="M1128 1409v-1409h-266v131q-102 -159 -309 -159q-213 0 -340 152q-123 147 -123 391q0 230 109 371q126 164 339 164q211 0 311 -154v513h279zM617 826q-114 0 -178 -80q-67 -82 -67 -235q0 -146 65 -233q63 -83 178 -83q117 0 180 83q64 84 64 232q0 153 -69 236
q-65 80 -173 80z" />
    <glyph glyph-name="e" unicode="e" horiz-adv-x="1190" 
d="M1092 317q-21 -85 -80 -162q-138 -183 -398 -183q-236 0 -377 144q-70 70 -107 170q-39 105 -39 219q0 223 132 376q148 169 382 169q242 0 382 -175q122 -151 122 -395v-42h-733q2 -76 24 -127q56 -138 216 -138q105 0 163 68q25 29 45 76h268zM824 617q-8 76 -35 125
q-31 55 -89 84q-44 22 -96 22q-118 0 -183 -98q-35 -53 -44 -133h447z" />
    <glyph glyph-name="f" unicode="f" horiz-adv-x="707" 
d="M681 1409v-206q-53 5 -96 5q-85 0 -108 -31q-16 -23 -16 -74v-81h203v-189h-200v-833h-279v833h-166v189h166v53q0 96 13 145q53 195 335 195q42 0 148 -6z" />
    <glyph glyph-name="g" unicode="g" horiz-adv-x="1262" 
d="M1106 1022v-895q0 -126 -18 -203q-32 -138 -147 -218q-125 -87 -340 -87q-437 0 -478 320h281q30 -131 203 -131q135 0 187 75q42 61 42 189v117q-106 -158 -311 -158q-197 0 -316 134q-120 135 -120 368q0 232 120 372q125 145 326 145q129 0 216 -64q44 -32 89 -100
v136h266zM607 832q-126 0 -187 -96q-49 -78 -49 -196q0 -154 71 -233q62 -69 161 -69q125 0 188 103q47 78 47 198q0 150 -74 228q-60 65 -157 65z" />
    <glyph glyph-name="h" unicode="h" horiz-adv-x="1272" 
d="M435 1409v-401q0 -10 -2 -125q48 65 93 97q100 70 231 70q214 0 305 -144q54 -85 54 -257v-649h-279v601q0 114 -32 157q-48 64 -149 64q-134 0 -192 -113q-21 -42 -26 -100q-3 -40 -3 -109v-500h-279v1409h279z" />
    <glyph glyph-name="i" unicode="i" horiz-adv-x="580" 
d="M431 1022v-1022h-279v1022h279zM140 1281q0 30 11.5 56.5t32 47t47.5 32t57 11.5t56.5 -11.5t46.5 -32t31.5 -47t11.5 -56.5t-11.5 -57t-31.5 -47t-46.5 -31.5t-56.5 -11.5t-57 11.5t-47.5 31.5t-32 47t-11.5 57z" />
    <glyph glyph-name="j" unicode="j" horiz-adv-x="588" 
d="M439 1022v-1023l2 -78q0 -111 -54 -186q-76 -106 -288 -106q-45 0 -111 6v225q31 -2 52 -2q56 0 80 13q33 17 38 85q2 25 2 130v936h279zM148 1281q0 30 11.5 56.5t32 47t47.5 32t57 11.5t56.5 -11.5t46.5 -32t31.5 -47t11.5 -56.5t-11.5 -57t-31.5 -47t-46.5 -31.5
t-56.5 -11.5t-57 11.5t-47.5 31.5t-32 47t-11.5 57z" />
    <glyph glyph-name="k" unicode="k" horiz-adv-x="1189" 
d="M1126 1022l-385 -379l429 -643h-339l-282 454l-114 -106v-348h-279v1409h279v-609q0 -38 -3 -160q47 60 72 86l290 296h332z" />
    <glyph glyph-name="l" unicode="l" horiz-adv-x="591" 
d="M435 1409v-1409h-279v1409h279z" />
    <glyph glyph-name="m" unicode="m" horiz-adv-x="1862" 
d="M422 1022v-140q52 70 104 105q95 63 221 63q205 0 286 -169q125 169 336 169q194 0 285 -133q59 -86 59 -229v-688h-279v610q0 99 -22 139q-39 73 -142 73q-125 0 -175 -103q-22 -46 -22 -164v-555h-279v623q0 91 -22 132q-37 67 -133 67q-76 0 -130 -45
q-55 -44 -67 -124q-7 -41 -7 -98v-555h-279v1022h266z" />
    <glyph glyph-name="n" unicode="n" horiz-adv-x="1264" 
d="M422 1022v-143q48 64 91 95q104 77 250 77q131 0 222 -63q98 -69 121 -204q9 -49 9 -141v-643h-279v587q0 100 -18 145q-16 41 -57 64q-46 26 -104 26q-95 0 -156 -60q-45 -43 -58 -115q-8 -43 -8 -118v-529h-279v1022h266z" />
    <glyph glyph-name="o" unicode="o" horiz-adv-x="1237" 
d="M630 1050q229 0 374 -148q144 -146 144 -390q0 -251 -153 -400q-144 -140 -374 -140q-246 0 -391 155q-139 148 -139 384q0 232 135 377q150 162 404 162zM622 843q-118 0 -183 -88q-66 -89 -66 -246q0 -159 66 -244q67 -86 182 -86q109 0 173 79q72 87 72 254
q0 155 -63 241q-67 90 -181 90z" />
    <glyph glyph-name="p" unicode="p" horiz-adv-x="1285" 
d="M422 1022v-128q112 156 318 156q203 0 330 -150q125 -148 125 -395q0 -228 -111 -372q-123 -161 -334 -161q-201 0 -315 154v-488h-279v1384h266zM673 827q-118 0 -183 -83q-65 -82 -65 -233q0 -153 68 -236q65 -80 179 -80q112 0 175 80q66 85 66 233q0 152 -67 238
q-63 81 -173 81z" />
    <glyph glyph-name="q" unicode="q" horiz-adv-x="1284" 
d="M1130 1022v-1384h-279v490q-113 -156 -315 -156q-213 0 -336 162q-108 143 -108 371q0 249 128 399q124 146 328 146q214 0 316 -154v126h266zM616 827q-116 0 -177 -84q-65 -89 -65 -239q0 -143 64 -228q62 -81 178 -81q112 0 176 81q68 86 68 239q0 150 -65 231
q-67 81 -179 81z" />
    <glyph glyph-name="r" unicode="r" horiz-adv-x="819" 
d="M815 1039v-259q-71 12 -109 12q-155 0 -230 -127q-41 -71 -41 -238v-427h-279v1022h266v-189q112 210 330 210q26 0 63 -4z" />
    <glyph glyph-name="s" unicode="s" horiz-adv-x="1089" 
d="M966 724h-261q-9 54 -31 82q-44 55 -160 55q-93 0 -134 -42q-22 -22 -22 -59q0 -36 21 -57q24 -23 63 -34q62 -17 166 -38q203 -41 293 -101q107 -70 107 -214q0 -164 -132 -255q-128 -89 -342 -89q-456 0 -480 361h267q8 -71 38 -107q54 -65 179 -65q112 0 161 56
q27 31 27 71q0 44 -29 68q-28 23 -74 37q-55 15 -126 31q-167 38 -219 56q-202 72 -202 258q0 160 136 244q111 68 308 68q261 0 375 -129q62 -70 71 -197z" />
    <glyph glyph-name="t" unicode="t" horiz-adv-x="728" 
d="M659 1022v-189h-208v-482q0 -89 16 -113q24 -34 108 -34q37 0 84 6v-214q-94 -10 -172 -10q-120 0 -182 26q-98 42 -123 153q-10 47 -10 196v472h-171v189h171v308h279v-308h208z" />
    <glyph glyph-name="u" unicode="u" horiz-adv-x="1233" 
d="M1077 1022v-1022h-266v145q-120 -173 -323 -173q-181 0 -273 122q-66 88 -66 281v647h279v-564q0 -146 25 -189q41 -69 139 -69q124 0 179 115q27 56 27 200v507h279z" />
    <glyph glyph-name="v" unicode="v" horiz-adv-x="1032" 
d="M1023 1022l-347 -1022h-314l-353 1022h294l130 -409q59 -187 90 -357q26 141 91 350l129 416h280z" />
    <glyph glyph-name="w" unicode="w" horiz-adv-x="1624" 
d="M1606 1022l-324 -1022h-289l-119 446q-32 120 -63 311q-32 -188 -63 -310l-114 -447h-291l-325 1022h296l108 -388q39 -141 83 -375q35 207 79 386l94 377h272l107 -421q37 -148 69 -340q40 216 72 335l118 426h290z" />
    <glyph glyph-name="x" unicode="x" horiz-adv-x="1071" 
d="M1028 1022l-337 -476l379 -546h-322l-148 222q-21 33 -67 125q-43 -83 -71 -127l-143 -220h-318l371 539l-338 483h321l109 -163q19 -28 71 -124q54 92 79 131l102 156h312z" />
    <glyph glyph-name="y" unicode="y" horiz-adv-x="1072" 
d="M1062 1022l-375 -1017q-71 -194 -119 -254q-85 -107 -224 -114q-65 -3 -120 -2l-115 3v231h32h81q92 0 128 37q32 32 32 92q0 40 -9 63l-364 961h302l169 -501q27 -77 64 -238q43 169 70 251l158 488h290z" />
    <glyph glyph-name="z" unicode="z" horiz-adv-x="1026" 
d="M962 1022v-205l-419 -475q-37 -42 -131 -129q97 5 143 5h442v-218h-940v212l409 458q39 44 143 137q-63 -3 -104 -3h-407v218h864z" />
    <glyph glyph-name="braceleft" unicode="{" horiz-adv-x="793" 
d="M361 523q78 -48 103 -118q19 -51 19 -138v-192q3 -122 13 -148q21 -56 69 -72q44 -14 96 -14h27v-203h-11q-224 2 -265 11q-123 28 -165 134q-24 61 -24 162v273q0 100 -31 140q-30 38 -87 51v242q60 14 88 52q30 41 30 125v287q0 174 95 242q58 42 139 47q45 3 220 5h11
v-203h-27q-104 0 -139 -45q-32 -38 -36 -107q-3 -43 -3 -92v-186q0 -117 -37 -177q-24 -39 -85 -76z" />
    <glyph glyph-name="bar" unicode="|" horiz-adv-x="515" 
d="M105 1409h305v-1761h-305v1761z" />
    <glyph glyph-name="braceright" unicode="}" horiz-adv-x="793" 
d="M432 524q-53 33 -75 65q-46 67 -46 191v192q-3 122 -13 148q-21 56 -70 72q-43 14 -96 14h-27v203h12q224 -2 265 -11q122 -28 164 -135q24 -61 24 -161v-273q0 -100 31 -140q30 -38 87 -51v-242q-60 -14 -88 -52q-30 -41 -30 -125v-288q0 -172 -94 -241
q-58 -42 -139 -47q-45 -3 -221 -5h-11v203h28q103 0 139 44q31 38 36 108q3 42 3 92v186q0 117 37 177q23 38 84 76z" />
    <glyph glyph-name="asciitilde" unicode="~" horiz-adv-x="1162" 
d="M211 546l-106 88q105 246 278 246q64 0 227 -70q97 -42 117 -49q32 -9 59 -9q90 0 165 118l106 -88q-48 -108 -95 -158q-83 -87 -193 -87q-33 0 -78 14q-41 12 -153 62q-111 50 -168 50q-84 0 -159 -117z" />
    <glyph glyph-name="delete" horiz-adv-x="1600" 
d="M1520 129h-366v586h78v-517h288v-69zM1080 129h-438v586h424v-69h-346v-179h324v-69h-324v-200h360v-69zM572 425q0 -126 -56 -203q-46 -64 -123 -83q-41 -10 -95 -10h-211v586h202q68 0 104 -8q112 -26 156 -142q23 -61 23 -140zM492 427q0 167 -104 207q-31 12 -100 12
h-124v-448h126q102 0 143 41q59 59 59 188z" />
    <glyph glyph-name="exclamdown.001" unicode="&#xa1;" horiz-adv-x="682" 
d="M488 1062v-281h-282v281h282zM426 678l73 -741v-344h-304v344l73 741h158z" />
    <glyph glyph-name="cent" unicode="&#xa2;" horiz-adv-x="1139" 
d="M744 811l-182 -602q22 -4 45 -4q79 0 130.5 45.5t72.5 156.5l276 -47q-43 -190 -165 -287t-326 -97q-50 0 -101 7l-117 -386l-122 34l116 385q-138 60 -212.5 196.5t-74.5 322.5q0 259 139 405t375 146q45 0 94 -6l113 376l123 -35l-112 -371q189 -72 256 -302l-277 -50
q-12 72 -51 113zM627 864q-13 1 -24 1q-106 0 -168.5 -73t-62.5 -243q0 -194 76 -280z" />
    <glyph glyph-name="sterling" unicode="&#xa3;" horiz-adv-x="1139" 
d="M999 285l108 -238q-57 -31 -131.5 -50.5t-144.5 -19.5q-90 0 -240 42.5t-222 42.5q-122 0 -249 -87l-107 242q113 81 162.5 172.5t49.5 174.5q0 27 -4 57h-208v221h157q-41 118 -41 239q0 109 59.5 208t168.5 150.5t238 51.5q197 0 314 -99.5t143 -285.5l-271 -40
q-19 107 -69 154t-125 47q-80 0 -133 -53.5t-53 -134.5q0 -42 14.5 -111t35.5 -126h312v-221h-266q3 -22 3 -44q0 -79 -30 -146t-123 -176q55 28 138 28q35 0 63 -4q14 -2 82 -19q121 -31 165 -31q78 0 204 56z" />
    <glyph glyph-name="currency" unicode="&#xa4;" horiz-adv-x="1139" 
d="M177 941l-132 131l166 178l136 -136q53 29 107.5 43t110.5 14q57 0 112 -14t107 -43l134 134l167 -169l-132 -133q28 -51 42 -105.5t14 -112.5q0 -57 -14 -111.5t-42 -106.5l134 -133l-167 -171l-136 136q-50 -28 -104.5 -42.5t-113.5 -14.5q-56 0 -110 14t-106 42
l-130 -131l-170 168l130 132q-28 52 -42.5 106.5t-14.5 111.5t13.5 110.5t40.5 102.5zM364 728q0 -84 59.5 -143t142.5 -59q84 0 143 59t59 143t-59 143t-143 59t-143 -59t-59 -143z" />
    <glyph glyph-name="idieresis" unicode="&#xa5;" horiz-adv-x="1139" 
d="M422 273h-371v221h371v120h-371v221h261l-311 631h308l200 -426q38 -80 54 -141q19 66 54 141l204 426h308l-315 -631h265v-221h-376v-120h376v-221h-376v-273h-281v273z" />
    <glyph glyph-name="brokenbar" unicode="&#xa6;" horiz-adv-x="573" 
d="M176 701v790h223v-790h-223zM176 -431v791h223v-791h-223z" />
    <glyph glyph-name="section" unicode="&#xa7;" horiz-adv-x="1139" 
d="M986 1154l-275 -29q-4 74 -43.5 113t-109.5 39q-65 0 -99 -28.5t-34 -64.5q0 -49 46 -94q31 -30 205 -142t230 -160q87 -73 124.5 -144.5t37.5 -158.5q0 -93 -45.5 -171.5t-136.5 -142.5q61 -56 91 -119.5t30 -134.5q0 -148 -111 -248t-319 -100q-200 0 -320 99t-142 264
l274 33q18 -90 68.5 -135.5t127.5 -45.5q66 0 105 34.5t39 83.5q0 47 -37 84q-38 37 -266.5 182.5t-297.5 241.5t-69 215q0 98 45 182t140 138q-50 54 -75.5 110t-25.5 114q0 135 105.5 228.5t296.5 93.5q196 0 308.5 -93.5t132.5 -243.5zM735 293q44 40 65.5 76.5
t21.5 70.5q0 33 -23 68t-126 110l-273 198q-34 -20 -60 -57t-26 -79q0 -101 135 -192z" />
    <glyph glyph-name="dieresis.001" unicode="&#xa8;" horiz-adv-x="682" 
d="M5 1250v241h241v-241h-241zM435 1250v241h242v-241h-242z" />
    <glyph glyph-name="copyright" unicode="&#xa9;" horiz-adv-x="1681" 
d="M1209 617q-13 -134 -86 -217q-103 -118 -291 -118q-200 0 -310 133q-92 113 -92 289q0 190 118 311q110 113 292 113q178 0 281 -104q72 -73 81 -171h-132q-14 64 -57 105q-65 62 -176 62q-145 0 -219 -111q-56 -85 -56 -204q0 -127 59 -211q72 -104 217 -104
q212 0 240 227h131zM851 1441q197 0 374 -109t271 -293q80 -158 80 -335q0 -207 -108 -384t-293 -271q-157 -81 -334 -81q-207 0 -383 108q-177 108 -272 294q-81 158 -81 333q0 209 108 387q106 175 295 271q157 80 343 80zM849 1338q-265 0 -449 -184q-88 -89 -136 -207
q-48 -117 -48 -244q0 -177 93 -330q92 -152 249 -233q134 -69 283 -69q258 0 441 185q183 186 183 449q0 178 -92 331q-89 150 -248 233q-132 69 -276 69z" />
    <glyph glyph-name="ocircumflex" unicode="&#xaa;" horiz-adv-x="758" 
d="M254 1252l-189 38q23 99 92.5 150t210.5 51q147 0 222 -39q49 -25 73 -89q15 -40 15 -154v-239q0 -104 6.5 -139.5t23.5 -69.5h-190q-13 26 -23 71q-88 -89 -216 -89q-114 0 -178 60.5t-64 155.5q0 68 31.5 115t92.5 74q45 19 188 47q79 16 125 33q0 14 -1 21
q-1 49 -18 64q-24 21 -83 21q-52 0 -78 -17q-19 -13 -40 -65zM474 1095q-22 -13 -62 -21q-108 -23 -128 -35q-40 -25 -40 -65q0 -31 27 -56t70 -25q58 0 95.5 41.5t37.5 120.5v40z" />
    <glyph glyph-name="yen" unicode="&#xab;" horiz-adv-x="1139" 
d="M633 983l-260 -451l260 -462h-221l-316 462l316 451h221zM1025 983l-259 -451l259 -462h-221l-316 462l316 451h221z" />
    <glyph glyph-name="registered" unicode="&#xac;" horiz-adv-x="1196" 
d="M853 376v441h-768v257h1025v-698h-257z" />
    <glyph glyph-name="hyphen" unicode="&#xad;" horiz-adv-x="682" 
d="M115 391v281h552v-281h-552z" />
    <glyph glyph-name="registered.003" unicode="&#xae;" horiz-adv-x="1096" 
d="M360 1409h227q63 0 99 -21q63 -36 63 -109t-65 -109q29 -18 40 -39q10 -20 14 -62q6 -70 11 -87q6 -18 29 -38h-97q-15 22 -17 62q-4 85 -21 108q-18 24 -85 24h-118v-194h-80v465zM440 1341v-138h111q64 0 87 13q31 17 31 57q0 48 -41 61q-20 7 -60 7h-128zM555 1619
q189 0 322 -147q114 -125 114 -295q0 -198 -146 -329q-127 -114 -297 -114q-198 0 -329 146q-114 126 -114 300q0 191 147 325q125 114 303 114zM554 1553q-172 0 -286 -125q-97 -106 -97 -248q0 -172 125 -283q107 -97 252 -97q168 0 280 124q97 107 97 253q0 166 -125 279
q-107 97 -246 97z" />
    <glyph glyph-name="ydieresis" unicode="&#xaf;" horiz-adv-x="1131" 
d="M-19 1552v183h1168v-183h-1168z" />
    <glyph glyph-name="degree.001" unicode="&#xb0;" horiz-adv-x="819" 
d="M86 1172q0 133 93.5 226t225.5 93t225.5 -93.5t93.5 -225.5t-93.5 -225.5t-225.5 -93.5t-225.5 93.5t-93.5 225.5zM252 1172q0 -63 45 -108t108 -45t108 45t45 108t-45 108t-108 45t-108 -45t-45 -108z" />
    <glyph glyph-name="plusminus" unicode="&#xb1;" horiz-adv-x="1124" 
d="M434 356v381h-384v263h384v381h256v-381h385v-263h-385v-381h-256zM50 0v263h1025v-263h-1025z" />
    <glyph glyph-name="twosuperior" unicode="&#xb2;" horiz-adv-x="682" 
d="M632 885v-158h-607q11 85 54.5 152t194.5 186q114 89 137 118q31 38 31 77q0 37 -25 59t-76 22t-76 -24.5t-31 -90.5l-189 16q15 117 75 171q80 71 226 71q139 0 212.5 -64t73.5 -151q0 -54 -23 -102.5t-73 -100.5q-26 -26 -135 -112q-58 -45 -83 -69h314z" />
    <glyph glyph-name="threesuperior.001" unicode="&#xb3;" horiz-adv-x="682" 
d="M40 946l184 20q8 -55 37 -81.5t76 -26.5q49 0 79 30t30 78q0 43 -28.5 71t-74.5 28q-30 0 -91 -15l23 146q52 -1 81.5 10.5t42 29t12.5 39.5q0 29 -21 47.5t-62 18.5t-66 -22.5t-33 -75.5l-178 26q25 103 74 147q76 68 208 68q124 0 196.5 -62t72.5 -142q0 -38 -21 -70
q-28 -45 -76 -74q67 -24 101.5 -70.5t34.5 -108.5q0 -95 -84 -168.5t-221 -73.5q-128 0 -205 63t-91 168z" />
    <glyph glyph-name="bullet" unicode="&#xb4;" horiz-adv-x="663" 
d="M105 1192l138 299h315l-275 -299h-178z" />
    <glyph glyph-name="micro" unicode="&#xb5;" horiz-adv-x="1180" 
d="M111 1062h279v-481q0 -208 42 -283q53 -97 157 -97q56 0 106 36t74 100t24 241v484h284v-1062h-262v128q-30 -56 -57 -84t-72.5 -49t-83.5 -21q-71 0 -126 39q-39 29 -86 115v-535h-279v1469z" />
    <glyph glyph-name="paragraph.001" unicode="&#xb6;" horiz-adv-x="1153" 
d="M501 -397v1064q-19 -1 -31 -1q-112 0 -203 55q-76 45 -119 127q-43 84 -43 185q0 127 65 224q68 100 194 133q72 19 184 19h500v-113h-92v-1693h-137v1693h-181v-1693h-137z" />
    <glyph glyph-name="glyph126" unicode="&#xb7;" horiz-adv-x="569" 
d="M147 573v281h281v-281h-281z" />
    <glyph glyph-name="cedilla" unicode="&#xb8;" horiz-adv-x="682" 
d="M38 -403v118q103 -11 189 -11q89 0 132 32q33 24 33 62q0 34 -31 59t-96 25q-64 0 -131 -20l26 99q78 27 168 27q125 0 190 -55t65 -134q0 -88 -72 -143q-97 -75 -278 -75q-129 0 -195 16z" />
    <glyph glyph-name="onesuperior" unicode="&#xb9;" horiz-adv-x="682" 
d="M495 727h-190v513q-94 -65 -214 -98v155q95 27 172 87q54 42 78 100h154v-757z" />
    <glyph glyph-name="ordmasculine.001" unicode="&#xba;" horiz-adv-x="748" 
d="M26 1115q0 178 94.5 277t252.5 99q157 0 252 -99.5t95 -276.5t-94.5 -276t-252.5 -99t-252.5 98.5t-94.5 276.5zM237 1113q0 -110 37 -156.5t96 -46.5t96.5 46.5t37.5 156.5t-37.5 156.5t-96.5 46.5t-96 -46t-37 -157z" />
    <glyph glyph-name="trademark" unicode="&#xbb;" horiz-adv-x="1139" 
d="M498 70l260 452l-260 461h221l316 -461l-316 -452h-221zM106 70l260 452l-260 461h221l316 -461l-316 -452h-221z" />
    <glyph glyph-name="onequarter" unicode="&#xbc;" horiz-adv-x="1708" 
d="M496 727h-190v513q-94 -65 -214 -98v155q95 27 172 87q54 42 78 100h154v-757zM499 -54h-159l869 1538h159zM1403 -42v146h-360v141l382 470h156v-466h107v-145h-107v-146h-178zM1403 249v225l-183 -225h183z" />
    <glyph glyph-name="macron" unicode="&#xbf;" horiz-adv-x="683" 
d="M603 1297h-521v108h521v-108z" />
    <glyph glyph-name="degree" unicode="&#xc1;" horiz-adv-x="768" 
d="M713 1139q0 -126 -89.5 -215.5t-215.5 -89.5q-127 0 -216 89t-89 216t89 216t216 89q128 0 216.5 -88.5t88.5 -216.5zM649 1139q0 101 -70 171t-171 70q-100 0 -170.5 -70.5t-70.5 -170.5q0 -101 70 -171t171 -70q100 0 170.5 70.5t70.5 170.5z" />
    <glyph glyph-name="dieresis" unicode="&#xc2;" horiz-adv-x="683" 
d="M626 1350q0 -42 -29.5 -71.5t-71.5 -29.5t-71.5 29.5t-29.5 71.5q0 41 29 71t70 30q43 0 73 -29t30 -72zM262 1351q0 -42 -29.5 -71.5t-71.5 -29.5t-71 29.5t-29 71.5q0 41 29 70.5t70 29.5q43 0 72.5 -28.5t29.5 -71.5z" />
    <glyph glyph-name="acute" unicode="&#xc7;" horiz-adv-x="683" 
d="M379 1177h-188l178 284h295z" />
    <glyph glyph-name="ordfeminine" unicode="&#xc8;" horiz-adv-x="640" 
d="M628 896q-100 -100 -164 -100q-57 0 -57 68v95q-154 -160 -245 -160q-53 0 -88.5 39.5t-35.5 93.5q0 138 369 310v68q0 95 -78 95q-79 0 -131 -74q-44 -64 -50 -148h-46v157q151 101 288 101q117 0 117 -93v-434q0 -38 24 -38q33 0 97 58v-38zM413 1183q-96 -20 -173 -67
q-101 -62 -101 -142q0 -90 91 -90q96 0 145 108q36 81 38 191z" />
    <glyph glyph-name="dagger" unicode="&#xca;" horiz-adv-x="896" 
d="M808 844h-45q-5 63 -118 94l-171 47q20 -162 95 -334q-79 -313 -95 -978h-53q-18 626 -95 978q72 164 95 334l-134 -36q-72 -19 -98 -32q-55 -27 -60 -73h-42v338h42q8 -70 149 -105l143 -36l-34 192q-20 113 -28 134q-28 78 -93 82v45h360v-45q-62 0 -91 -77
q-10 -28 -27 -128l-34 -203l121 30q161 40 168 111h45v-338z" />
    <glyph glyph-name="questiondown" unicode="&#xcb;" horiz-adv-x="917" 
d="M603 886q0 -50 -35 -85t-85 -35t-84.5 35t-34.5 85q0 49 34 84t83 35q51 0 86.5 -34t35.5 -85zM782 -180q-273 -151 -505 -151q-121 0 -197 51q-90 59 -90 174q0 95 68 190q39 53 141 151q123 117 168 192q63 105 64 243h100q-2 -154 -43 -261q-37 -95 -138 -227
q-142 -187 -142 -284q0 -79 49.5 -125.5t129.5 -46.5q144 0 239 130q84 115 90 266h66v-302z" />
    <glyph glyph-name="quoteright" unicode="&#xcd;" horiz-adv-x="512" 
d="M111 794q-9 13 51 112q63 106 125 166q-62 56 -125 162q-58 99 -51 114q10 17 242 -170q62 -50 57 -106q5 -60 -57 -109q-210 -171 -239 -171q-3 0 -3 2z" />
    <glyph glyph-name="icircumflex" unicode="&#xd3;" horiz-adv-x="555" 
d="M517 129h-458v48q84 2 118.5 37t34.5 119v547q0 63 -72 63q-26 0 -57 -13q-17 -7 -24 -9v51l256 101h49v-740q0 -84 34.5 -119t118.5 -37v-48zM545 1234h-66l-214 126l-211 -126h-68l279 242z" />
    <glyph glyph-name="edieresis" unicode="&#xd4;" horiz-adv-x="896" 
d="M1058 317q-21 -85 -80 -162q-138 -183 -398 -183q-236 0 -377 144q-70 70 -107 170q-39 105 -39 219q0 223 132 376q148 169 382 169q242 0 382 -175q122 -151 122 -395v-42h-733q2 -76 24 -127q56 -138 216 -138q105 0 163 68q25 29 45 76h268zM790 617q-8 76 -35 125
q-31 55 -89 84q-44 22 -96 22q-118 0 -183 -98q-35 -53 -44 -133h447zM766 1350q0 -42 -29.5 -71.5t-71.5 -29.5t-71.5 29.5t-29.5 71.5q0 41 29 71t70 30q43 0 73 -29t30 -72zM402 1351q0 -42 -29.5 -71.5t-71.5 -29.5t-71 29.5t-29 71.5q0 41 29 70.5t70 29.5
q43 0 72.5 -28.5t29.5 -71.5z" />
    <glyph glyph-name="caron" unicode="&#xd8;" horiz-adv-x="683" 
d="M617 1473l-280 -242l-281 242h68l213 -132l214 132h66z" />
    <glyph glyph-name="caron" unicode="&#x2c7;" horiz-adv-x="683" 
d="M617 1473l-280 -242l-281 242h68l213 -132l214 132h66z" />
    <glyph glyph-name="caron" unicode="&#xff;" horiz-adv-x="683" 
d="M617 1473l-280 -242l-281 242h68l213 -132l214 132h66z" />
    <glyph glyph-name="udieresis" unicode="&#xd9;" horiz-adv-x="1131" 
d="M1095 1022v-1022h-266v145q-120 -173 -323 -173q-181 0 -273 122q-66 88 -66 281v647h279v-564q0 -146 25 -189q41 -69 139 -69q124 0 179 115q27 56 27 200v507h279zM817 1350q0 -42 -29.5 -71.5t-71.5 -29.5t-71.5 29.5t-29.5 71.5q0 41 29 71t70 30q43 0 73 -29
t30 -72zM453 1351q0 -42 -29.5 -71.5t-71.5 -29.5t-71 29.5t-29 71.5q0 41 29 70.5t70 29.5q43 0 72.5 -28.5t29.5 -71.5z" />
    <glyph glyph-name="acircumflex" unicode="&#xe4;" horiz-adv-x="960" 
d="M1024 0h-285q-18 56 -18 99q-131 -127 -337 -127q-163 0 -253 73q-104 85 -104 236q0 192 178 267q73 30 266 55q175 22 216 47q32 19 32 76q0 135 -183 135q-116 0 -162 -53q-28 -33 -39 -101h-265q13 160 123 248q118 95 350 95q242 0 360 -97q71 -59 84 -154
q5 -34 5 -106q0 -21 -3 -206q-2 -178 -2 -211q0 -132 12 -197q7 -38 25 -79zM717 497q-31 -18 -61 -27q-37 -11 -135 -26q-101 -15 -144 -38q-63 -34 -63 -115q0 -67 46 -105q39 -33 111 -33q122 0 199 85q34 37 42 80q5 28 5 64v115zM754 1234h-66l-214 126l-211 -126h-68
l279 242z" />
    <glyph glyph-name="logicalnot" unicode="&#xe5;" horiz-adv-x="1365" 
d="M1222 490h-108v466h-972v108h1080v-574z" />
    <glyph glyph-name="nonbreakingspace" unicode="&#xe6;" horiz-adv-x="500" 
 />
    <glyph glyph-name="exclamdown" unicode="&#xe7;" horiz-adv-x="650" 
d="M360 981q0 -36 -27 -63t-63 -27q-37 0 -63.5 27t-26.5 63t26.5 63t62.5 27q37 0 64 -27t27 -63zM438 81q-77 0 -220 -176v817l105 106v-480q0 -63 115 -267z" />
    <glyph glyph-name="Agrave" unicode="&#xe8;" horiz-adv-x="1237" 
d="M764 1412l535 -1412h-323l-112 316h-524l-114 -316h-317l537 1412h318zM789 541l-91 254q-63 176 -94 306q-35 -125 -99 -306l-91 -254h375zM653 1784h295l178 -284h-188z" />
    <glyph glyph-name="guillemotright" unicode="&#xe9;" horiz-adv-x="854" 
d="M784 529l-338 -400h-89l226 400l-226 393h87zM483 529l-340 -400h-93l232 400l-226 393h87z" />
    <glyph glyph-name="OE" unicode="&#xeb;" horiz-adv-x="1771" 
d="M1735 463l-76 -381h-51l1 10q0 37 -44 37h-512q-33 0 -154 -14q-129 -15 -188 -15q-352 0 -536 275q-96 143 -96 328q0 315 246 540q112 102 231 144q112 40 270 40q41 0 104 -7q108 -12 168 -12h467q57 0 57 48h49v-383h-73q0 287 -313 287h-106q-12 -73 -12 -200
q0 -166 62 -244q69 -87 229 -87h89v-70l-368 -8v-574h112q311 0 368 286h76zM997 177v1077q-125 101 -294 101q-211 0 -337 -142q-121 -136 -121 -350q0 -186 85 -349q90 -172 245.5 -259.5t314.5 -87.5q66 0 107 10z" />
    <glyph glyph-name="oe" unicode="&#xec;" horiz-adv-x="1685" 
d="M1624 379q-239 -279 -439 -279q-198 0 -329 223q-165 -223 -401 -223q-186 0 -299 127q-109 121 -109 310q0 215 145 374q149 163 362 163q240 0 354 -208q154 208 349 208q154 0 242 -105q82 -97 89 -255h-644q-2 -34 -2 -49q0 -166 80 -287q93 -139 251 -139
q167 0 351 210v-70zM1423 763q-6 101 -63 171q-63 77 -161 77q-94 0 -165 -79q-64 -70 -83 -169h472zM819 527q0 166 -96 307q-107 159 -267 159q-133 0 -209 -104q-68 -93 -68 -231q0 -165 101 -308q111 -158 270 -158q132 0 205 105q64 92 64 230z" />
    <glyph glyph-name="quotedblright" unicode="&#xee;" horiz-adv-x="795" 
d="M111 794q-9 13 51 112q63 106 125 166q-62 56 -125 162q-58 99 -51 114q10 17 242 -170q62 -50 57 -106q5 -60 -57 -109q-210 -171 -239 -171q-3 0 -3 2zM415 794q-9 13 49 112q63 106 125 166q-62 56 -125 162q-58 97 -49 114q8 17 240 -170q62 -50 58 -106
q4 -60 -58 -109q-210 -171 -237 -171q-2 0 -3 2z" />
    <glyph glyph-name="quoteleft" unicode="&#xef;" horiz-adv-x="498" 
d="M379 794q-2 -2 -4 -2q-27 0 -237 171q-63 49 -58 109q-5 56 58 106q231 187 241 170q8 -17 -50 -114q-63 -106 -124 -162q61 -60 124 -166q58 -99 50 -112z" />
    <glyph glyph-name="quotedblleft.001" unicode="&#xf1;" horiz-adv-x="795" 
d="M683 794q-2 -2 -4 -2q-29 0 -239 171q-61 49 -58 109q-3 56 58 106q232 187 243 170q6 -15 -52 -114q-63 -106 -124 -162q61 -60 124 -166q58 -99 52 -112zM379 794q-2 -2 -4 -2q-27 0 -237 171q-63 49 -58 109q-5 56 58 106q231 187 241 170q8 -17 -50 -114
q-63 -106 -124 -162q61 -60 124 -166q58 -99 50 -112z" />
    <glyph glyph-name="Ydieresis" unicode="&#xf4;" horiz-adv-x="1195" 
d="M1195 1409l-525 -866v-543h-307v547l-526 862h351l220 -375q56 -97 112 -231q68 159 118 244l213 362h344zM919 1675q0 -42 -29.5 -71.5t-71.5 -29.5t-71.5 29.5t-29.5 71.5q0 41 29 71t70 30q43 0 73 -29t30 -72zM555 1676q0 -42 -29.5 -71.5t-71.5 -29.5t-71 29.5
t-29 71.5q0 41 29 70.5t70 29.5q43 0 72.5 -28.5t29.5 -71.5z" />
    <glyph glyph-name="agrave" unicode="&#xf6;" horiz-adv-x="960" 
d="M1024 0h-285q-18 56 -18 99q-131 -127 -337 -127q-163 0 -253 73q-104 85 -104 236q0 192 178 267q73 30 266 55q175 22 216 47q32 19 32 76q0 135 -183 135q-116 0 -162 -53q-28 -33 -39 -101h-265q13 160 123 248q118 95 350 95q242 0 360 -97q71 -59 84 -154
q5 -34 5 -106q0 -21 -3 -206q-2 -178 -2 -211q0 -132 12 -197q7 -38 25 -79zM717 497q-31 -18 -61 -27q-37 -11 -135 -26q-101 -15 -144 -38q-63 -34 -63 -115q0 -67 46 -105q39 -33 111 -33q122 0 199 85q34 37 42 80q5 28 5 64v115zM523 1461h295l178 -284h-188z" />
    <glyph glyph-name="_214" unicode="&#xf7;" horiz-adv-x="1182" 
d="M594 1192q61 0 103 -47q37 -41 37 -95q0 -64 -47 -106q-40 -37 -95 -37q-64 0 -106 47q-37 41 -37 96q0 62 47 105q40 37 98 37zM594 474q61 0 103 -47q37 -41 37 -96q0 -63 -47 -105q-40 -37 -95 -37q-64 0 -106 47q-37 41 -37 96q0 62 47 105q40 37 98 37zM105 596v189
h972v-189h-972z" />
    <glyph glyph-name="perthousand" unicode="&#x160;" horiz-adv-x="2048" 
d="M1 1119q0 186 81 279t209 93q127 0 207.5 -92t80.5 -282q0 -207 -80 -300.5t-210 -93.5q-131 0 -209.5 91t-78.5 305zM196 1107q0 -105 15 -158q11 -38 31.5 -54t45.5 -16q26 0 46 16t32 54q15 53 15 158t-15 158q-12 38 -32 54t-46 16q-25 0 -45 -16t-32 -54
q-15 -53 -15 -158zM280 -52l613 1543h196l-612 -1543h-197zM799 338q0 186 81 279t209 93q127 0 207 -92t80 -281q0 -208 -79.5 -302t-209.5 -94q-132 0 -210 91.5t-78 305.5zM993 326q0 -105 16 -158q11 -38 31.5 -54t45.5 -16t45.5 15.5t31.5 54.5q16 53 16 158
q0 104 -16 158q-11 38 -31.5 54t-45.5 16t-45.5 -16t-31.5 -55q-16 -52 -16 -157zM1469 338q0 186 81 279t209 93q127 0 207.5 -92t80.5 -281q0 -208 -80 -302t-210 -94q-131 0 -209.5 91.5t-78.5 305.5zM1664 326q-1 -101 3 -123q9 -55 33 -80.5t55 -25.5q25 0 46 16.5
t33 53.5q15 54 15 159q0 104 -15 158q-12 38 -32 54t-45 16q-26 0 -46 -16t-32 -55q-15 -52 -15 -157z" />
    <glyph glyph-name="circumflex" unicode="&#x161;" horiz-adv-x="683" 
d="M620 1234h-66l-214 126l-211 -126h-68l279 242z" />
    <glyph glyph-name="cedilla.001" unicode="&#x178;" horiz-adv-x="683" 
d="M543 -91q0 -66 -60 -106q-53 -36 -122 -36q-56 0 -144 25v55q81 -29 128 -29q86 0 86 72q0 78 -99 78h-54v184h54v-135q25 2 37 2q174 0 174 -110z" />
    <glyph glyph-name="ellipsis" unicode="&#x192;" horiz-adv-x="2048" 
d="M1827 219q0 -49 -35.5 -84t-84.5 -35q-50 0 -85.5 34.5t-35.5 84.5q0 48 35 83t83 35q51 0 87 -33.5t36 -84.5zM1144 219q0 -49 -35.5 -84t-84.5 -35q-50 0 -85 34.5t-35 84.5q0 49 34.5 83.5t83.5 34.5q50 0 86 -34t36 -84zM462 219q0 -50 -35.5 -84.5t-85.5 -34.5
q-49 0 -84.5 35t-35.5 84q0 48 35 83t83 35q51 0 87 -33.5t36 -84.5z" />
    <glyph glyph-name="daggerdbl" unicode="&#x2c6;" horiz-adv-x="896" 
d="M817 -21h-49q-6 51 -100 90l-190 54l49 -251q16 -82 26 -102q24 -49 82 -50v-46h-369v46q56 1 81 51q14 26 27 101l46 257l-196 -62q-84 -19 -90 -88h-51v346h51q7 -46 54 -72q19 -11 89 -32l143 -44q-20 150 -98 410q47 137 98 399l-170 -48q-119 -34 -123 -94h-44v341
h44q10 -43 41 -64q9 -5 74 -31l178 -49l-55 281q-12 61 -26 85q-23 38 -73 41v45h363v-45q-64 -2 -91 -71q-8 -20 -28 -125l-40 -211l105 27q92 24 115 34q68 30 71 83h56v-341h-56q-5 32 -27 53q-19 17 -99 41l-157 48q46 -250 97 -399q-64 -209 -97 -410l157 50l13 6
l36 12q77 26 84 80h49v-346z" />
    <glyph glyph-name="tilde" unicode="&#x2dc;" horiz-adv-x="682" 
d="M116 1205h-128q-1 23 -1 36q0 105 51 161.5t131 56.5q35 0 65 -7.5t109.5 -43t124.5 -35.5q32 0 53.5 20t27.5 67h130q-1 -135 -50.5 -193t-127.5 -58q-34 0 -67 7q-23 6 -115 41t-134 35q-32 0 -50 -19.5t-19 -67.5z" />
    <glyph glyph-name="arabiccomma" unicode="&#x60c;" horiz-adv-x="456" 
d="M331 373l10 -59q-88 -5 -131 -60q-20 -25 -20 -54q0 -20 21 -20q23 2 38 3q102 0 102 -90q0 -46 -31 -70q-31 -23 -66 -23q-70 0 -109.5 44t-39.5 114q0 98 64.5 157t161.5 58z" />
    <glyph glyph-name="arabicsemicolon" unicode="&#x61b;" horiz-adv-x="462" 
d="M105 120q0 -27 9.5 -50t26.5 -40t40 -26.5t50 -9.5q26 0 49 9.5t40 26.5t27 40t10 50q0 26 -10 49t-27 40t-40 27t-49 10q-27 0 -50 -10t-40 -27t-26.5 -40t-9.5 -49zM347 946q-88 -5 -131 -60q-20 -25 -20 -54q0 -20 21 -20q23 2 38 3q102 0 102 -90q0 -46 -31 -70
q-31 -23 -66 -23q-70 0 -109.5 44t-39.5 114q0 98 64.5 157t161.5 58z" />
    <glyph glyph-name="arabicquestionmark" unicode="&#x61f;" horiz-adv-x="1119" 
d="M762 782q-5 88 -14.5 145.5t-25.5 83.5q-52 91 -173 91q-92 0 -141 -51v1q-21 -22 -31 -50.5t-10 -61.5q0 -88 91 -176l99 -99q32 -35 57 -71.5t38 -68.5q7 -18 12.5 -33t9.5 -37.5t6 -58.5t2 -97h-253q0 53 -2 81.5t-5 43.5t-7.5 21.5t-10.5 16.5q-6 11 -23 29t-43 44
q-54 53 -91 91t-57 63q-41 54 -63 120t-22 138q0 170 113 280q125 122 329 122q104 0 195 -37h-1q64 -26 114.5 -70.5t85.5 -99.5q32 -54 51 -144.5t22 -215.5h-252zM692 63q0 -28 -10.5 -53t-29 -43.5t-43.5 -29t-53 -10.5q-29 0 -53.5 10.5t-43.5 29t-29.5 43.5t-10.5 53
q0 29 10.5 54t29.5 43t43.5 28.5t53.5 10.5q28 0 53 -10.5t43.5 -28.5t29 -43t10.5 -54z" />
    <glyph glyph-name="hamza" unicode="&#x621;" horiz-adv-x="1173" 
d="M904 678h-222q-46 -4 -81 -21t-58.5 -43t-35.5 -58.5t-12 -65.5q0 -43 8.5 -85t24 -75.5t36.5 -54t45 -20.5h459v-255h-963v255h183q-49 112 -49 235q0 83 23.5 162t75.5 140.5t135 99.5t201 41h230v-255z" />
    <glyph glyph-name="alefwithmaddaabove" unicode="&#x622;" horiz-adv-x="465" 
d="M360 1350v-1350h-255v1350h255zM413 1526q-26 -42 -54 -60.5t-58 -18.5q-24 0 -43 6.5t-34.5 14.5t-30 14.5t-30 6t-32.5 -11t-39 -35.5l-50 69q21 23 37 38t29 23.5t25 12t26 3.5q30 0 54 -13t47.5 -21.5t48 -2.5t54.5 44z" />
    <glyph glyph-name="alefwithhamzaabove" unicode="&#x623;" horiz-adv-x="465" 
d="M360 1350v-1350h-255v1350h255zM351 1686h-80h1q-34 -1 -49.5 -20.5t-15.5 -42.5q0 -15 3 -29t8 -25.5t12.5 -18.5t15.5 -7h142v-94h-308v94h49q-16 40 -16 80q0 30 8.5 58t27 50t48.5 35.5t73 14.5h81v-95z" />
    <glyph glyph-name="wawwithhamzaabove" unicode="&#x624;" horiz-adv-x="1116" 
d="M238 -101h321q57 0 102 26t69 75h-295q-68 0 -128 26t-105 70.5t-71 104.5t-26 128v202q0 96 35.5 180t97 147t144 99.5t175.5 36.5q94 0 176.5 -37.5t144 -100.5t97 -146t35.5 -174v-440q0 -93 -35.5 -175.5t-96.5 -144t-143.5 -97t-175.5 -35.5h-321v255zM755 255v281
q0 40 -15.5 77t-42.5 64.5t-63 44t-77 16.5t-76.5 -16t-62 -44t-42 -66t-15.5 -81v-202q0 -31 21.5 -52.5t52.5 -21.5h320zM656 1382h-80h1q-34 -1 -49.5 -20.5t-15.5 -42.5q0 -15 3 -29t8 -25.5t12.5 -18.5t15.5 -7h142v-94h-308v94h49q-16 40 -16 80q0 30 8.5 58t27 50
t48.5 35.5t73 14.5h81v-95z" />
    <glyph glyph-name="alefwithhamzabelow" unicode="&#x625;" horiz-adv-x="465" 
d="M360 1350v-1350h-255v1350h255zM346 -194h-80h1q-34 -1 -49.5 -20.5t-15.5 -42.5q0 -15 3 -29t8 -25.5t12.5 -18.5t15.5 -7h142v-94h-308v94h49q-16 40 -16 80q0 30 8.5 58t27 50t48.5 35.5t73 14.5h81v-95z" />
    <glyph glyph-name="yehwithhamzaabove" unicode="&#x626;" horiz-adv-x="1257" 
d="M1098 738h-271q-32 0 -55 -22.5t-23 -56.5v-195h74q81 0 143 -26t103 -73.5t62 -113.5t21 -146q0 -115 -44 -201.5t-115.5 -144t-163 -86.5t-187.5 -29q-95 0 -186.5 28.5t-162.5 86t-114.5 143.5t-43.5 201v723h254v-723q0 -51 21.5 -89t57 -63.5t81 -38.5t93.5 -13
t93.5 13t81.5 39t58 64.5t22 89.5q0 47 -18.5 75.5t-55.5 28.5h-329v450q0 69 26 130t71.5 106.5t106 72t129.5 26.5h271v-256zM376 1163h-80h1q-34 -1 -49.5 -20.5t-15.5 -42.5q0 -15 3 -29t8 -25.5t12.5 -18.5t15.5 -7h142v-94h-308v94h49q-16 40 -16 80q0 30 8.5 58
t27 50t48.5 35.5t73 14.5h81v-95z" />
    <glyph glyph-name="arabicalef" unicode="&#x627;" horiz-adv-x="465" 
d="M360 1350v-1350h-255v1350h255z" />
    <glyph glyph-name="beh" unicode="&#x628;" horiz-adv-x="1435" 
d="M1330 994v-662q0 -69 -26 -129.5t-71 -105.5t-105 -71t-129 -26h-438q-95 0 -178 36t-144.5 97.5t-97.5 144t-36 176.5v372h256v-372q0 -41 15.5 -77.5t42.5 -63.5t63.5 -42.5t78.5 -15.5h438q32 0 54 22.5t22 54.5v662h255zM589 -225q0 27 10 50t27.5 40.5t41 27.5
t50.5 10t50.5 -10t41 -27.5t28 -40.5t10.5 -50t-10.5 -50.5t-28 -41t-41 -28t-50.5 -10.5t-50.5 10.5t-41 28t-27.5 41t-10 50.5z" />
    <glyph glyph-name="tehmarbuta" unicode="&#x629;" horiz-adv-x="1108" 
d="M361 331q0 -34 22 -54.5t54 -20.5h232q32 0 54.5 21.5t22.5 56.5v206q0 40 -15 76t-41.5 63t-61.5 43t-75 16t-75 -16t-61 -43.5t-41 -64t-15 -78.5v-205zM105 536q0 95 35.5 178.5t96 145.5t142 98t174.5 36q92 0 174 -36.5t143 -98.5t96.5 -144.5t35.5 -174.5v-206
q0 -75 -26 -136.5t-71.5 -105.5t-106 -68t-129.5 -24h-232q-71 0 -131.5 23.5t-105 67t-70 104.5t-25.5 136v205zM577 1220q0 27 10.5 50.5t28 41t41 28t50.5 10.5t50 -10.5t40.5 -28t27.5 -41t10 -50.5t-10 -50.5t-27.5 -41t-40.5 -27.5t-50 -10t-50.5 10t-41 27.5t-28 41
t-10.5 50.5zM270 1220q0 27 10 50.5t27.5 41t41 28t50.5 10.5t50.5 -10.5t41 -28t27.5 -41t10 -50.5t-10 -50.5t-27.5 -41t-41 -27.5t-50.5 -10t-50.5 10t-41 27.5t-27.5 41t-10 50.5z" />
    <glyph glyph-name="teh" unicode="&#x62a;" horiz-adv-x="1435" 
d="M1330 994v-662q0 -69 -26 -129.5t-71 -105.5t-105 -71t-129 -26h-438q-95 0 -178 36t-144.5 97.5t-97.5 144t-36 176.5v372h256v-372q0 -41 15.5 -77.5t42.5 -63.5t63.5 -42.5t78.5 -15.5h438q32 0 54 22.5t22 54.5v662h255zM743 1220q0 27 10.5 50.5t28 41t41 28
t50.5 10.5t50 -10.5t40.5 -28t27.5 -41t10 -50.5t-10 -50.5t-27.5 -41t-40.5 -27.5t-50 -10t-50.5 10t-41 27.5t-28 41t-10.5 50.5zM435 1220q0 27 10.5 50.5t28 41t41 28t50.5 10.5t50.5 -10.5t41 -28t27.5 -41t10 -50.5t-10 -50.5t-27.5 -41t-41 -27.5t-50.5 -10t-50.5 10
t-41 27.5t-28 41t-10.5 50.5z" />
    <glyph glyph-name="theh" unicode="&#x62b;" horiz-adv-x="1435" 
d="M1330 994v-662q0 -69 -26 -129.5t-71 -105.5t-105 -71t-129 -26h-438q-95 0 -178 36t-144.5 97.5t-97.5 144t-36 176.5v372h256v-372q0 -41 15.5 -77.5t42.5 -63.5t63.5 -42.5t78.5 -15.5h438q32 0 54 22.5t22 54.5v662h255zM743 1220q0 27 10.5 50.5t28 41t41 28
t50.5 10.5t50 -10.5t40.5 -28t27.5 -41t10 -50.5t-10 -50.5t-27.5 -41t-40.5 -27.5t-50 -10t-50.5 10t-41 27.5t-28 41t-10.5 50.5zM436 1220q0 27 10 50.5t27.5 41t41 28t50.5 10.5t50.5 -10.5t41 -28t27.5 -41t10 -50.5t-10 -50.5t-27.5 -41t-41 -27.5t-50.5 -10t-50.5 10
t-41 27.5t-27.5 41t-10 50.5zM588 1470q0 27 10.5 50.5t28 41t41 28t50.5 10.5t50 -10.5t40.5 -28t27.5 -41t10 -50.5t-10 -50.5t-27.5 -41t-40.5 -27.5t-50 -10t-50.5 10t-41 27.5t-28 41t-10.5 50.5z" />
    <glyph glyph-name="jeem" unicode="&#x62c;" horiz-adv-x="1095" 
d="M115 885q31 15 80.5 34t107 36t118.5 28.5t117 11.5q57 0 112.5 -9t105.5 -29.5t93 -55.5t74.5 -86.5t49 -122t17.5 -163.5v-200q0 -68 -26 -128t-71 -104.5t-105.5 -70.5t-129.5 -26h-260q-19 0 -28.5 -15t-9.5 -34t9.5 -35t28.5 -16h239v-255h-239q-74 0 -128.5 26.5
t-91.5 69.5t-55 98t-18 112t18 111.5t55 97.5t91.5 69t128.5 26h260q32 0 54.5 21.5t22.5 52.5v200q0 62 -17 103t-44.5 65t-63 33.5t-72.5 9.5q-39 0 -84 -9t-88 -21.5t-80.5 -27.5t-61.5 -27zM732 -225q0 27 10 50t27.5 40.5t41 27.5t50.5 10t50.5 -10t41 -27.5
t27.5 -40.5t10 -50t-10 -50.5t-27.5 -41t-41 -28t-50.5 -10.5t-50.5 10.5t-41 28t-27.5 41t-10 50.5z" />
    <glyph glyph-name="hah" unicode="&#x62d;" horiz-adv-x="1095" 
d="M115 885q31 15 80.5 34t107 36t118.5 28.5t117 11.5q57 0 112.5 -9t105.5 -29.5t93 -55.5t74.5 -86.5t49 -122t17.5 -163.5v-200q0 -68 -26 -128t-71 -104.5t-105.5 -70.5t-129.5 -26h-260q-19 0 -28.5 -15t-9.5 -34t9.5 -35t28.5 -16h337v-255h-337q-74 0 -128.5 26.5
t-91.5 69.5t-55 98t-18 112t18 111.5t55 97.5t91.5 69t128.5 26h260q32 0 54.5 21.5t22.5 52.5v200q0 62 -17 103t-44.5 65t-63 33.5t-72.5 9.5q-39 0 -84 -9t-88 -21.5t-80.5 -27.5t-61.5 -27z" />
    <glyph glyph-name="khah" unicode="&#x62e;" horiz-adv-x="1095" 
d="M115 885q31 15 80.5 34t107 36t118.5 28.5t117 11.5q57 0 112.5 -9t105.5 -29.5t93 -55.5t74.5 -86.5t49 -122t17.5 -163.5v-200q0 -68 -26 -128t-71 -104.5t-105.5 -70.5t-129.5 -26h-260q-19 0 -28.5 -15t-9.5 -34t9.5 -35t28.5 -16h337v-255h-337q-74 0 -128.5 26.5
t-91.5 69.5t-55 98t-18 112t18 111.5t55 97.5t91.5 69t128.5 26h260q32 0 54.5 21.5t22.5 52.5v200q0 62 -17 103t-44.5 65t-63 33.5t-72.5 9.5q-39 0 -84 -9t-88 -21.5t-80.5 -27.5t-61.5 -27zM410 1220q0 27 10 50.5t27.5 41t41 28t50.5 10.5t50.5 -10.5t41 -28t27.5 -41
t10 -50.5t-10 -50.5t-27.5 -41t-41 -27.5t-50.5 -10t-50.5 10t-41 27.5t-27.5 41t-10 50.5z" />
    <glyph glyph-name="dal" unicode="&#x62f;" horiz-adv-x="951" 
d="M156 994q184 0 315 -30.5t214 -89.5t122 -145.5t39 -199.5v-200q0 -68 -26 -128t-71.5 -104.5t-106.5 -70.5t-130 -26h-407v255h407q32 0 55 21.5t23 52.5v200q0 51 -24.5 90t-77 65.5t-134.5 40.5t-198 14v255z" />
    <glyph glyph-name="thal" unicode="&#x630;" horiz-adv-x="951" 
d="M156 994q184 0 315 -30.5t214 -89.5t122 -145.5t39 -199.5v-200q0 -68 -26 -128t-71.5 -104.5t-106.5 -70.5t-130 -26h-407v255h407q32 0 55 21.5t23 52.5v200q0 51 -24.5 90t-77 65.5t-134.5 40.5t-198 14v255zM376 1220q0 27 10.5 50.5t28 41t41 28t50.5 10.5
t50.5 -10.5t41 -28t27.5 -41t10 -50.5t-10 -50.5t-27.5 -41t-41 -27.5t-50.5 -10t-50.5 10t-41 27.5t-28 41t-10.5 50.5z" />
    <glyph glyph-name="reh" unicode="&#x631;" horiz-adv-x="630" 
d="M524 994v-857q0 -2 -1 -29t-11.5 -69t-34.5 -96t-69.5 -110.5t-118 -111.5t-178.5 -100l-98 236q49 21 86.5 43.5t65 46t45.5 46t30 42.5q27 48 29 94v865h255z" />
    <glyph glyph-name="zain" unicode="&#x632;" horiz-adv-x="630" 
d="M266 1220q0 27 10 50.5t27.5 41t41 28t50.5 10.5t50.5 -10.5t41 -28t27.5 -41t10 -50.5t-10 -50.5t-27.5 -41t-41 -27.5t-50.5 -10t-50.5 10t-41 27.5t-27.5 41t-10 50.5zM524 994v-857q0 -2 -1 -29t-11.5 -69t-34.5 -96t-69.5 -110.5t-118 -111.5t-178.5 -100l-98 236
q49 21 86.5 43.5t65 46t45.5 46t30 42.5q27 48 29 94v865h255z" />
    <glyph glyph-name="seen" unicode="&#x633;" horiz-adv-x="2045" 
d="M1532 994v-739h75q33 0 56 21.5t23 51.5v666h254v-666q0 -68 -26 -127.5t-71.5 -104t-106 -70.5t-129.5 -26h-495q-18 -89 -66.5 -155.5t-116.5 -111t-149.5 -66.5t-165.5 -22q-95 0 -186.5 28t-163 84.5t-115.5 141t-44 198.5v729h256v-729q0 -49 22 -86t57.5 -61.5
t81 -37t92.5 -12.5t92.5 12.5t81 37t57 61.5t21.5 86v897h257v-739h153v739h256z" />
    <glyph glyph-name="sheen" unicode="&#x634;" horiz-adv-x="2045" 
d="M1532 994v-739h75q33 0 56 21.5t23 51.5v666h254v-666q0 -68 -26 -127.5t-71.5 -104t-106 -70.5t-129.5 -26h-495q-18 -89 -66.5 -155.5t-116.5 -111t-149.5 -66.5t-165.5 -22q-95 0 -186.5 28t-163 84.5t-115.5 141t-44 198.5v729h256v-729q0 -49 22 -86t57.5 -61.5
t81 -37t92.5 -12.5t92.5 12.5t81 37t57 61.5t21.5 86v897h257v-739h153v739h256zM1434 1220q0 27 10.5 50.5t28 41t41 28t50.5 10.5t50 -10.5t40.5 -28t27.5 -41t10 -50.5t-10 -50.5t-27.5 -41t-40.5 -27.5t-50 -10t-50.5 10t-41 27.5t-28 41t-10.5 50.5zM1127 1220
q0 27 10 50.5t27.5 41t41 28t50.5 10.5t50.5 -10.5t41 -28t27.5 -41t10 -50.5t-10 -50.5t-27.5 -41t-41 -27.5t-50.5 -10t-50.5 10t-41 27.5t-27.5 41t-10 50.5zM1279 1470q0 27 10.5 50.5t28 41t41 28t50.5 10.5t50 -10.5t40.5 -28t27.5 -41t10 -50.5t-10 -50.5t-27.5 -41
t-40.5 -27.5t-50 -10t-50.5 10t-41 27.5t-28 41t-10.5 50.5z" />
    <glyph glyph-name="sad" unicode="&#x635;" horiz-adv-x="2045" 
d="M1123 994v-126q89 57 191 91.5t200 34.5q87 0 164.5 -25t135.5 -80.5t92 -144t34 -216.5v-200q0 -68 -26.5 -127.5t-71.5 -104t-106 -70.5t-130 -26h-493q-18 -89 -66.5 -155.5t-116.5 -111t-149.5 -66.5t-166.5 -22q-96 0 -187.5 28t-163 84.5t-115 141t-43.5 198.5v729
h256v-729q0 -49 21.5 -86t57 -61.5t81 -37t93.5 -12.5q47 0 92.5 12.5t81 37t57.5 61.5t22 86v897h256zM1123 255h483q33 0 56 21.5t23 51.5v200q0 58 -14 98t-37 65t-54.5 36t-65.5 11q-66 0 -135 -21t-126 -55.5t-93.5 -78t-36.5 -88.5v-240z" />
    <glyph glyph-name="dad" unicode="&#x636;" horiz-adv-x="2045" 
d="M1123 994v-126q89 57 191 91.5t200 34.5q87 0 164.5 -25t135.5 -80.5t92 -144t34 -216.5v-200q0 -68 -26.5 -127.5t-71.5 -104t-106 -70.5t-130 -26h-493q-18 -89 -66.5 -155.5t-116.5 -111t-149.5 -66.5t-166.5 -22q-96 0 -187.5 28t-163 84.5t-115 141t-43.5 198.5v729
h256v-729q0 -49 21.5 -86t57 -61.5t81 -37t93.5 -12.5q47 0 92.5 12.5t81 37t57.5 61.5t22 86v897h256zM1123 255h483q33 0 56 21.5t23 51.5v200q0 58 -14 98t-37 65t-54.5 36t-65.5 11q-66 0 -135 -21t-126 -55.5t-93.5 -78t-36.5 -88.5v-240zM1274 1220q0 27 10 50.5
t27.5 41t41 28t50.5 10.5t50.5 -10.5t41 -28t28 -41t10.5 -50.5t-10.5 -50.5t-28 -41t-41 -27.5t-50.5 -10t-50.5 10t-41 27.5t-27.5 41t-10 50.5z" />
    <glyph glyph-name="tah" unicode="&#x637;" horiz-adv-x="1427" 
d="M504 1350v-481q88 57 190 91t202 34q86 0 163.5 -25t136 -80.5t92.5 -144t34 -216.5v-199q0 -68 -26.5 -128t-71.5 -104.5t-106 -70.5t-130 -26h-883v255h144v1095h255zM896 739q-44 0 -90.5 -9.5t-90 -27t-82 -40.5t-67.5 -50t-45.5 -56.5t-16.5 -59.5v-241h484
q33 0 56 21.5t23 52.5v199q0 58 -14 98t-37 65t-54.5 36.5t-65.5 11.5z" />
    <glyph glyph-name="zah" unicode="&#x638;" horiz-adv-x="1427" 
d="M504 1350v-481q88 57 190 91t202 34q86 0 163.5 -25t136 -80.5t92.5 -144t34 -216.5v-199q0 -68 -26.5 -128t-71.5 -104.5t-106 -70.5t-130 -26h-883v255h144v1095h255zM896 739q-44 0 -90.5 -9.5t-90 -27t-82 -40.5t-67.5 -50t-45.5 -56.5t-16.5 -59.5v-241h484
q33 0 56 21.5t23 52.5v199q0 58 -14 98t-37 65t-54.5 36.5t-65.5 11.5zM656 1220q0 27 10 50.5t27.5 41t41 28t50.5 10.5t50.5 -10.5t41 -28t28 -41t10.5 -50.5t-10.5 -50.5t-28 -41t-41 -27.5t-50.5 -10t-50.5 10t-41 27.5t-27.5 41t-10 50.5z" />
    <glyph glyph-name="ain" unicode="&#x639;" horiz-adv-x="1230" 
d="M1125 0h-727q-19 0 -28.5 -15t-9.5 -34t9.5 -35t28.5 -16h536v-255h-536q-74 0 -128.5 26.5t-91.5 69.5t-55 98t-18 112q0 50 14 98t42.5 88t72 69.5t102.5 41.5v295q-1 90 29.5 166t83 134t122.5 95.5t148.5 49.5t160 -3.5t158.5 -63.5l-105 -231q-57 39 -116 45.5
t-108.5 -14t-82 -66t-36.5 -112.5v-288h535v-255z" />
    <glyph glyph-name="ghain" unicode="&#x63a;" horiz-adv-x="1230" 
d="M654 1220q0 27 10 50.5t27.5 41t41 28t50.5 10.5t50.5 -10.5t41 -28t27.5 -41t10 -50.5t-10 -50.5t-27.5 -41t-41 -27.5t-50.5 -10t-50.5 10t-41 27.5t-27.5 41t-10 50.5zM1125 0h-727q-19 0 -28.5 -15t-9.5 -34t9.5 -35t28.5 -16h536v-255h-536q-74 0 -128.5 26.5
t-91.5 69.5t-55 98t-18 112q0 50 14 98t42.5 88t72 69.5t102.5 41.5v295q-1 90 29.5 166t83 134t122.5 95.5t148.5 49.5t160 -3.5t158.5 -63.5l-105 -231q-57 39 -116 45.5t-108.5 -14t-82 -66t-36.5 -112.5v-288h535v-255z" />
    <glyph glyph-name="tatweel" unicode="&#x640;" horiz-adv-x="402" 
d="M-42 255h486v-255h-486v255z" />
    <glyph glyph-name="feh" unicode="&#x641;" horiz-adv-x="1862" 
d="M361 457q0 -42 16 -78.5t43.5 -64t64.5 -43.5t79 -16h295v291q0 96 35.5 178t96 142t142 94t174.5 34t174.5 -34.5t143 -94.5t96.5 -141t35 -173v-217q0 -75 -26 -137t-71.5 -105.5t-106.5 -67.5t-130 -24h-858q-95 0 -178.5 36t-146 98.5t-98.5 145.5t-36 177v369h256
v-369zM1115 255h307q33 0 55.5 21.5t22.5 57.5v217q0 39 -15 73.5t-41.5 60t-61.5 40t-75 14.5t-75 -15t-61 -41t-41 -61t-15 -76v-291zM1177 1220q0 27 10.5 50.5t28 41t41 28t50.5 10.5t50.5 -10.5t41 -28t28 -41t10.5 -50.5t-10.5 -50.5t-28 -41t-41 -27.5t-50.5 -10
t-50.5 10t-41 27.5t-28 41t-10.5 50.5z" />
    <glyph glyph-name="qaf" unicode="&#x642;" horiz-adv-x="1480" 
d="M361 825v-718q0 -43 16 -81t44.5 -66t66 -44t81.5 -16h354q54 0 99.5 28t71.5 72h-295q-68 0 -128 26t-105 71t-71 105t-26 128v201q0 96 35.5 180t97 147t143.5 99.5t176 36.5q93 0 176 -37t144.5 -99.5t97 -145.5t35.5 -176v-439q0 -93 -35.5 -175.5t-97 -144
t-143.5 -97t-175 -35.5h-354q-96 0 -180.5 36.5t-147.5 99t-99.5 146.5t-36.5 180v718h256zM1119 255v281q0 41 -15.5 77.5t-42.5 64.5t-63 44t-77 16t-77 -16t-62.5 -44t-41.5 -66t-15 -81v-201q0 -32 21.5 -53.5t52.5 -21.5h320zM944 1220q0 27 10.5 50.5t28 41t41 28
t50.5 10.5t50.5 -10.5t41 -28t27.5 -41t10 -50.5t-10 -50.5t-27.5 -41t-41 -27.5t-50.5 -10t-50.5 10t-41 27.5t-28 41t-10.5 50.5zM636 1220q0 27 10.5 50.5t28 41t41 28t50.5 10.5t50.5 -10.5t41 -28t27.5 -41t10 -50.5t-10 -50.5t-27.5 -41t-41 -27.5t-50.5 -10t-50.5 10
t-41 27.5t-28 41t-10.5 50.5z" />
    <glyph glyph-name="arabickaf" unicode="&#x643;" horiz-adv-x="1436" 
d="M1331 1350v-1018q0 -69 -26 -129.5t-71 -105.5t-105.5 -71t-129.5 -26h-439q-94 0 -177 36t-144.5 97.5t-97.5 144t-36 176.5v372h256v-372q0 -41 15.5 -77.5t42.5 -63.5t63 -42.5t78 -15.5h439q32 0 54.5 22.5t22.5 54.5v1018h255zM821 1180h-80h1q-34 -1 -49.5 -20.5
t-15.5 -42.5q0 -15 3 -29t8 -25.5t12.5 -18.5t15.5 -7h142v-94h-308v94h49q-16 40 -16 80q0 30 8.5 58t27 50t48.5 35.5t73 14.5h81v-95z" />
    <glyph glyph-name="lam" unicode="&#x644;" horiz-adv-x="1229" 
d="M1124 1350v-1251q0 -114 -44 -199.5t-115.5 -142.5t-163 -85.5t-187.5 -28.5t-187.5 28.5t-163 85.5t-115 142.5t-43.5 199.5v727h256v-727q0 -50 21.5 -87.5t57 -63t81 -38t93.5 -12.5t93.5 12.5t81 38t57.5 63t22 87.5v1251h256z" />
    <glyph glyph-name="meem" unicode="&#x645;" horiz-adv-x="1442" 
d="M889 994q93 0 174.5 -36t142 -98.5t96 -145.5t35.5 -177v-205q0 -95 -35.5 -178.5t-96 -145.5t-142 -98t-174.5 -36q-89 0 -167.5 34t-139 92.5t-98 136.5t-42.5 165q-45 -15 -63 -47t-18 -72v-538h-256v538q0 72 18.5 137t59 115.5t104.5 84t155 44.5q5 87 42 165
t97.5 137t139.5 93.5t168 34.5zM1082 537q0 42 -15 78.5t-41.5 63.5t-61.5 43t-75 16q-39 0 -74.5 -16t-62 -44t-41.5 -64.5t-15 -76.5v-206q0 -41 15 -77t41.5 -64t62 -44t74.5 -16q40 0 75 16t61.5 43t41.5 64t15 79v205z" />
    <glyph glyph-name="noon" unicode="&#x646;" horiz-adv-x="1229" 
d="M1124 994v-893q0 -114 -44 -200t-115.5 -143t-163 -85.5t-187.5 -28.5t-187.5 28.5t-163 85.5t-115 143t-43.5 200v725h256v-725q0 -50 21.5 -88t57 -63.5t81 -38t93.5 -12.5t93.5 12.5t81 38t57.5 63.5t22 88v893h256zM485 1220q0 27 10 50.5t27.5 41t41 28t50.5 10.5
t50.5 -10.5t41 -28t28 -41t10.5 -50.5t-10.5 -50.5t-28 -41t-41 -27.5t-50.5 -10t-50.5 10t-41 27.5t-27.5 41t-10 50.5z" />
    <glyph glyph-name="heh" unicode="&#x647;" horiz-adv-x="1108" 
d="M361 331q0 -34 22 -54.5t54 -20.5h232q32 0 54.5 21.5t22.5 56.5v206q0 40 -15 76t-41.5 63t-61.5 43t-75 16t-75 -16t-61 -43.5t-41 -64t-15 -78.5v-205zM105 536q0 95 35.5 178.5t96 145.5t142 98t174.5 36q92 0 174 -36.5t143 -98.5t96.5 -144.5t35.5 -174.5v-206
q0 -75 -26 -136.5t-71.5 -105.5t-106 -68t-129.5 -24h-232q-71 0 -131.5 23.5t-105 67t-70 104.5t-25.5 136v205z" />
    <glyph glyph-name="waw" unicode="&#x648;" horiz-adv-x="1116" 
d="M238 -101h321q57 0 102 26t69 75h-295q-68 0 -128 26t-105 70.5t-71 104.5t-26 128v202q0 96 35.5 180t97 147t144 99.5t175.5 36.5q94 0 176.5 -37.5t144 -100.5t97 -146t35.5 -174v-440q0 -93 -35.5 -175.5t-96.5 -144t-143.5 -97t-175.5 -35.5h-321v255zM755 255v281
q0 40 -15.5 77t-42.5 64.5t-63 44t-77 16.5t-76.5 -16t-62 -44t-42 -66t-15.5 -81v-202q0 -31 21.5 -52.5t52.5 -21.5h320z" />
    <glyph glyph-name="alefmaksura" unicode="&#x649;" horiz-adv-x="1229" 
d="M1070 738h-271q-33 0 -56 -22.5t-23 -56.5v-195h75q81 0 142.5 -26t103 -73.5t62.5 -113.5t21 -146q0 -115 -44 -201.5t-115.5 -144t-163.5 -86.5t-188 -29q-95 0 -186.5 28.5t-163 86t-115 143.5t-43.5 201v723h256v-723q0 -51 21.5 -89t57 -63.5t81 -38.5t92.5 -13
q48 0 94 13t81.5 39t57.5 64.5t22 89.5q0 47 -18.5 75.5t-54.5 28.5h-330v450q0 69 26.5 130t71.5 106.5t106 72t130 26.5h271v-256z" />
    <glyph glyph-name="yeh" unicode="&#x64a;" horiz-adv-x="1229" 
d="M1070 738h-271q-33 0 -56 -22.5t-23 -56.5v-195h75q81 0 142.5 -26t103 -73.5t62.5 -113.5t21 -146q0 -115 -44 -201.5t-115.5 -144t-163.5 -86.5t-188 -29q-95 0 -186.5 28.5t-163 86t-115 143.5t-43.5 201v723h256v-723q0 -51 21.5 -89t57 -63.5t81 -38.5t92.5 -13
q48 0 94 13t81.5 39t57.5 64.5t22 89.5q0 47 -18.5 75.5t-54.5 28.5h-330v450q0 69 26.5 130t71.5 106.5t106 72t130 26.5h271v-256zM635 -584q0 27 10.5 50.5t28 41t41 27.5t50.5 10t50.5 -10t41 -27.5t27.5 -41t10 -50.5t-10 -50.5t-27.5 -41t-41 -27.5t-50.5 -10
t-50.5 10t-41 27.5t-28 41t-10.5 50.5zM327 -584q0 27 10.5 50.5t28 41t41 27.5t50.5 10t50.5 -10t41 -27.5t28 -41t10.5 -50.5t-10.5 -50.5t-28 -41t-41 -27.5t-50.5 -10t-50.5 10t-41 27.5t-28 41t-10.5 50.5z" />
    <glyph glyph-name="fathatan" unicode="&#x64b;" horiz-adv-x="0" 
d="M359 1244h-462v72h462v-72zM359 1388h-462v72h462v-72z" />
    <glyph glyph-name="dammatan" unicode="&#x64c;" horiz-adv-x="0" 
d="M84 1286q-9 0 -17 4q-12 5 -17.5 14.5t-11.5 21.5l-27 73l-49 -69l-58 43l68 94q4 6 16.5 18t33.5 9q27 -3 43 -37v-1l36 -92q54 19 97 59q-46 11 -73 47q-17 21 -24 47.5t-4 52.5q5 26 20 47.5t40 34.5q26 13 54 13.5t51 -11.5q53 -28 62 -85q6 -33 -4 -70l18 4t17 4
l18 -70q-21 -5 -42 -9.5t-44 -6.5q-7 -11 -14.5 -20.5t-13.5 -16.5q-61 -65 -150 -93q-5 -2 -11.5 -3.5t-13.5 -1.5zM213 1594q-15 0 -26 -8t-15.5 -20t-3 -26t12.5 -26q11 -15 27.5 -19t33.5 -4q8 17 11 34t1 33q-3 14 -13.5 25t-27.5 11z" />
    <glyph glyph-name="kasratan" unicode="&#x64d;" horiz-adv-x="0" 
d="M378 -1038h-462v72h462v-72zM378 -894h-462v72h462v-72z" />
    <glyph glyph-name="fatha" unicode="&#x64e;" horiz-adv-x="0" 
d="M392 1286h-462v72h462v-72z" />
    <glyph glyph-name="damma" unicode="&#x64f;" horiz-adv-x="0" 
d="M-92 1179l-17 69q38 10 75.5 25t68.5 44q-45 11 -73 47q-17 21 -24 47.5t-3 52.5q5 26 20 47.5t39 34.5q26 13 54 13.5t52 -11.5q53 -28 62 -85q6 -33 -4 -70q9 2 17.5 4t17.5 4l17 -70q-20 -5 -41.5 -9.5t-44.5 -6.5q-7 -11 -14 -20.5t-13 -16.5q-43 -46 -92.5 -67
t-96.5 -32zM51 1488q-15 0 -26 -8t-15.5 -20t-3 -26t11.5 -26q5 -7 15 -13.5t27 -8.5q5 -1 10 -1h10q7 17 10.5 34t0.5 33q-2 14 -13 25t-27 11z" />
    <glyph glyph-name="kasra" unicode="&#x650;" horiz-adv-x="0" 
d="M454 -910h-462v72h462v-72z" />
    <glyph glyph-name="shadda" unicode="&#x651;" horiz-adv-x="0" 
d="M-18 1294q-21 0 -39.5 8t-32.5 22t-22 33t-8 40v126h72v-116q0 -17 12 -29t29 -12h84v157h72v-157h80q17 0 29 12t12 29v116h71v-126q0 -21 -8 -40t-21.5 -33t-32.5 -22t-40 -8h-257z" />
    <glyph glyph-name="sukun" unicode="&#x652;" horiz-adv-x="0" 
d="M48 1285q-33 0 -62 12.5t-50.5 34.5t-34 50.5t-12.5 61.5t12.5 62t34 50.5t50.5 34t62 12.5t61.5 -12.5t50 -34t34 -50.5t12.5 -62t-12.5 -61.5t-34 -50.5t-50 -34.5t-61.5 -12.5zM48 1531q-37 0 -62.5 -25.5t-25.5 -61.5t25.5 -61.5t62.5 -25.5q18 0 33.5 7t27 18.5
t18.5 27.5t7 34t-7 34t-18.5 27.5t-27 18.5t-33.5 7z" />
    <glyph glyph-name="arabicindicdigitzero" unicode="&#x660;" horiz-adv-x="1112" 
d="M555 1354q93 0 175.5 -35.5t144 -97t97 -143.5t35.5 -175v-453q0 -93 -35.5 -174.5t-97 -143t-144 -97t-175.5 -35.5q-94 0 -176 35.5t-143 96.5t-96 143t-35 175v453q0 94 35 176.5t96 143.5t143 96t176 35zM759 903q0 42 -16 79t-43.5 64.5t-64.5 43.5t-80 16
q-42 0 -79.5 -16t-65.5 -43.5t-44 -64.5t-16 -79v-453q0 -42 16 -79.5t44 -65t65.5 -44t79.5 -16.5q43 0 80 16.5t64.5 44t43.5 65t16 79.5v453z" />
    <glyph glyph-name="arabicindicdigitone" unicode="&#x661;" horiz-adv-x="768" 
d="M663 0h-261v1081h-297l103 270h268q50 0 85.5 -19t58 -50.5t33 -72.5t10.5 -84v-1125z" />
    <glyph glyph-name="arabicindicdigittwo" unicode="&#x662;" horiz-adv-x="1151" 
d="M1046 918q0 -85 -24.5 -152.5t-66.5 -123.5t-96.5 -104.5t-114.5 -95.5l-259 -202h555v-240h-727q-41 0 -78.5 9.5t-66 30.5t-46 54t-17.5 80q0 31 8.5 55t23.5 43.5t34.5 36t41.5 32.5l20 15h-1l440 346q24 19 45.5 43.5t38.5 52t27 57.5t10 61q0 43 -16 79.5t-44 63
t-65 41t-80 14.5q-51 0 -90.5 -16t-66.5 -45.5t-41.5 -70.5t-14.5 -91q0 -31 12.5 -60t34.5 -53.5t51.5 -43.5t63.5 -31l-219 -158q-102 64 -149.5 160t-47.5 209q0 101 40 182t106.5 137.5t154 87t182.5 30.5q92 0 172.5 -33t140.5 -91t94.5 -137.5t34.5 -171.5z" />
    <glyph glyph-name="arabicindicdigitthree" unicode="&#x663;" horiz-adv-x="1117" 
d="M558 0q-87 0 -165.5 32.5t-139.5 89.5t-100 134.5t-48 168.5h247q7 -39 26.5 -72t47.5 -57t62 -37.5t70 -13.5q43 0 81.5 16.5t66.5 45t44.5 66.5t16.5 82q0 53 -17 87.5t-43.5 56.5t-59.5 35t-65 22q-28 9 -55 19t-48 25t-34 36.5t-13 54.5q0 23 17.5 56t44 70t57 74.5
t57.5 69.5q9 10 14 15.5t9 10t7 8.5t8 10h-403l-61 247h615q39 0 76.5 -9.5t66.5 -29.5t46.5 -52t17.5 -78q0 -31 -17.5 -68t-44 -75.5t-57.5 -75.5t-59 -68q-12 -14 -20 -23.5t-19 -23.5q52 -31 93.5 -73.5t71 -93.5t45 -108.5t15.5 -118.5q0 -94 -36 -176.5t-98 -144.5
t-144.5 -98t-175.5 -36z" />
    <glyph glyph-name="arabicindicdigitfour" unicode="&#x664;" horiz-adv-x="1268" 
d="M1163 211h-183v-211h-278v211h-421q-34 0 -65.5 12.5t-56 35t-39.5 53.5t-15 67q0 20 6 42t15 40l550 890h328l-551 -889h249v147h278v-147h183v-251z" />
    <glyph glyph-name="arabicindicdigitfive" unicode="&#x665;" horiz-adv-x="1071" 
d="M534 0q-80 0 -152 29t-129.5 80.5t-96 121.5t-51.5 152h237q10 -32 29 -59t44.5 -46.5t56 -30.5t62.5 -11q42 0 78.5 16.5t63.5 44t42.5 64.5t15.5 79t-16 79t-43 64t-63.5 43t-77.5 16q-21 0 -43.5 -0.5t-43.5 -1.5q-22 -1 -43 -1.5t-42 -0.5q-52 0 -98 7.5t-80.5 31
t-54.5 67.5t-20 117v308q0 48 17.5 82.5t47.5 56.5t69 32.5t81 10.5h592l-69 -246h-481v-226h168q90 0 169 -35t137.5 -94.5t92 -139.5t33.5 -170t-33.5 -170t-91.5 -140t-137 -95t-170 -35z" />
    <glyph glyph-name="arabicindicdigitsix" unicode="&#x666;" horiz-adv-x="1225" 
d="M625 944q97 -4 186.5 -39.5t158 -97.5t109.5 -147t41 -188q0 -104 -42.5 -190.5t-113 -149t-162 -97.5t-188.5 -35q-99 0 -191 35t-162.5 97.5t-113 149t-42.5 190.5q0 57 15.5 113.5t43.5 105.5l388 662h319zM618 245q47 0 90.5 17t77 47.5t53.5 72t20 90.5q0 48 -20 89
t-53.5 71.5t-77 47.5t-90.5 17t-90.5 -17t-76.5 -47.5t-53 -71.5t-20 -89q0 -49 20 -90.5t53 -72t76.5 -47.5t90.5 -17z" />
    <glyph glyph-name="arabicindicdigitseven" unicode="&#x667;" horiz-adv-x="1081" 
d="M293 0l388 1080h-513l-63 271h675q40 0 75.5 -15t62.5 -40.5t42.5 -60.5t15.5 -75q0 -18 -14 -71t-37.5 -129t-54 -168.5t-63.5 -190t-66 -193t-61.5 -177t-50 -142.5t-31.5 -89h-305z" />
    <glyph glyph-name="arabicindicdigiteight" unicode="&#x668;" horiz-adv-x="1102" 
d="M939 988q0 -71 -26.5 -134.5t-74.5 -114.5q75 -60 117 -142.5t42 -178.5q0 -92 -37 -168.5t-99.5 -132t-143 -86.5t-167.5 -31q-88 0 -168.5 31t-142 86.5t-98 132.5t-36.5 168q0 96 42 178.5t117 142.5q-50 51 -75.5 114.5t-25.5 134.5q0 79 32 146t85.5 115.5
t123.5 75.5t146 27t146 -27t124 -75.5t86.5 -115.5t32.5 -146zM550 1114q-29 0 -54 -10.5t-43.5 -29t-29.5 -43.5t-11 -53q0 -29 11 -54.5t29.5 -44.5t43.5 -30t54 -11t54.5 11t44.5 30t30 44.5t11 54.5q0 28 -11 53t-30 43.5t-44.5 29t-54.5 10.5zM550 239q39 0 74 14
t61.5 39t42 59t15.5 74q0 39 -15.5 73t-42 59t-61.5 39.5t-74 14.5t-73.5 -14.5t-60.5 -39.5t-41.5 -59t-15.5 -73t15.5 -73t41.5 -59t61 -39.5t73 -14.5z" />
    <glyph glyph-name="arabicindicdigitnine" unicode="&#x669;" horiz-adv-x="1151" 
d="M576 1351q97 0 182.5 -37t149.5 -101t101 -149.5t37 -182.5q0 -58 -13.5 -114t-39.5 -106q-87 -161 -180 -330.5t-180 -330.5h-297l229 410q-96 4 -180 41t-146 99.5t-98 147t-36 183.5q0 97 37 182.5t101 149.5t149.5 101t183.5 37zM571 652q46 0 86.5 18.5t70.5 50
t47.5 73t17.5 87.5q0 45 -17.5 86t-47.5 72t-70.5 49t-86.5 18t-86.5 -18t-70.5 -48.5t-47 -71.5t-17 -87q0 -47 17 -89t46.5 -73t70 -49t87.5 -18z" />
    <glyph glyph-name="arabicpercentsign" unicode="&#x66a;" horiz-adv-x="1838" 
d="M1382 1425l-779 -1479h-176l781 1479h174zM1408 743q181 0 267 -132q58 -89 58 -241q0 -188 -82 -291q-87 -107 -251 -107q-169 0 -255 110q-75 96 -75 267q0 187 82 286q89 108 256 108zM1404 601q-78 0 -109 -75q-23 -55 -23 -174q0 -107 21 -161q29 -75 107 -75
q79 0 110 85q20 56 20 161q0 106 -20 160q-29 79 -106 79zM443 1398q168 0 255 -116q69 -93 69 -259q0 -193 -87 -296q-84 -100 -241 -100q-169 0 -257 112q-77 97 -77 276q0 194 97 293q88 90 241 90zM438 1254q-74 0 -106 -70q-26 -57 -26 -182q0 -104 20 -157
q29 -76 106 -76q84 0 114 85q20 58 20 170t-28 171t-100 59z" />
    <glyph glyph-name="arabicfivepointedstar" unicode="&#x66d;" horiz-adv-x="2943" 
d="M470 1120q82 0 149.5 -30.5t115.5 -81.5t74 -116.5t26 -134.5q0 -70 -27 -137t-75 -119t-115 -83.5t-148 -31.5q-80 0 -147 30t-115.5 80t-75.5 114t-27 133v587q0 11 8 18.5t19 7.5t18.5 -7.5t7.5 -18.5v-383q30 48 75 86q19 16 43 31.5t53.5 28t64.5 20t76 7.5z
M470 443q64 0 120.5 24.5t98.5 67t66.5 100t24.5 122.5q0 64 -24.5 120.5t-66.5 99t-98.5 67t-120.5 24.5q-65 0 -121.5 -24.5t-98.5 -67t-66.5 -99t-24.5 -120.5q0 -65 24.5 -122.5t66.5 -100t98.5 -67t121.5 -24.5zM1547 562q-24 -39 -56.5 -71t-72.5 -55.5t-86 -36
t-96 -12.5q-76 0 -143 29t-116.5 79t-78 117t-28.5 142q0 76 28.5 143t78 116.5t116.5 78.5t143 29t143 -29t117 -78.5t78.5 -116.5t28.5 -143q0 -8 -6 -16.5t-22 -8.5h-391q-11 0 -19.5 7.5t-8.5 20.5q0 11 8.5 19t19.5 8h362q-6 59 -32 110.5t-67.5 90t-95.5 60.5t-115 22
q-65 0 -121.5 -24.5t-98.5 -67t-66 -99.5t-24 -122q0 -64 24 -120.5t66 -99t98.5 -67t121.5 -24.5q42 0 81 11t73.5 30.5t63 47t48.5 60.5q6 11 17.5 13t21.5 -5q8 -6 11 -17t-5 -21zM1703 385q-26 1 -44 18t-20 37v630q2 20 20 37t44 17t44 -17t19 -37v-630q-1 -20 -19 -37
t-44 -18zM1891 385q-27 1 -45 17t-20 34v474q3 40 18 77q13 32 40.5 65t78.5 54q52 19 97 16t81 -19t61.5 -40t37.5 -46l289 -455q14 -22 33 -35q17 -11 41.5 -15t56.5 13q15 7 24.5 17.5t15.5 22t8.5 21.5t2.5 17v466q2 20 19.5 37t42.5 17q27 0 45 -17t19 -37v-466
q0 -41 -13 -78q-12 -32 -39 -65.5t-81 -55.5q-52 -21 -98 -17.5t-82 19t-61 37.5t-35 37q-5 8 -20 31.5t-36 57.5t-46.5 74t-51.5 81q-61 96 -135 212q-9 18 -22 31q-11 11 -28 20.5t-39 7.5q-38 -4 -58.5 -19.5t-28.5 -32.5q-11 -20 -10 -46v-454q0 -22 -18 -39.5
t-44 -18.5zM1609 350q25 0 47.5 -9.5t38.5 -25.5t25.5 -38t9.5 -46q0 -25 -9.5 -47t-25.5 -38.5t-38.5 -26t-47.5 -9.5h-81v-94q0 -19 -19 -19q-8 0 -13 5.5t-5 13.5l-1 215q0 52 32.5 85.5t86.5 33.5zM1609 147q17 0 32.5 6.5t27 18t18 26.5t6.5 33q0 34 -24.5 59t-59.5 25
q-38 0 -59.5 -24.5t-21.5 -59.5v-84h81zM1914 352q37 0 69.5 -14t56.5 -38t38 -56.5t14 -69.5q0 -36 -14 -68.5t-38 -57t-56.5 -38.5t-69.5 -14q-36 0 -68.5 14t-56.5 38.5t-38 57t-14 68.5q0 37 14 69.5t38 56.5t56.5 38t68.5 14zM1914 36q29 0 54 11t44 29.5t29.5 43.5
t10.5 54q0 28 -10.5 53t-29.5 44t-44 29.5t-54 10.5q-28 0 -53 -10.5t-43.5 -29.5t-29.5 -44t-11 -53q0 -29 11 -54t29.5 -43.5t43.5 -29.5t53 -11zM2568 350q8 0 13.5 -5.5t5.5 -13.5t-5.5 -14t-13.5 -6h-82v-294q0 -8 -5.5 -14t-13.5 -6q-9 0 -14.5 6t-5.5 14v294h-83
q-9 0 -15 6t-6 14t6 13.5t15 5.5h204zM1338 199q62 0 91.5 -27.5t29.5 -65.5q0 -19 -6.5 -37.5t-20.5 -33.5t-37.5 -24t-56.5 -9q-26 0 -47.5 8.5t-37 23.5t-23.5 34.5t-8 42.5q0 18 19 18q7 0 12.5 -5t5.5 -13q0 -6 2 -18t10 -24t24 -21t44 -9q33 0 50.5 10t24.5 23
t7.5 23.5t0.5 11.5l-0.5 9t-8 19t-25 18.5t-50.5 8.5t-55 8t-35.5 20.5t-19.5 27t-6 28.5q0 13 4.5 31t17.5 34t35.5 27.5t58.5 11.5q32 -1 58 -13q22 -11 40.5 -33.5t18.5 -65.5q0 -7 -5.5 -12t-13.5 -5q-7 0 -12 5t-5 12q0 21 -9 38q-8 14 -24 26.5t-48 12.5t-48.5 -11
t-23.5 -24q-8 -16 -8 -35q1 -13 10 -23q8 -9 24 -16t46 -7zM2353 231q0 -39 -22.5 -70t-59.5 -44l56 -92q4 -6 2.5 -13.5t-8.5 -10.5q-8 -5 -15.5 -3.5t-11.5 9.5l-64 103h-82v-95q0 -8 -5 -13.5t-13 -5.5q-19 0 -19 19v216q0 52 32.5 86.5t88.5 34.5q25 0 47 -9.5t38.5 -26
t26 -38.5t9.5 -47zM2232 147q35 0 59.5 24.5t24.5 59.5q0 18 -6.5 33t-18 26.5t-27 18t-32.5 6.5q-38 0 -61 -23.5t-23 -60.5v-84h84zM2714 196q63 0 93 -27t30 -65q0 -19 -7 -38t-21.5 -34.5t-38 -25t-56.5 -9.5q-26 0 -48 9t-37.5 24t-23.5 35t-6 43q0 19 16 19
q8 0 13 -5.5t5 -13.5q0 -6 2.5 -18.5t11 -25t25 -21.5t44.5 -9q34 0 51 10.5t24.5 23.5t8 24t0.5 12t-0.5 9.5t-8 18.5t-25 18.5t-50.5 8.5q-34 0 -56.5 8t-36 21t-19 28t-5.5 29q0 13 4.5 31t17 34.5t35 28t58.5 11.5q33 -1 59 -13q22 -11 40.5 -33.5t18.5 -66.5
q0 -7 -5 -13t-13 -6q-9 0 -14 6t-5 13q0 21 -8 38q-7 14 -23 26t-48 12q-33 0 -49.5 -11t-24.5 -24q-9 -15 -9 -34q1 -13 10 -24q8 -9 24 -16.5t47 -7.5z" />
    <glyph glyph-name="superscriptalef" unicode="&#x670;" horiz-adv-x="239" 
d="M294 1084q-10 -13 -77 -13t-95 14q-39 20 -39 79v305q0 30 -61 129q41 0 116 86v-466q0 -85 100 -119q20 -5 56 -15z" />
    <glyph glyph-name="alefwasla" unicode="&#x671;" horiz-adv-x="399" 
d="M434 1625q0 -17 -42 -74q-72 -95 -209 -95q-82 0 -182 34q-29 -26 -91 -74q0 17 -3 43q42 43 128 126q39 -30 93 -38q136 120 216 120q90 0 90 -42zM355 1562q-6 44 -48 44q-48 0 -143 -65q32 -2 60 -2q80 0 131 23zM74 1350v-1350h255v1350h-255z" />
    <glyph glyph-name="highhamza" unicode="&#x674;" horiz-adv-x="0" 
d="M460 1836h-129h2q-54 -2 -79 -32.5t-25 -68.5q0 -24 5 -47t13 -41t19.5 -29.5t24.5 -11.5h228v-150h-494v150h78q-25 64 -25 129q0 48 13.5 93t43.5 80t78 57t117 23h130v-152z" />
    <glyph glyph-name="peh" unicode="&#x67e;" horiz-adv-x="1435" 
d="M1330 994v-662q0 -69 -26 -129.5t-71 -105.5t-105 -71t-129 -26h-438q-95 0 -178 36t-144.5 97.5t-97.5 144t-36 176.5v372h256v-372q0 -41 15.5 -77.5t42.5 -63.5t63.5 -42.5t78.5 -15.5h438q32 0 54 22.5t22 54.5v662h255zM757 -232q0 -27 -10.5 -50.5t-28 -41t-41 -28
t-50.5 -10.5t-50 10.5t-40.5 28t-27.5 41t-10 50.5t10 50.5t27.5 41t40.5 27.5t50 10t50.5 -10t41 -27.5t28 -41t10.5 -50.5zM1064 -232q0 -27 -10 -50.5t-27.5 -41t-41 -28t-50.5 -10.5t-50.5 10.5t-41 28t-27.5 41t-10 50.5t10 50.5t27.5 41t41 27.5t50.5 10t50.5 -10
t41 -27.5t27.5 -41t10 -50.5zM912 -482q0 -27 -10.5 -50.5t-28 -41t-41 -28t-50.5 -10.5t-50 10.5t-40.5 28t-27.5 41t-10 50.5t10 50.5t27.5 41t40.5 27.5t50 10t50.5 -10t41 -27.5t28 -41t10.5 -50.5z" />
    <glyph glyph-name="tcheh" unicode="&#x686;" horiz-adv-x="1095" 
d="M114 885q31 15 80.5 34t107.5 36t119 28.5t117 11.5q85 0 166 -20.5t144.5 -73t102.5 -143t39 -229.5v-200q0 -68 -26 -128t-71 -104.5t-106 -70.5t-130 -26h-259q-19 0 -29 -15t-10 -34t10 -35t29 -16h239v-255h-239q-74 0 -128.5 26.5t-91.5 69.5t-55 98t-18 112
t18 111.5t55 97.5t91.5 69t128.5 26h259q32 0 55 21.5t23 52.5v200q0 62 -17 103t-45 65t-63 33.5t-72 9.5q-40 0 -85 -9t-88 -21.5t-80 -27.5t-61 -27zM841 -175q0 -26 -18 -44t-44 -18t-44 18t-18 44t18 44t44 18t44 -18t18 -44zM988 -175q0 -26 -18 -44t-44 -18t-44 18
t-18 44t18 44t44 18t44 -18t18 -44zM916 -294q0 -26 -19 -44t-44 -18q-26 0 -44 18t-18 44t18 44t44 18q25 0 44 -18t19 -44z" />
    <glyph glyph-name="jeh" unicode="&#x698;" horiz-adv-x="776" 
d="M539 994v-857q0 -2 -1 -29t-11.5 -69t-34.5 -96t-70 -110.5t-118 -111.5t-178 -100l-99 236q49 21 86.5 43.5t65 46t45.5 46t30 42.5q27 48 29 94v865h256zM413 1220q0 27 10.5 50.5t28 41t41 28t50.5 10.5t50 -10.5t40.5 -28t27.5 -41t10 -50.5t-10 -50.5t-27.5 -41
t-40.5 -27.5t-50 -10t-50.5 10t-41 27.5t-28 41t-10.5 50.5zM106 1220q0 27 10 50.5t27.5 41t41 28t50.5 10.5t50.5 -10.5t41 -28t27.5 -41t10 -50.5t-10 -50.5t-27.5 -41t-41 -27.5t-50.5 -10t-50.5 10t-41 27.5t-27.5 41t-10 50.5zM258 1470q0 27 10.5 50.5t28 41t41 28
t50.5 10.5t50 -10.5t40.5 -28t27.5 -41t10 -50.5t-10 -50.5t-27.5 -41t-40.5 -27.5t-50 -10t-50.5 10t-41 27.5t-28 41t-10.5 50.5z" />
    <glyph glyph-name="veh" unicode="&#x6a4;" horiz-adv-x="1862" 
d="M361 457q0 -42 16 -78.5t43.5 -64t64.5 -43.5t79 -16h295v291q0 96 35.5 178t96 142t142 94t174.5 34t174.5 -34.5t143 -94.5t96.5 -141t35 -173v-217q0 -75 -26 -137t-71.5 -105.5t-106.5 -67.5t-130 -24h-858q-95 0 -178.5 36t-146 98.5t-98.5 145.5t-36 177v369h256
v-369zM1115 255h307q33 0 55.5 21.5t22.5 57.5v217q0 39 -15 73.5t-41.5 60t-61.5 40t-75 14.5t-75 -15t-61 -41t-41 -61t-15 -76v-291zM1331 1220q0 27 10.5 50.5t28 41t41 28t50.5 10.5t50 -10.5t40.5 -28t27.5 -41t10 -50.5t-10 -50.5t-27.5 -41t-40.5 -27.5t-50 -10
t-50.5 10t-41 27.5t-28 41t-10.5 50.5zM1024 1220q0 27 10 50.5t27.5 41t41 28t50.5 10.5t50.5 -10.5t41 -28t27.5 -41t10 -50.5t-10 -50.5t-27.5 -41t-41 -27.5t-50.5 -10t-50.5 10t-41 27.5t-27.5 41t-10 50.5zM1176 1470q0 27 10.5 50.5t28 41t41 28t50.5 10.5t50 -10.5
t40.5 -28t27.5 -41t10 -50.5t-10 -50.5t-27.5 -41t-40.5 -27.5t-50 -10t-50.5 10t-41 27.5t-28 41t-10.5 50.5z" />
    <glyph glyph-name="keheh" unicode="&#x6a9;" horiz-adv-x="2278" 
d="M2250 172q-46 -43 -112 -43h-2098l560 549l44 -103q34 -80 127 -80h234l-66 -68q-44 -46 -71 -57q-21 -10 -70 -10h-143q-64 0 -88 13q-34 18 -70 89l-70 -75q-30 -39 -30 -45q0 -22 24 -42.5t52 -20.5h1468l-41 81h-723q-36 0 -64 25q-31 28 -31 76q0 17 91 105l398 384
q82 79 82 142q0 152 -144 152q-48 0 -113 -27q-50 -21 -99 -43l296 294l100 -198q51 -101 51 -174q0 -100 -99 -194l-168 -160q-64 -61 -64 -86q0 -35 10 -50l15 -38q23 -58 91 -58h463q26 0 61 -75l68 -144q33 -69 47 -86q29 -33 82 -33z" />
    <glyph glyph-name="gaf" unicode="&#x6af;" horiz-adv-x="2278" 
d="M2250 172q-26 -24 -112 -43h-2098l560 549l44 -103q34 -80 127 -80h234l-66 -68q-44 -46 -71 -57q-21 -10 -70 -10h-143q-64 0 -88 13q-34 18 -70 89l-70 -75q-30 -39 -30 -45q0 -22 24 -42.5t52 -20.5h1468l-41 81h-723q-36 0 -64 25q-31 28 -31 76q0 17 91 105l398 384
q82 79 82 142q0 152 -144 152q-48 0 -113 -27q-50 -21 -99 -43l296 294l100 -198q51 -101 51 -174q0 -100 -99 -194l-168 -160q-64 -61 -64 -86q0 -35 10 -50l15 -38q23 -58 91 -58h463q26 0 61 -75l68 -144q33 -69 47 -86q29 -33 82 -33zM1650 1605l-577 -389l-26 39
l522 470z" />
    <glyph glyph-name="farsiyeh" unicode="&#x6cc;" horiz-adv-x="1280" 
d="M1350 129h-167q-111 0 -165 109l-122 244q-35 70 -58 70q-22 0 -62 -38l-90 -86q-40 -38 -40 -68q0 -28 17 -42q5 -3 45 -22l162 -76q86 -40 86 -116q0 -52 -67 -116l-205 -197q-62 -60 -108 -60q-54 0 -113 59l-329 329q-64 64 -64 88q0 42 50 90l188 182l-46 -82
q-34 -64 -34 -86q0 -29 57 -86l271 -272q68 -68 90 -68q13 0 73 58l50 48q27 26 27 46q0 45 -49 69l-188 91q-46 22 -60 38q-21 24 -21 70q0 40 100 137l431 418q-14 -45 -14 -78q0 -36 43 -122l152 -304q39 -77 113 -77h47v-150z" />
    <glyph glyph-name="arabicae" unicode="&#x6d5;" horiz-adv-x="772" 
d="M742 129h-683q41 51 41 70q0 20 -19.5 62.5t-19.5 80.5q0 72 53 125l166 167l-60 115l136 128l57 -109l67 67q-22 -62 -22 -115q0 -42 70 -177zM461 279l-69 136q-33 65 -33 97q-8 -11 -45 -49q-18 -19 -18 -34q0 -26 18 -60l47 -90q63 -1 100 0z" />
    <glyph glyph-name="smallhighmadda" unicode="&#x6e4;" horiz-adv-x="530" 
d="M485 1399q0 -104 -125 -104h-149q-57 0 -90 -58l-76 -108v156q0 104 125 104h145q62 0 94 58l76 108v-156z" />
    <glyph glyph-name="extendedarabicindicdigitzero" unicode="&#x6f0;" horiz-adv-x="1112" 
d="M555 1354q93 0 175.5 -35.5t144 -97t97 -143.5t35.5 -175v-453q0 -93 -35.5 -174.5t-97 -143t-144 -97t-175.5 -35.5q-94 0 -176 35.5t-143 96.5t-96 143t-35 175v453q0 94 35 176.5t96 143.5t143 96t176 35zM759 903q0 42 -16 79t-43.5 64.5t-64.5 43.5t-80 16
q-42 0 -79.5 -16t-65.5 -43.5t-44 -64.5t-16 -79v-453q0 -42 16 -79.5t44 -65t65.5 -44t79.5 -16.5q43 0 80 16.5t64.5 44t43.5 65t16 79.5v453z" />
    <glyph glyph-name="extendedarabicindicdigitone" unicode="&#x6f1;" horiz-adv-x="768" 
d="M663 0h-261v1081h-297l103 270h268q50 0 85.5 -19t58 -50.5t33 -72.5t10.5 -84v-1125z" />
    <glyph glyph-name="extendedarabicindicdigittwo" unicode="&#x6f2;" horiz-adv-x="1151" 
d="M1046 918q0 -85 -24.5 -152.5t-66.5 -123.5t-96.5 -104.5t-114.5 -95.5l-259 -202h555v-240h-727q-41 0 -78.5 9.5t-66 30.5t-46 54t-17.5 80q0 31 8.5 55t23.5 43.5t34.5 36t41.5 32.5l20 15h-1l440 346q24 19 45.5 43.5t38.5 52t27 57.5t10 61q0 43 -16 79.5t-44 63
t-65 41t-80 14.5q-51 0 -90.5 -16t-66.5 -45.5t-41.5 -70.5t-14.5 -91q0 -31 12.5 -60t34.5 -53.5t51.5 -43.5t63.5 -31l-219 -158q-102 64 -149.5 160t-47.5 209q0 101 40 182t106.5 137.5t154 87t182.5 30.5q92 0 172.5 -33t140.5 -91t94.5 -137.5t34.5 -171.5z" />
    <glyph glyph-name="extendedarabicindicdigitthree" unicode="&#x6f3;" horiz-adv-x="1117" 
d="M558 0q-87 0 -165.5 32.5t-139.5 89.5t-100 134.5t-48 168.5h247q7 -39 26.5 -72t47.5 -57t62 -37.5t70 -13.5q43 0 81.5 16.5t66.5 45t44.5 66.5t16.5 82q0 53 -17 87.5t-43.5 56.5t-59.5 35t-65 22q-28 9 -55 19t-48 25t-34 36.5t-13 54.5q0 23 17.5 56t44 70t57 74.5
t57.5 69.5q9 10 14 15.5t9 10t7 8.5t8 10h-403l-61 247h615q39 0 76.5 -9.5t66.5 -29.5t46.5 -52t17.5 -78q0 -31 -17.5 -68t-44 -75.5t-57.5 -75.5t-59 -68q-12 -14 -20 -23.5t-19 -23.5q52 -31 93.5 -73.5t71 -93.5t45 -108.5t15.5 -118.5q0 -94 -36 -176.5t-98 -144.5
t-144.5 -98t-175.5 -36z" />
    <glyph glyph-name="extendedarabicindicdigitfour" unicode="&#x6f4;" horiz-adv-x="1268" 
d="M1163 211h-183v-211h-278v211h-421q-34 0 -65.5 12.5t-56 35t-39.5 53.5t-15 67q0 20 6 42t15 40l550 890h328l-551 -889h249v147h278v-147h183v-251z" />
    <glyph glyph-name="extendedarabicindicdigitfive" unicode="&#x6f5;" horiz-adv-x="1071" 
d="M534 0q-80 0 -152 29t-129.5 80.5t-96 121.5t-51.5 152h237q10 -32 29 -59t44.5 -46.5t56 -30.5t62.5 -11q42 0 78.5 16.5t63.5 44t42.5 64.5t15.5 79t-16 79t-43 64t-63.5 43t-77.5 16q-21 0 -43.5 -0.5t-43.5 -1.5q-22 -1 -43 -1.5t-42 -0.5q-52 0 -98 7.5t-80.5 31
t-54.5 67.5t-20 117v308q0 48 17.5 82.5t47.5 56.5t69 32.5t81 10.5h592l-69 -246h-481v-226h168q90 0 169 -35t137.5 -94.5t92 -139.5t33.5 -170t-33.5 -170t-91.5 -140t-137 -95t-170 -35z" />
    <glyph glyph-name="extendedarabicindicdigitsix" unicode="&#x6f6;" horiz-adv-x="1225" 
d="M625 944q97 -4 186.5 -39.5t158 -97.5t109.5 -147t41 -188q0 -104 -42.5 -190.5t-113 -149t-162 -97.5t-188.5 -35q-99 0 -191 35t-162.5 97.5t-113 149t-42.5 190.5q0 57 15.5 113.5t43.5 105.5l388 662h319zM618 245q47 0 90.5 17t77 47.5t53.5 72t20 90.5q0 48 -20 89
t-53.5 71.5t-77 47.5t-90.5 17t-90.5 -17t-76.5 -47.5t-53 -71.5t-20 -89q0 -49 20 -90.5t53 -72t76.5 -47.5t90.5 -17z" />
    <glyph glyph-name="extendedarabicindicdigitseven" unicode="&#x6f7;" horiz-adv-x="1081" 
d="M293 0l388 1080h-513l-63 271h675q40 0 75.5 -15t62.5 -40.5t42.5 -60.5t15.5 -75q0 -18 -14 -71t-37.5 -129t-54 -168.5t-63.5 -190t-66 -193t-61.5 -177t-50 -142.5t-31.5 -89h-305z" />
    <glyph glyph-name="extendedarabicindicdigiteight" unicode="&#x6f8;" horiz-adv-x="1102" 
d="M939 988q0 -71 -26.5 -134.5t-74.5 -114.5q75 -60 117 -142.5t42 -178.5q0 -92 -37 -168.5t-99.5 -132t-143 -86.5t-167.5 -31q-88 0 -168.5 31t-142 86.5t-98 132.5t-36.5 168q0 96 42 178.5t117 142.5q-50 51 -75.5 114.5t-25.5 134.5q0 79 32 146t85.5 115.5
t123.5 75.5t146 27t146 -27t124 -75.5t86.5 -115.5t32.5 -146zM550 1114q-29 0 -54 -10.5t-43.5 -29t-29.5 -43.5t-11 -53q0 -29 11 -54.5t29.5 -44.5t43.5 -30t54 -11t54.5 11t44.5 30t30 44.5t11 54.5q0 28 -11 53t-30 43.5t-44.5 29t-54.5 10.5zM550 239q39 0 74 14
t61.5 39t42 59t15.5 74q0 39 -15.5 73t-42 59t-61.5 39.5t-74 14.5t-73.5 -14.5t-60.5 -39.5t-41.5 -59t-15.5 -73t15.5 -73t41.5 -59t61 -39.5t73 -14.5z" />
    <glyph glyph-name="extendedarabicindicdigitnine" unicode="&#x6f9;" horiz-adv-x="1151" 
d="M576 1351q97 0 182.5 -37t149.5 -101t101 -149.5t37 -182.5q0 -58 -13.5 -114t-39.5 -106q-87 -161 -180 -330.5t-180 -330.5h-297l229 410q-96 4 -180 41t-146 99.5t-98 147t-36 183.5q0 97 37 182.5t101 149.5t149.5 101t183.5 37zM571 652q46 0 86.5 18.5t70.5 50
t47.5 73t17.5 87.5q0 45 -17.5 86t-47.5 72t-70.5 49t-86.5 18t-86.5 -18t-70.5 -48.5t-47 -71.5t-17 -87q0 -47 17 -89t46.5 -73t70 -49t87.5 -18z" />
    <glyph glyph-name="zeronojoin" unicode="&#x200c;" horiz-adv-x="45" 
d="M45 0h-45v1628h45v-1628z" />
    <glyph glyph-name="zerojoin" unicode="&#x200d;" horiz-adv-x="45" 
d="M160 1496l-30 -30l-85 85v-1551h-45v1550l-84 -84l-30 30l107 107l-107 107l30 30l107 -107l107 107l30 -30l-107 -107z" />
    <glyph glyph-name="lefttoright" unicode="&#x200e;" horiz-adv-x="45" 
d="M303 1604l-137 -138l-31 31l86 86h-176v-1583h-45v1628h217l-82 82l31 31z" />
    <glyph glyph-name="righttoleft" unicode="&#x200f;" horiz-adv-x="45" 
d="M45 0h-45v1583h-176l86 -86l-31 -31l-137 138l137 137l31 -31l-82 -82h217v-1628z" />
    <glyph glyph-name="endash.001" unicode="&#x2013;" horiz-adv-x="1139" 
d="M-4 426v210h1139v-210h-1139z" />
    <glyph glyph-name="emdash" unicode="&#x2014;" horiz-adv-x="2048" 
d="M0 426v210h2048v-210h-2048z" />
    <glyph glyph-name="quoteleft.001" unicode="&#x2018;" horiz-adv-x="435" 
d="M105 926v155q0 115 25 178q55 137 200 171v-97q-110 -37 -114 -194h114v-213h-225z" />
    <glyph glyph-name="quoteright.001" unicode="&#x2019;" horiz-adv-x="435" 
d="M330 1409v-155q0 -115 -25 -178q-55 -137 -200 -171v97q110 36 114 194h-114v213h225z" />
    <glyph glyph-name="guillemotleft" unicode="&#x201a;" horiz-adv-x="854" 
d="M804 129h-93l-340 400l340 393h87l-226 -393zM497 129h-89l-338 400l340 393h87l-226 -393z" />
    <glyph glyph-name="quotedblleft" unicode="&#x201c;" horiz-adv-x="783" 
d="M105 937v161q0 132 51 211q60 92 163 120v-95q-108 -46 -108 -194h108v-203h-214zM466 937v165q0 137 59 220q58 82 153 109v-97q-65 -32 -87 -82q-21 -46 -21 -112h108v-203h-212z" />
    <glyph glyph-name="quotedblright.001" unicode="&#x201d;" horiz-adv-x="783" 
d="M678 1409v-161q0 -132 -51 -211q-60 -94 -161 -120v95q106 45 107 194h-107v203h212zM319 1409v-166q0 -136 -59 -219q-58 -81 -155 -109v97q66 32 88 82q21 47 21 112h-109v203h214z" />
    <glyph glyph-name="quotedash" unicode="&#x201e;" horiz-adv-x="2048" 
d="M2060 618h-2072v61h2072v-61z" />
    <glyph glyph-name="guilsinglleft" unicode="&#x2020;" horiz-adv-x="512" 
d="M457 966l-228 -382l222 -380v-75l-383 455l389 457v-75z" />
    <glyph glyph-name="periodcentered" unicode="&#x2021;" horiz-adv-x="405" 
d="M326 768q0 -50 -35.5 -85t-85.5 -35q-49 0 -84.5 35.5t-35.5 84.5t34.5 85t83.5 36q51 0 87 -35t36 -86z" />
    <glyph glyph-name="bullet.002" unicode="&#x2022;" horiz-adv-x="717" 
d="M657 724q0 -123 -86.5 -209.5t-208.5 -86.5q-123 0 -209.5 87t-86.5 209t86.5 208.5t209.5 86.5q122 0 208.5 -86t86.5 -209z" />
    <glyph glyph-name="divide" unicode="&#x2026;" horiz-adv-x="2048" 
d="M1566 0v281h282v-281h-282zM884 0v281h281v-281h-281zM201 0v281h281v-281h-281z" />
    <glyph glyph-name="quotesinglbase" unicode="&#x2030;" horiz-adv-x="491" 
d="M458 164q0 -142 -108 -280q-91 -118 -231 -200v56q228 162 228 337q0 61 -33 100q-32 -48 -95 -48q-41 0 -69.5 28t-28.5 69q0 58 49 93q44 32 104 32q86 0 135 -50.5t49 -136.5z" />
    <glyph glyph-name="quotedblbase" unicode="&#x2039;" horiz-adv-x="939" 
d="M864 163q0 -144 -106 -281q-89 -115 -230 -200v56q226 160 226 343q0 50 -31 96q-34 -48 -91 -48q-42 0 -71.5 28.5t-29.5 70.5q0 59 48 93q42 29 104 29q86 0 133.5 -50.5t47.5 -136.5zM414 167q0 -280 -336 -485v58q90 54 154 142q71 98 71 193q0 54 -29 102
q-34 -48 -92 -48q-44 0 -72.5 28t-28.5 72q0 58 49 92q43 29 104 29q82 0 131 -50.5t49 -132.5z" />
    <glyph glyph-name="dotlessi" unicode="&#x203a;" horiz-adv-x="555" 
d="M517 129h-458v48q84 2 118.5 37t34.5 119v547q0 63 -72 63q-26 0 -57 -13q-17 -7 -24 -9v51l256 101h49v-740q0 -84 34.5 -119t118.5 -37v-48z" />
    <glyph glyph-name="florin" unicode="&#x20ac;" horiz-adv-x="1139" 
d="M1075 1430l-59 -277q-85 85 -248 85t-264 -117q-57 -66 -81 -165h550l-32 -155h-538q-1 -23 -1 -59q0 -35 2 -73h509l-32 -155h-456q25 -107 77 -168q100 -118 260 -118q192 0 306 118v-306q-130 -65 -303 -65q-292 0 -480 200q-128 136 -169 339h-148l32 155h98
q-1 24 -1 51q0 46 2 81h-131l32 155h119q42 199 167 333q189 202 497 202q168 0 292 -61z" />
    <glyph glyph-name="trademark.002" unicode="&#x2122;" horiz-adv-x="1844" 
d="M798 1409v-104h-283v-699h-125v699h-285v104h693zM1739 1409v-803h-121v361q0 167 10 302q-29 -79 -59 -154l-203 -509h-106l-213 503q-23 54 -56 145q9 -163 9 -284v-364h-120v803h164l200 -485q48 -119 69 -181q23 66 67 179l192 487h167z" />
    <glyph glyph-name="_E005h" unicode="&#xe005;" horiz-adv-x="1319" 
d="M1227 881l-427 -448l415 -431h-276l-275 290l-275 -290h-278l415 431l-424 448h275l287 -301l288 301h275z" />
    <glyph glyph-name="fathalow" unicode="&#xe820;" horiz-adv-x="583" 
d="M522 1286h-462v72h462v-72z" />
    <glyph glyph-name="dammalow" unicode="&#xe821;" horiz-adv-x="511" 
d="M128 1219l-17 69q38 10 75.5 25t68.5 44q-45 11 -73 47q-17 21 -24 47.5t-3 52.5q5 26 20 47.5t39 34.5q26 13 54 13.5t52 -11.5q53 -28 62 -85q6 -33 -4 -70q9 2 17.5 4t17.5 4l17 -70q-20 -5 -41.5 -9.5t-44.5 -6.5q-7 -11 -14 -20.5t-13 -16.5q-43 -46 -92.5 -67
t-96.5 -32zM271 1528q-15 0 -26 -8t-15.5 -20t-3 -26t11.5 -26q5 -7 15 -13.5t27 -8.5q5 -1 10 -1h10q7 17 10.5 34t0.5 33q-2 14 -13 25t-27 11z" />
    <glyph glyph-name="sukunlow" unicode="&#xe822;" horiz-adv-x="326" 
d="M168 1285q-33 0 -62 12.5t-50.5 34.5t-34 50.5t-12.5 61.5t12.5 62t34 50.5t50.5 34t62 12.5t61.5 -12.5t50 -34t34 -50.5t12.5 -62t-12.5 -61.5t-34 -50.5t-50 -34.5t-61.5 -12.5zM168 1531q-37 0 -62.5 -25.5t-25.5 -61.5t25.5 -61.5t62.5 -25.5q18 0 33.5 7t27 18.5
t18.5 27.5t7 34t-7 34t-18.5 27.5t-27 18.5t-33.5 7z" />
    <glyph glyph-name="fathatanlow" unicode="&#xe823;" horiz-adv-x="583" 
d="M518 1295h-462v72h462v-72zM518 1439h-462v72h462v-72z" />
    <glyph glyph-name="dammatanlow" unicode="&#xe824;" horiz-adv-x="576" 
d="M233 1246q-9 0 -17 4q-12 5 -17.5 14.5t-11.5 21.5l-27 73l-49 -69l-58 43l68 94q4 6 16.5 18t33.5 9q27 -3 43 -37v-1l36 -92q54 19 97 59q-46 11 -73 47q-17 21 -24 47.5t-4 52.5q5 26 20 47.5t40 34.5q26 13 54 13.5t51 -11.5q53 -28 62 -85q6 -33 -4 -70l18 4t17 4
l18 -70q-21 -5 -42 -9.5t-44 -6.5q-7 -11 -14.5 -20.5t-13.5 -16.5q-61 -65 -150 -93q-5 -2 -11.5 -3.5t-13.5 -1.5zM362 1554q-15 0 -26 -8t-15.5 -20t-3 -26t12.5 -26q11 -15 27.5 -19t33.5 -4q8 17 11 34t1 33q-3 14 -13.5 25t-27.5 11z" />
    <glyph glyph-name="shaddalow" unicode="&#xe825;" horiz-adv-x="551" 
d="M142 1234q-21 0 -39.5 8t-32.5 22t-22 33t-8 40v126h72v-116q0 -17 12 -29t29 -12h84v157h72v-157h80q17 0 29 12t12 29v116h71v-126q0 -21 -8 -40t-21.5 -33t-32.5 -22t-40 -8h-257z" />
    <glyph glyph-name="kasralow" unicode="&#xe826;" horiz-adv-x="583" 
d="M525 -306h-462v72h462v-72z" />
    <glyph glyph-name="kasratanlow" unicode="&#xe827;" horiz-adv-x="583" 
d="M518 -451h-462v72h462v-72zM518 -307h-462v72h462v-72z" />
    <glyph glyph-name="shaddawithfathaisolatedlow" unicode="&#xe828;" 
d="M78 1571v71h461v-71h-461zM539 1356q0 -21 -7.5 -40t-21.5 -33t-33 -22t-40 -8h-257q-42 0 -72 30t-30 73v126h72v-116q0 -17 12 -29t29 -12h84v157h72v-157h80q17 0 29 12t12 29v116h71v-126z" />
    <glyph glyph-name="shaddawithdammaisolatedlow" unicode="&#xe829;" 
d="M616 1524h-72v-116q0 -17 -12 -29t-29 -12h-79v157h-72v-157h-85q-17 0 -29 12t-12 29v116h-71v-126q0 -21 8 -40t22 -33q28 -30 72 -30h257q42 0 72 30t30 73v126zM195 1617l22 68q37 -12 77 -19.5t82 1.5q-32 32 -37 78q-3 27 5 53t25 46q18 20 42 30t52 8
q29 -3 52.5 -17t37.5 -37q30 -51 8 -105q-7 -17 -17.5 -31t-23.5 -26q8 -4 16.5 -6.5t17.5 -5.5l-23 -69q-20 7 -40.5 14.5t-40.5 18.5q-25 -13 -43 -17q-30 -8 -58.5 -9.5t-55 1.5t-51.5 9.5t-47 14.5zM480 1803q-13 8 -26.5 7t-23.5 -8.5t-16 -20.5t-4 -28q1 -9 5.5 -20
t17.5 -21q5 -4 8.5 -6.5t8.5 -5.5q14 11 26.5 23.5t18.5 27.5q5 14 2 29t-17 23z" />
    <glyph glyph-name="shaddawithfathatanisolatedlow" unicode="&#xe82a;" 
d="M537 1464h-72v-116q0 -17 -12 -29t-29 -12h-79v157h-72v-157h-85q-17 0 -29 12t-12 29v116h-71v-126q0 -21 8 -40t22 -33q28 -30 72 -30h257q42 0 72 30t30 73v126zM116 1557l22 68q37 -12 77 -19.5t82 1.5q-32 32 -37 78q-3 27 5 53t25 46q18 20 42 30t52 8
q29 -3 52.5 -17t37.5 -37q30 -51 8 -105q-7 -17 -17.5 -31t-23.5 -26q8 -4 16.5 -6.5t17.5 -5.5l-23 -69q-20 7 -40.5 14.5t-40.5 18.5q-25 -13 -43 -17q-30 -8 -58.5 -9.5t-55 1.5t-51.5 9.5t-47 14.5zM401 1743q-13 8 -26.5 7t-23.5 -8.5t-16 -20.5t-4 -28q1 -9 5.5 -20
t17.5 -21q5 -4 8.5 -6.5t8.5 -5.5q14 11 26.5 23.5t18.5 27.5q5 14 2 29t-17 23z" />
    <glyph glyph-name="shaddawithdammatanisolatedlow" unicode="&#xe82b;" 
d="M81 1710v71h461v-71h-461zM81 1566v71h461v-71h-461zM542 1351q0 -21 -7.5 -40t-21.5 -33t-33 -22t-40 -8h-257q-42 0 -72 30t-30 73v126h72v-116q0 -17 12 -29t29 -12h84v157h72v-157h80q17 0 29 12t12 29v116h71v-126z" />
    <glyph glyph-name="shaddawithkasraisolatedlow" unicode="&#xe82c;" 
d="M536 1464h-72v-116q0 -17 -12 -29t-29 -12h-79v157h-72v-157h-85q-17 0 -29 12t-12 29v116h-71v-126q0 -21 8 -40t22 -33q28 -30 72 -30h257q42 0 72 30t30 73v126zM115 1557l22 68q37 -12 77 -19.5t82 1.5q-32 32 -37 78q-3 27 5 53t25 46q18 20 42 30t52 8
q29 -3 52.5 -17t37.5 -37q30 -51 8 -105q-7 -17 -17.5 -31t-23.5 -26q8 -4 16.5 -6.5t17.5 -5.5l-23 -69q-20 7 -40.5 14.5t-40.5 18.5q-25 -13 -43 -17q-30 -8 -58.5 -9.5t-55 1.5t-51.5 9.5t-47 14.5zM400 1743q-13 8 -26.5 7t-23.5 -8.5t-16 -20.5t-4 -28q1 -9 5.5 -20
t17.5 -21q5 -4 8.5 -6.5t8.5 -5.5q14 11 26.5 23.5t18.5 27.5q5 14 2 29t-17 23z" />
    <glyph glyph-name="shaddawithkasratanisolatedlow" unicode="&#xe82d;" horiz-adv-x="640" 
d="M555 1539q0 -43 -30 -73t-72 -30h-257q-43 0 -73 30t-30 73v127h72v-117q0 -17 12 -29t29 -12h85v158h71v-158h80q17 0 29 12t12 29v117h72v-127zM93 1289v72h462v-72h-462z" />
    <glyph glyph-name="ornateleftparenthesis" unicode="&#xfd3e;" horiz-adv-x="1292" 
d="M1181 -483q0 -7 -24 -10q-138 0 -358 254q-135 157 -217 350q-217 0 -220 46q143 126 143 207q-70 0 -229 -135q-30 0 -58 152q-114 51 -114 88q0 53 111 99q0 145 51 145q70 -61 108 -85q73 -44 131 -48q-3 58 -58 116q-49 45 -101 92q0 50 229 57q145 372 420 560
q94 63 131 63q19 0 19 -19q-95 -109 -227 -275q-97 -157 -131 -343q107 -10 107 -39q-141 -113 -150 -208q68 0 128 51q33 29 101 89q61 0 61 -152q111 -45 111 -96q0 -34 -104 -89q0 -141 -58 -145q-114 116 -235 128q0 -63 158 -210q0 -18 -116 -39q70 -343 371 -570
q20 -14 20 -34zM1053 1401q-285 -172 -447 -601q-173 0 -178 -25q84 -65 123 -133q24 44 43 58q15 34 39 68q2 0 9 -27.5t14.5 -34t41.5 -64.5q15 41 119 140q0 6 -30 15q-16 3 -50 7q46 167 65 220q62 174 251 377zM1092 483q0 20 -100 55q0 107 -24 117
q-104 -87 -169 -111q10 -6 111 -37q66 -21 66 -34q-25 -12 -174 -58q53 -17 101 -51q19 -12 70 -57q19 0 19 108q100 48 100 68zM763 473q0 121 -138 121q-135 0 -135 -121q0 -46 43.5 -80.5t91.5 -34.5q138 0 138 115zM454 408q-36 12 -84 31q-100 41 -100 44q15 7 107 31
q21 7 74 27q-60 20 -175 104q-10 0 -15 -107q-49 -24 -99 -69q0 -24 99 -54q0 -108 24 -118l77 63q44 38 92 48zM1099 -442q-285 230 -355 592q85 7 85 21q-85 68 -131 140q-12 -28 -31 -62q-34 -61 -39 -61q-31 0 -68 123q-39 -72 -121 -144q8 -12 97 -17h39q22 0 34 4
q147 -396 490 -596z" />
    <glyph glyph-name="ornaterightparenthesis" unicode="&#xfd3f;" horiz-adv-x="1292" 
d="M1181 469q0 -37 -116 -88q-27 -152 -58 -152q-159 135 -227 135q0 -81 142 -207q-4 -46 -221 -46q-80 -193 -215 -350q-220 -254 -360 -254q-22 3 -22 10q0 20 19 34q300 227 370 570q-116 21 -116 39q159 147 159 210q-120 -12 -236 -128q-58 4 -58 145q-104 55 -104 89
q0 51 113 96q0 152 61 152q33 -31 101 -89q60 -51 126 -51q-7 95 -150 208q0 29 108 39q-34 186 -132 343q-129 166 -227 275q0 19 19 19q38 0 131 -63q275 -188 422 -560q227 -7 227 -57q-50 -47 -101 -92q-53 -58 -56 -116q58 4 130 48q39 24 109 85q49 0 49 -145
q113 -46 113 -99zM857 775q-7 25 -178 25q-162 429 -449 601q190 -203 251 -377q21 -53 67 -220q-36 -4 -51 -7q-31 -9 -31 -15q104 -99 119 -140q26 32 57 99q5 25 10 27q22 -34 37 -68q21 -14 43 -58q39 68 125 133zM1123 469q-51 45 -101 69q-3 107 -15 107
q-41 -31 -80.5 -58t-93.5 -46q54 -20 73 -27q104 -26 109 -31q0 -3 -100 -44q-50 -19 -86 -31q48 -10 93 -48l76 -63q24 10 24 118q101 30 101 54zM795 473q0 121 -136 121q-138 0 -138 -121q0 -115 138 -115q49 0 92.5 34.5t43.5 80.5zM486 544q-66 24 -170 111
q-24 -10 -24 -117q-99 -35 -99 -55t99 -68q0 -108 20 -108q52 45 70 57q46 34 99 51q-165 51 -172 58q0 13 65 34q100 31 112 37zM845 167q-82 72 -120 144q-39 -123 -70 -123q-3 0 -37 61q-21 34 -33 62q-46 -72 -131 -140q0 -14 85 -21q-68 -362 -355 -592
q343 200 490 596q12 -4 36 -4q38 0 61 2t74 15z" />
    <glyph glyph-name="zerowidthnobreakspace" unicode="&#xfeff;" horiz-adv-x="0" 
 />
    <glyph glyph-name="NULL" horiz-adv-x="0" 
 />
    <glyph glyph-name="_32" horiz-adv-x="1461" 
d="M1248 712h-1050v218h1050v-218zM1248 266h-1050v220h1050v-220z" />
    <glyph glyph-name="currency.001" horiz-adv-x="1024" 
d="M995 382l-58 -55l-143 143q-134 -103 -270 -103q-77 0 -157 26q-92 29 -138 77l-146 -143l-56 55l144 145q-102 117 -102 282q0 157 102 283l-144 141l56 57l146 -142q118 102 285 102q162 0 280 -102l143 142l58 -57l-144 -141q103 -132 103 -281q0 -154 -103 -284z
M874 808q0 95 -50.5 182t-133.5 132q-86 47 -178 47q-151 0 -256.5 -105.5t-105.5 -257.5q0 -149 106 -254t255 -105t256 106t107 255z" />
    <glyph glyph-name="brokenbar.001" horiz-adv-x="410" 
d="M244 809h-83v742h83v-742zM244 -313h-83v742h83v-742z" />
    <glyph glyph-name="section.001" horiz-adv-x="853" 
d="M763 622q0 -206 -233 -314q117 -81 157 -125q73 -79 73 -178q0 -150 -137 -244q-123 -84 -279 -84q-115 0 -238 57v273h74q2 -111 55 -184q61 -83 167 -83q91 0 160 62t69 152q0 88 -84 162q-33 28 -160 105q-141 85 -196 141q-96 95 -96 212q0 215 255 317
q-112 72 -157 120q-72 79 -72 177q0 149 113 230q99 73 254 73q111 0 222 -44v-253h-70q-14 103 -66 167q-60 76 -156 76q-77 0 -130.5 -50.5t-53.5 -126.5q0 -82 76 -153q36 -32 146 -102q155 -98 209 -154q98 -100 98 -229zM659 564q0 90 -85 169q-48 44 -163 111
q-201 -50 -201 -215q0 -86 99 -171q48 -42 171 -116q179 89 179 222z" />
    <glyph glyph-name="sfthyphen" horiz-adv-x="1483" 
d="M1290 457h-1116v210h1116v-210z" />
    <glyph glyph-name="twosuperior.001" horiz-adv-x="725" 
d="M640 989l-48 -239h-33q-1 27 -18 27h-476v37q178 198 239 277q161 208 161 316q0 93 -89 93q-131 0 -188 -222h-49v175q168 88 303 88q173 0 173 -151q0 -68 -60 -143q-28 -35 -113 -113l-254 -234h313q85 0 104 89h35z" />
    <glyph glyph-name="threesuperior" horiz-adv-x="725" 
d="M637 1038q0 -122 -113 -205q-103 -76 -229 -76q-89 0 -188 36v228h49q7 -85 55 -149q56 -73 136 -73q71 0 111 46t40 118q0 192 -267 200v37q86 14 148 65q70 58 70 139q0 92 -87 92q-75 0 -125 -76q-44 -66 -47 -146h-49v176q177 90 290 90q153 0 153 -121
q0 -84 -97 -148q-51 -34 -170 -80q153 0 205 -14q115 -30 115 -139z" />
    <glyph glyph-name="onesuperior.001" horiz-adv-x="725" 
d="M551 766h-348v36h31q77 0 77 69v467q0 77 -54 77q-32 0 -89 -20v35l309 110v-30q-33 -6 -33 -51v-588q0 -69 70 -69h37v-36z" />
    <glyph glyph-name="onequarter.001" horiz-adv-x="1749" 
d="M1664 329h-113v-104q0 -76 66 -76h23v-35h-331v35h30q79 0 79 76v104h-340v36l228 265q77 98 193 256h52v-489h113v-68zM1377 1542l-926 -1445h-88l928 1445h86zM558 766h-348v36h31q77 0 77 69v467q0 77 -54 77q-32 0 -89 -20v35l309 112v-32q-33 -6 -33 -51v-588
q0 -69 70 -69h37v-36zM1418 397v276q-109 -96 -257 -276h257z" />
    <glyph glyph-name="onehalf" horiz-adv-x="1749" 
d="M1663 333l-48 -239h-33q-1 28 -17 28h-477v36q179 199 239 276q162 209 162 316q0 95 -90 95q-130 0 -188 -223h-49v180q168 84 304 84q173 0 173 -152q0 -77 -81 -168q-26 -30 -140 -131q-76 -67 -207 -191h313q88 0 104 89h35zM1377 1542l-926 -1448h-88l928 1448h86z
M558 766h-348v36h31q77 0 77 70v466q0 77 -54 77q-31 0 -89 -20v35l309 112v-32q-33 -6 -33 -51v-587q0 -70 70 -70h37v-36z" />
    <glyph glyph-name="threequarters" horiz-adv-x="1749" 
d="M1665 329h-114v-104q0 -76 66 -76h23v-35h-326v35h26q78 0 78 76v104h-340v36l219 253q113 130 202 268h52v-489h114v-68zM1400 1542l-924 -1445h-90l928 1445h86zM644 1038q0 -122 -113 -205q-104 -76 -229 -76q-90 0 -188 36v228h49q7 -85 55 -149q56 -73 136 -73
q71 0 111 46t40 118q0 192 -267 200v37q86 14 148 65q70 58 70 139q0 92 -87 92q-75 0 -125 -76q-44 -66 -47 -146h-49v176q177 90 290 90q153 0 153 -121q0 -129 -267 -228q152 0 205 -14q115 -31 115 -139zM1418 397v276q-111 -98 -257 -276h257z" />
    <glyph glyph-name="ccedilla" horiz-adv-x="917" 
d="M846 370q-199 -247 -385 -268v-88q36 4 58 4q146 0 146 -111q0 -67 -63 -107q-55 -35 -126 -35q-60 0 -128 30v56q62 -31 118 -31q98 0 98 74q0 75 -111 75q-16 0 -41 -2v135q-160 0 -265 140q-95 127 -95 292q0 289 254 464q104 72 240 72q125 0 274 -66v-259h-72
q-3 113 -74 189q-74 79 -186 79q-141 0 -222 -130q-70 -111 -70 -261q0 -151 74 -263q85 -128 228 -128q149 0 348 209v-70z" />
    <glyph glyph-name="egrave" horiz-adv-x="896" 
d="M1058 317q-21 -85 -80 -162q-138 -183 -398 -183q-236 0 -377 144q-70 70 -107 170q-39 105 -39 219q0 223 132 376q148 169 382 169q242 0 382 -175q122 -151 122 -395v-42h-733q2 -76 24 -127q56 -138 216 -138q105 0 163 68q25 29 45 76h268zM790 617q-8 76 -35 125
q-31 55 -89 84q-44 22 -96 22q-118 0 -183 -98q-35 -53 -44 -133h447zM494 1461h295l178 -284h-188z" />
    <glyph glyph-name="eacute" horiz-adv-x="896" 
d="M1058 317q-21 -85 -80 -162q-138 -183 -398 -183q-236 0 -377 144q-70 70 -107 170q-39 105 -39 219q0 223 132 376q148 169 382 169q242 0 382 -175q122 -151 122 -395v-42h-733q2 -76 24 -127q56 -138 216 -138q105 0 163 68q25 29 45 76h268zM790 617q-8 76 -35 125
q-31 55 -89 84q-44 22 -96 22q-118 0 -183 -98q-35 -53 -44 -133h447zM489 1177h-188l178 284h295z" />
    <glyph glyph-name="ecircumflex" horiz-adv-x="896" 
d="M1058 317q-21 -85 -80 -162q-138 -183 -398 -183q-236 0 -377 144q-70 70 -107 170q-39 105 -39 219q0 223 132 376q148 169 382 169q242 0 382 -175q122 -151 122 -395v-42h-733q2 -76 24 -127q56 -138 216 -138q105 0 163 68q25 29 45 76h268zM790 617q-8 76 -35 125
q-31 55 -89 84q-44 22 -96 22q-118 0 -183 -98q-35 -53 -44 -133h447zM746 1234h-66l-214 126l-211 -126h-68l279 242z" />
    <glyph glyph-name="ugrave" horiz-adv-x="1131" 
d="M1095 1022v-1022h-266v145q-120 -173 -323 -173q-181 0 -273 122q-66 88 -66 281v647h279v-564q0 -146 25 -189q41 -69 139 -69q124 0 179 115q27 56 27 200v507h279zM555 1461h295l178 -284h-188z" />
    <glyph glyph-name="ucircumflex" horiz-adv-x="1131" 
d="M1095 1022v-1022h-266v145q-120 -173 -323 -173q-181 0 -273 122q-66 88 -66 281v647h279v-564q0 -146 25 -189q41 -69 139 -69q124 0 179 115q27 56 27 200v507h279zM811 1234h-66l-214 126l-211 -126h-68l279 242z" />
    <glyph glyph-name="Scaron" horiz-adv-x="917" 
d="M1125 992h-293q-20 212 -266 212q-93 0 -150 -31q-80 -43 -80 -131q0 -70 58 -101q56 -31 283 -87q239 -59 332 -120q171 -112 171 -311q0 -220 -171 -346q-152 -111 -409 -111q-362 0 -518 207q-89 117 -94 298h306q7 -117 61 -175q85 -90 256 -90q116 0 182 46
q77 52 77 141q0 90 -107 132q-58 22 -277 83q-157 43 -247 85q-99 45 -150 132q-49 82 -49 195q0 203 169 322q143 101 373 101q200 0 337 -80q196 -115 206 -371zM808 1800l-280 -242l-281 242h68l213 -132l214 132h66z" />
    </font>
</defs>
</svg>
